<svg version="1" xmlns="http://www.w3.org/2000/svg" width="1349.333" height="1349.333" viewBox="0 0 1012.000000 1012.000000"><path d="M815.7 6.7c-1.1 1-.8 2.5.3 1.8 2-1.2.9 2.2-1.2 4.1-1.3 1-1.7 1.2-1.1.4.8-1.1.9-2.1.2-3-.8-1.3-1.2-1.2-2.8.7-1 1.2-2.2 1.9-2.6 1.5-.5-.4-.5.2-.1 1.3s.4 1.6 0 1.2c-.4-.4-1.4-.1-2.2.6-1.3 1-1.5.9-.8-.3.4-.9.2-.8-.7.2-.8 1-1.6 1.7-1.8 1.5-.2-.1.2.4 1 1 1.3 1.1 1.3 1.3-.2 1.3-.9 0-1.7.7-1.7 1.5s-.6 1.5-1.4 1.5c-.8 0-1.7.7-2 1.6-.3.9-1.1 1.2-1.8.8-.9-.6-.9-.3 0 .9 1.2 1.4 1.1 1.6-.6 1.2-1.1-.2-2.3.3-2.6 1-.2.7-1.5 1.5-2.7 1.7-1.2.2-2.3 1.1-2.5 2.1-.1.9.2 1.5.7 1.1.5-.3.6-1.1.3-1.7-.4-.7-.3-.8.1-.4 1.2 1 1.6 6.7.5 6.7-.4 0-1.1 1-1.5 2.2-.4 1.3-.8 2.6-1 3-.1.5-.3 1.1-.4 1.4 0 .4-.8.1-1.7-.6-.8-.8-1.4-.9-1.2-.4.2.5-.1.9-.7.9-.5 0-1-.7-1-1.7-.1-.9.3-1.5.9-1.4.6.2.8.1.3-.1-.4-.3-.5-.9-.2-1.3.3-.5 0-1.2-.6-1.6-.8-.4-.9-.3-.5.4s.1 1.2-.8 1.2c-.8 0-2 .9-2.6 2-.7 1.2-1.6 1.8-2.3 1.3-.7-.4-.6.1.2 1.1.8.9 1 1.6.5 1.5-1.9-.3-3.4.1-3.4 1.2 0 .6.8.8 1.9.4 4.1-1.3 6.3 1.9 3.1 4.8-1.1.9-1.1.8 0-.8 1.4-1.8 1.4-1.9-.2-.6-1 .7-1.8 2.3-1.8 3.4s-.3 1.7-.7 1.4c-.3-.4-1.1.3-1.8 1.6-.6 1.2-1.7 2.1-2.3 2-.6-.2-.9.6-.7 1.7.3 1.8-.6 2.5-2.8 2.1-.5-.1-.6.3-.3.8.4.5-.1 1.6-.9 2.5-.9.8-1.6 1.8-1.5 2.1.1 1.9-.3 2.4-2.5 3.9-2.4 1.6-2.6 1.6-4.8-1-2.2-2.5-2.3-2.5-3.7-.8-1.4 1.7-1.4 1.8.3.5 2.1-1.7 2.2-.8.1 2.4-.9 1.4-1.3 2.5-1 2.5.4 0 .2.6-.4 1.2-.6.7-1.8 2.2-2.6 3.3-.9 1.1-1.2 1.4-.8.6.5-1 .3-1.2-.5-.7-.7.5-1 1.1-.7 1.4.3.3 0 1.2-.8 2.1-.8.9-1.6 2-1.7 2.6-.2.5-.9.9-1.6.7-.8-.2-1 .3-.6 1.4.4 1.2.3 1.5-.5 1-1.1-.7-1.3-.3-1.6 3.2-.1.7-.8 1.7-1.6 2.2-1.3.9-1.3 1 0 1s1.3.1 0 1c-.8.5-1.1 1-.7 1 .5 0 .1.7-.7 1.6-.9.8-1.3 2.1-.9 2.7.5.9.3.9-.8 0-1.2-1-1.8-.8-3 .8-.8 1.2-2.4 3.3-3.6 4.7-1.2 1.4-2 2.9-1.7 3.4.3.4.1.8-.4.8-.9 0-5.7 7.1-5.3 7.8.1.1-.5 1-1.4 1.8-.8.9-1.2 2-.9 2.6.4.6.3.8-.3.5-1.1-.7-5.5 3.8-4.6 4.6.3.3-.4 1.6-1.6 2.8-1.2 1.3-2.1 2.9-2.1 3.6 0 .7-.4 1.3-.9 1.3s-1.2 1.1-1.5 2.5c-.4 1.4-1.1 2.5-1.7 2.5-.6 0-.8.4-.5.9.3.5-.1 1.4-.9 2.1-.8.7-1.5 1.9-1.5 2.7 0 .8-.5 1.1-1.2.7-.8-.5-.9-.2-.5.9.4 1 .2 1.7-.4 1.7-.6 0-.9.7-.5 1.5.3.8.1 1.5-.4 1.5s-1.3 1.2-1.6 2.7c-.4 1.5-1.5 3.6-2.5 4.7-1 1-1.6 2.3-1.3 2.8.3.4 0 .8-.7.8s-.9.3-.6.7c.4.3-.2 1.2-1.3 2s-2 2.1-2 2.9c0 1.8-2.4 4.4-4 4.4-.6 0-.8.4-.5 1 .3.5.1 1-.4 1-.6 0-1.1.9-1.1 2s-.4 2-.8 2-1.4 1.6-2.1 3.5c-.7 1.9-1.7 3.5-2.2 3.5-.5 0-.9.9-.9 2s-.7 2.3-1.5 2.6c-.8.4-1.3 1-1 1.4.3.5-.4 1.1-1.5 1.5-1.2.4-2 1.5-2 2.8 0 1.2-1.2 3.3-2.5 4.6-1.4 1.3-2.8 3.5-3.1 5-.6 2.9-.9 3.6-2.8 6.9-.7 1.3-1.6 2.3-2 2.3-2-.2-2.4.1-1.9 1.9.3 1.3 0 2-.8 2-1.1 0-1.1.2.1 1 1 .6 1.1 1 .3 1-.7 0-1.3.8-1.3 1.7 0 1.5.2 1.6 1 .3.7-1 1-1.1 1-.2 0 .7-.7 1.5-1.5 1.8-.8.4-1.2 1-.9 1.5.3.5-.1.9-.8.9-.9 0-.9.3.2 1s1.1 1 .2 1c-.7 0-1.1.4-.7.9.3.5-.4 1.6-1.5 2.4-1.1.8-2.3 2.5-2.6 3.8-.3 1.3-.7 3.1-.9 3.9-.2.8-.4 1.9-.4 2.3-.1.5-.5.5-1.1.2-.5-.3-1-.2-1 .3s-.9 1.2-2.1 1.5c-1.2.3-1.8 1-1.4 1.6.3.6.1 1.1-.5 1.1s-.9.4-.5.9c.3.5-.2 1.6-1 2.4-.8.9-1.5 2.4-1.5 3.5s-.8 2.6-1.7 3.3c-1.7 1.3-1.7 1.3-.3-.6s1.4-1.9-.3-.6c-.9.8-1.5 1.6-1.3 1.9.3.3-.3 1.7-1.4 3.2-1.1 1.5-1.7 3-1.3 3.4.3.3.1.6-.6.6s-.9.4-.6 1c.3.5-.1 1-1 1s-1.3.4-1 1c.3.5.1 1-.5 1s-.8.5-.5 1.1c.4.6-.1 1.6-1.1 2.3-.9.7-1.5 2-1.1 2.8.3 1 0 1.5-1.1 1.4-1.1-.1-1.6.5-1.4 1.6.2 1.2-.2 1.6-1.3 1.2-1.1-.5-1.4-.2-.9 1 .4.9.1 1.6-.6 1.6-1 0-.9.5.2 1.7 2 2.3 1.3 4.9-.8 3.2-1.2-1-1.3-.9-.8.6.6 1.5.4 1.6-1.6.5-1.3-.7-2-.8-1.6-.1.4.5-.3 1.5-1.4 2.1-1.1.6-1.8 1.5-1.5 1.9.2.5-.2 1.4-1 2.1-.7.6-1.1 1.9-.8 2.7.5 1.2.3 1.4-.7.8-1-.6-1.2-.4-.7.8.4 1.2.2 1.4-1.1 1-.9-.3-1.4-.3-1 .2.4.4 0 1.4-.8 2.2-.8.8-1.2 1.9-.9 2.4.4.5.2.9-.4.9-.9 0-5.1 6.1-5.1 7.4 0 .4.6.4 1.3.1.6-.4.1.3-1.3 1.4-1.4 1.1-2 2.1-1.5 2.1.6 0 .3.5-.5 1-.9.6-1 1-.3 1 .6 0 1.8-.9 2.6-2s1.7-1.7 2.2-1.2c.4.4.5-.6.1-2.2-.7-2.7-.6-2.8 1-1.5 1.6 1.3 1.6 1.2.5-.9-1-1.9-.9-2.2.6-2.2s1.6-.2.3-1-1.2-1 .3-1c2.1 0 4.7 2.2 4.7 4 0 .6-.5.8-1.2.4-.9-.5-.8-.2.1.9 1.1 1.4 1.2 2.3.2 4.3-.6 1.4-1.5 2.3-1.9 2-.5-.3-.9.1-.9.9s.4 1.2.9.9c1.6-1 .8.9-.9 2.1-1.1.8-2.4 1-3.3.5-1.1-.6-1.5-.2-1.6 1.6-.1 1.5.2 2.2 1 1.8.6-.3.3.1-.6.9-1 .8-1.5 1.7-1.1 2 .3.4.2.7-.4.7-.6 0-.8 1.1-.6 2.4.4 1.7-.1 2.8-1.6 3.8-1.2.7-2.1 2.1-2.1 3 0 .9-.9 2.6-2.1 3.7-1.3 1.1-1.8 2.4-1.4 3.2.5.8.4 1-.3.5-.7-.4-1.2-.4-1.3.1 0 .4-.3 1.7-.5 2.8-.3 1.1-.6 2.7-.6 3.5-.1.8-.6 1.8-1.2 2.2-.8.6-.6 1.1.4 1.8.8.5 1 1 .4 1-1.8 0-5.4 3.6-5.4 5.4 0 .9-.5 1.6-1.1 1.6-.5 0-.7.4-.4 1 .3.5-.1 1-1 1-.8 0-1.8.7-2.1 1.5-.4.8-1.1 1.2-1.8.8-.6-.4-.6 0 .2.9 2 2.5 2.4 5.8.5 5.1-1.2-.5-1.4-.1-.9 1.8l.7 2.4-1.4-2.4-1.5-2.4-.7 2.2c-.4 1.3-1.2 2-2 1.7-1-.3-1.2 0-.8 1.1.5 1.2.3 1.4-.7.8-.9-.6-1.1-.4-.5.5.6 1 .4 1.2-.8.7-2.2-.8-2.2.2.1 1.9 1.6 1.3 1.6 1.4-.2.7-1.6-.5-1.8-.3-1.4 1.5.4 1.2.2 2-.3 1.6-.5-.3-.9 0-.9.6s-.5.8-1.2.4c-.6-.4-.8-.3-.4.4.3.6.2 1.3-.4 1.7-1.6 1-1.2 2.5.8 2.5 1.4 0 1.5.2.2 1-.9.6-1.1 1-.3 1 .7 0 1 .6.7 1.4-.3.8 0 1.7.7 2.2.8.5 1 .3.4-.6-.6-.9-.4-1.1.5-.5 1 .6.9 1.1-.4 2.1-1.1.7-1.5 1.8-1 2.5.4.8.3 1-.4.5-.7-.4-1.2-.3-1.2.3 0 1.1-1.9.9-3.9-.3-1-.6-1.2-.5-.7.2.4.7.2 1.2-.4 1.2-.7 0-.8.6 0 1.9 1.3 2.6 1.3 3.4-.2 2.5-1-.5-1-.4-.2.5 1.3 1.4.7 6.1-.8 6.1-.5 0-.7.4-.4.9.3.5-.1 1.2-1 1.5-.8.3-1.3 1-.9 1.5.3.6 0 1.3-.7 1.8-1.4.9-2.1 4.3-.9 4.3.4 0 .8.7.8 1.5s-.4 1.2-.8 1c-.4-.3-1 .2-1.3 1.1-.3.8-1 1.3-1.5.9-.5-.3-1.2-.1-1.6.5-.3.5-.2 1 .4 1 1.4 0 .6 5.1-1 6.1-.8.5-1 .9-.5.9s.3.6-.3 1.3c-.6.8-.8 1.7-.4 2.1.4.4 0 .4-.8.1-1.9-.7-4.5 4.1-2.6 4.9.7.3.6.5-.3.5-.9.1-2.8 1.5-4.3 3.2-1.5 1.7-2.7 2.7-2.7 2.3 0-.5-.5-.2-1 .6-.8 1.3-1 1.2-1-.3 0-.9-.5-1.7-1.1-1.7-.5 0-.8-.4-.5-.8.2-.4-.3-.8-1.3-.8-2.2 0-2.5 3.2-.4 4 1.4.6 1.4.4.3-1.1-.8-1-.2-.7 1.2.7s2.2 2.6 1.8 2.8c-.5.2-.6 1.2-.3 2.2.3 1.1 0 2-.6 2s-1.1.7-1.1 1.5-.4 1.5-1 1.5c-.5 0-1 .7-1 1.6 0 1-.5 1.4-1.6 1-.9-.3-1.2-.2-.9.5.4.6-.1 1.7-1.1 2.5-1.1.9-1.3 1.2-.6.9 1.1-.6 1.2-.3.2 1.4-.6 1.2-1.5 1.9-2 1.6-.6-.3-.7.1-.4.9.7 1.9-.7 2.1-2.6.3-1.2-1-1.2-.9-.1.5 1.1 1.5 1.1 2.1 0 3.5-1 1.1-1 1.4-.1.9 1.3-.8 1.6.3.6 2.8-.3.9-1 1.3-1.5 1-.5-.3-.6.3-.2 1.2.4 1.2.3 1.5-.5 1s-1-.2-.6.8c.3.9.1 1.6-.5 1.6s-1.1.7-1.1 1.5-.4 1.5-1 1.5c-.5 0-.9.6-.7 1.2.1.7-.4 1.2-1.2 1-.8-.2-1.1.3-.8 1.2.3.8-.1 1.7-.9 2-.9.3-1.2 1-.9 1.6.3.5.2 1-.3 1s-.9 1.2-.9 2.7c0 1.6-1 3.4-2.3 4.5-1.2 1-1.8 1.8-1.4 1.8.5 0 .4.4-.1.8-1.9 1.3-4.5 6.1-4.5 8.1 0 1.1-1.5 3.2-3.2 4.6-1.8 1.5-2.7 2.4-2 2 .6-.3 1.2-.2 1.2.2 0 1.6-3.1 5.3-4.5 5.3-.8 0-1.7.4-2 1-.4.6.1.7 1.2.4 1.6-.5 1.6-.4.3.8-.9.8-1.4 2.6-1.2 4.5.2 1.9-.1 3.3-.7 3.3s-1.1.7-1.1 1.7c0 .9-.3 1.4-.6 1-.9-.9-4.5 3.3-3.8 4.5.4.7.3.8-.4.4-.8-.5-1.2 0-1.2 1.3 0 1.2-.4 2.1-.9 2.1s-1.5 2.4-2.1 5.2c-.7 2.9-2.2 6.2-3.4 7.4-2.8 2.7-8.9 9.8-8.7 10.1.7 1.5-.2 1.2-1.3-.2-.8-1.1-1.2-2.3-1-2.7.2-.4-.1-1-.6-1.3-.7-.5-.5-1.2.7-2.2 1-.8 1.2-1.2.6-.8-.9.4-1.1.1-.7-1 .4-.9.9-1.4 1.1-1.1.7.7 4.3-2.7 3.7-3.6-.3-.4 0-.8.7-.8.9 0 .9-.3 0-1.4-.9-1.1-.8-1.5.4-2 .8-.3 1.5-.9 1.4-1.3-.4-2.1.2-3.3 1.3-2.7.8.5.9.2.5-.9-.4-1.2-.1-1.7 1.1-1.8 1 0 1.2-.3.5-.6-1-.3-1-.9 0-2.6.7-1.2 1.6-2.5 2.1-2.8.5-.4.6-1.1.2-1.7-.3-.5.1-1.3 1-1.6.8-.3 1.2-1 .9-1.6-.3-.5-.1-1 .5-1s.9-.4.6-.9c-.8-1.3 1.9-7.3 2.9-6.4.4.5.6.1.3-.8-.4-.9.2-2 1.3-2.7 1.1-.7 1.6-1.8 1.3-2.7-.4-.8-.1-2.1.5-2.9.6-.7.8-1.6.4-1.9-.3-.4-.1-.7.5-.7.7 0 1.2-.7 1.2-1.5s.9-2.4 1.9-3.4c1.1-1.1 1.7-2.2 1.3-2.5-.3-.3.1-.6.8-.6.7 0 1.1-.3.7-.6-.3-.4.1-1.3.9-2.2.9-.8 1.3-2.3 1.1-3.3-.3-1.1-.1-1.9.4-1.9s.8-.6.6-1.3c-.1-.6.4-1.1 1.2-.9 1.2.3 1.2 0 .1-1.2-.8-1-.9-1.6-.2-1.6.6 0 .9-.6.6-1.4-.3-.8 0-1.7.5-2.1.6-.3.9-1.1.6-1.6-.4-.5.1-.9.9-.9.9 0 1.5-.3 1.5-.8-.3-1.9.3-3.3 2.4-5.6 1.7-1.8 2.7-2.2 3.4-1.5.8.8 1.3.7 1.8-.2.5-.7.4-1-.3-.5-1.2.7-2.9-2-2.7-4.4.1-2.6 3.4-9 4.5-9 .6 0 .9-.4.5-.9-.3-.6.4-1.5 1.5-2.1 1.1-.6 1.8-1.5 1.6-1.9-.3-.4.6-1.3 2-2 3.1-1.4 3.7-1.4 2.8.1-.4.6-.3.8.3.5.6-.4.8-2.2.3-4.6-.5-3.1-.4-3.8.7-3.4.9.4 1.1 0 .6-1.3-.4-1.2-.3-1.5.5-1 .7.4 1.2.2 1.2-.4 0-.6.5-.8 1.2-.4s.8.3.4-.5c-.4-.6-1.2-.9-1.7-.6-.5.4-.9-.3-.9-1.3 0-2.8 2.8-9.2 4.1-9.2.5 0 .7-.5.4-1-.3-.6.1-1.3.9-1.6.9-.3 1.4-1 1.1-1.4-.3-.5.4-1.1 1.5-1.5 1.1-.4 1.8-1.1 1.5-1.6-.4-.5-.2-.9.3-.9s.7-1.1.4-2.5c-.2-1.5 0-2.5.7-2.5s.9-.5.6-1c-.3-.6-.1-1 .5-1s.9-.4.6-.8c-.6-1 4.8-6.2 6.4-6.2.7 0 1-.7.6-1.5-.3-.8-.1-1.5.5-1.5s.7-.5.4-1c-.4-.6-1-.8-1.5-.5-.4.3-1.3-.2-1.9-.9-.9-1-.9-1.6-.1-2.1.6-.4.9-.1.8.5-.2.7.5 1.4 1.5 1.5 2.2.4 3.5-4.1 1.7-5.8-.8-.7-1-.7-.7-.1.3.6 0 1.1-.8 1.1-1.1 0-1.2-.4-.4-1.3.6-.7.8-1.8.4-2.4-.4-.7.2-1.4 1.4-1.7 1.2-.3 1.8-1 1.4-1.7-.4-.6.1-.5 1.1.3 1.4 1.2 1.9 1.2 2.9.1.8-.9.8-1.1.1-.7-.7.4-1.4 0-1.7-.7-.4-1 0-1.3 1.4-1.1 1.1.2 1.7 0 1.4-.5-.3-.5.2-1.3 1.2-1.8 1.4-.9 1.3-1-.9-.9-1.4.1-2.4.7-2.1 1.2.2.6-.5 1.1-1.6 1.1s-1.8-.3-1.5-.7c.2-.4.1-.9-.3-1.2-.5-.2-.3-.3.2-.2.6.2 1-.8 1-2 0-1.3-.4-2.1-1-1.8-.5.3.1-.4 1.4-1.5 1.8-1.4 2.1-2.1 1.1-2.7-.9-.6-1.1-.4-.5.6.6 1.1.5 1.1-.4.3-1-1-1-1.7 0-3.5.7-1.3 1.4-3 1.5-3.8.2-.8.8-1.7 1.4-2.1.6-.4 1.3-1.3 1.4-2.1.9-4.6 1.9-6.8 2.9-6.2.6.4.7.1.2-.7-.4-.7-.2-1.6.6-2 .7-.5 1.4-2.1 1.6-3.6.3-1.5 1.3-4 2.3-5.4 1.1-1.5 1.7-3 1.3-3.4-.3-.3 0-.6.7-.6s1.1-.3.7-.6c-.3-.3.3-2.2 1.4-4.1 1.1-1.9 1.4-3.1.7-2.7-.9.5-.8.2.1-1 .8-1 1.5-2.7 1.6-3.8.1-1.1.8-2.4 1.6-2.9.8-.4 1.4-1.3 1.4-1.9 0-.6.7-1.5 1.5-2 1.2-.8 1.3-1 .1-1-1 0-.8-.7.7-2.3 1.2-1.3 1.9-2.7 1.5-3-.3-.4-.1-.7.7-.7 1 0 1-.3 0-1.5-.8-1-.9-1.5-.2-1.5.6 0 .9-.6.6-1.4-.3-.8.5-2.1 1.8-3 1.2-.9 1.8-1.6 1.3-1.6s.1-.7 1.3-1.6c1.2-.8 2-1.9 1.7-2.4-.3-.5.2-1.5 1-2.3 1.1-1.2 1.2-1.7.2-2-.9-.4-.9-.6.1-.6.6-.1 1.2-.8 1.2-1.6s.5-1.5 1.1-1.5c.5 0 .8-.4.5-.9-.6-.9 2.9-8.3 3.6-7.6.2.3.2-.9 0-2.6-.3-2.2-.1-3 .7-2.5.7.5.9.1.5-.8-.3-.9-.1-1.6.5-1.6s1-.3.9-.8c-.1-.4.4-1.8 1.1-3.2 1.7-3 2.6-10 1.4-10-.5 0-1-.6-1-1.4 0-.9.7-1.2 1.6-.8.9.3 1.3.2.9-.2-.4-.5.2-1.7 1.2-2.9 1.1-1.1 1.7-2.3 1.5-2.7-.3-.5.2-1 1-1.4.8-.3 1.5-1.8 1.5-3.3 0-1.4 1-3.8 2.3-5.1 1.2-1.4 1.7-2.2 1-1.8-1.9 1.1-1.1-3.7.9-5.5 2.1-1.9 5-8.4 4.1-9.2-.3-.4 0-1.3.7-2.2.7-.8.9-1.5.5-1.5-.5 0 0-.9.9-1.9 1-1.1 1.5-2.5 1.1-3-.3-.6 0-1.1.7-1.1 1.1 0 1.1-.2 0-.9-1.1-.6-1-1.1.3-2.5.9-.9 1.3-1.6 1-1.6-.4 0 0-1.1.8-2.4.9-1.3 1.7-3.4 1.9-4.7.2-1.3.7-3 1.2-3.8.7-1 .5-1.2-.5-.7-.8.4-.6.1.5-.8 1.8-1.4 2.2-3.1 2.8-10.4.1-1.7.6-3.2 1-3.2s.8-.7.8-1.5.5-1.5 1.1-1.5c.5 0 .7-.5.3-1.1-.3-.6 0-1.5.7-2 1.2-.7 1.1-.9-.1-.9-1.1 0-1.2-.2-.2-.8 1.3-.9 2.2-3.9 2.4-8.4 0-1.5.5-2.5.9-2.2.5.3.6-.2.3-1-.3-.9-.1-1.6.6-1.6.6 0 .9-.4.5-.9-.3-.5-.1-1.3.5-1.6.6-.4 1-2.2.8-4-.2-2.9-.4-3.2-1.7-2.2-1.2.9-1.3.9-.7-.1.4-.7.2-1.2-.7-1.2-1.1 0-1.6-3.6-.7-4.8.2-.1.3-.5.4-1 .1-.4.4-1.2.7-1.7.4-.6 1-2.4 1.3-4 .6-2.6.3-3.1-1.3-3.2-1.4-.1-1.9.4-1.6 1.8.2 1 0 1.9-.6 1.9-.5 0-.9.6-.9 1.3 0 1.8-2.4 6.7-3.2 6.7-.5 0-.8.9-.8 1.9 0 1.1-.5 2.3-1 2.6-.6.4-.8 1.1-.5 1.6.4.5.1.9-.5.9-1 0-3.5 4.8-3.2 6.2.1.5-.3.8-.9.8-.5 0-.7.4-.4 1 .3.5.1 1-.4 1-.6 0-1.1.9-1.1 2s-.5 2-1.2 2c-.6 0-.9.3-.5.6.3.3-1 3.5-2.8 7-1.8 3.5-3 6.4-2.7 6.4.4 0 .3.4-.3.8-1.6 1.1-4.6 7.4-3.2 6.6.6-.4.3.2-.7 1.4-1.1 1.2-1.6 2.2-1.1 2.2.4 0 .2.7-.5 1.5s-.9 1.5-.5 1.5c.5 0 0 .9-.9 1.9-1 1.1-1.5 2.4-1.2 2.9.3.5-.1 1.5-.9 2.2-.8.7-1.2 1.6-1 2.1.3.4-.1 1.1-.9 1.6-.8.4-1.5 1.1-1.6 1.5-.7 3.4-1.4 4.8-2 4.8-.5 0-1.2 1-1.5 2.2-1 3.4-7.9 17.2-8.7 17.6-.5.2-.8 1.1-.8 1.9 0 .9-.8 2.2-1.7 3-1.1.9-1.2 1.2-.3.7.9-.4.7.2-.6 1.7-1.9 2.1-3.7 5.9-3.4 6.7.1.2-.8 1.2-1.9 2.1-1.2 1-2.1 2.3-2.1 3 0 .6-.5 1.1-1.1 1.1-.5 0-.8.4-.4.9.3.6-.3 1.8-1.4 2.8-1.1 1-2.1 2.5-2.3 3.3-.2.8-.8 2-1.5 2.8-.7.7-.9 2-.6 2.9.5 1.2.3 1.4-.8.8-1.2-.7-1.2-.6-.1.7 1.1 1.4.8 2.2-2.4 5.5-2 2.1-3.3 3.2-2.9 2.4.5-.9.4-1.2-.3-.7-.7.4-1.2 2.1-1.2 3.7s-.9 3.9-2 5.1c-1.7 1.8-2.7 6.6-2.1 10 0 .5-.4.8-1.1.8-.6 0-.8.3-.5.7.4.3-.7 1.9-2.4 3.4-2.1 1.8-2.6 2.9-1.7 3.2 1 .4 1 .6.1.6-.7.1-1.3 1-1.3 2.2 0 1.1-.4 1.8-.9 1.4-.5-.3-1.6.8-2.5 2.5-.8 1.7-1 2.8-.5 2.5 1.2-.8-3.2 6.8-4.6 7.7-.5.4-.7.8-.3.8.4 0-.9 2.3-2.8 5.1s-3.4 6.1-3.4 7.3c0 1.2-.5 2.7-1.2 3.4-1.1 1.1-1.8 3-2 5.9-.1.7-.6 1.1-1.1 1-.5-.1-1.1.7-1.3 1.8-.1 1.1-1.2 2.6-2.3 3.4-1.2.7-2.1 2.4-2.1 3.7 0 1.2-.6 2.9-1.3 3.6-2 2-4.7 7.9-4.1 8.9.3.5 0 .9-.6.9s-.8.4-.5 1c.3.5 0 1-.7 1-1 0-1 .2-.1.8 1.3.8-.8 4.5-4.9 8.6-1 1-1.8 3-1.8 4.6 0 1.6-.4 3.2-1 3.5-.5.3-1 1.9-1 3.5s-.5 3.2-1.1 3.6c-.6.3-.9 1.9-.7 3.5.3 1.6.1 2.9-.4 2.9-.4 0-.7.3-.7.7.4 2.3-.4 3.3-3.6 4.4-1.9.7-3.5 1.9-3.5 2.6 0 .7-.4 1.3-1 1.3-.5 0-.9.3-.9.7.4 2.2-.3 4.3-1.6 5.7-.9.8-1.6 1.9-1.7 2.3-.4 3-2.2 6.2-3.1 5.6-.7-.3-.9-.3-.5.1.4.5.3 1.8-.2 3.1s-.6 2.6-.2 2.9c.3.4.7 1.4.8 2.2.1.9 0 1.4-.2 1.1-1.4-1.3-9.3 10.2-8.6 12.5.1.5-.3.7-1 .5-1.5-.3-2.8 5.9-1.5 7.2.8.8.7 1.1-.2 1.1-.7 0-.9.5-.5 1.2.5.8.2.9-1 .5-1.4-.6-1.5-.4-.5 1.4.6 1.2.7 1.9.1 1.5-.5-.3-1.5.1-2.2.9-1.5 1.8-3.4 2-2.4.3.4-.6.3-.8-.4-.4-.6.3-.9 1.5-.7 2.6.2 1.1-.1 2-.7 2s-.5.7.3 1.7c1.1 1.3 1.1 1.7.1 2-.6.3-1 .9-.6 1.4.3.5-.2 1.6-1 2.5-.9.8-1.6 2.2-1.6 3 0 .8-.4 1.3-.9.9-.5-.3-1.2.4-1.6 1.5-.3 1.1-1.1 2-1.6 2-.6 0-.7.4-.4 1 .3.5.1 1-.5 1s-.8.4-.5 1c.3.6.1 1-.5 1s-.8.4-.5 1c.3.6.1 1-.5 1s-.9.4-.5.9c.3.5.1 1.2-.5 1.6-.6.4-.8 1.1-.5 1.6.4.5.2.9-.4.9-.5 0-.8 1-.6 2.1.3 1.2.2 1.9-.1 1.6-.3-.3-1.5.4-2.6 1.5s-2.6 1.7-3.3 1.4c-1.2-.4-3.1 3.6-2.7 5.6.1.5-.3.8-.9.8-.5 0-.7.4-.4 1 .3.5.1 1-.5 1s-.8.4-.5 1c.3.5-1 2.6-2.9 4.6-3.3 3.4-4 4.7-3.7 6.6 0 .5-.4.8-1 .8-.8 0-.8.5.1 1.5.7.8 1.6 1.3 2 1 .4-.3 1.3.1 1.9.9.9 1.1.6 1.3-1.4 1.1-1.4-.2-2.3.1-1.9.6.3.5 1.1.6 1.7.2.7-.4.6 0-.2 1-1.5 1.9-3.6 2.3-2.5.5.5-.8.2-.9-.9-.5-1.8.7-2.2-.2-.9-1.9.4-.5-.1-.1-1 .9-1 1.1-1.8 3.1-1.8 4.6 0 1.5-.6 3.3-1.2 4-1.1 1.1-1 1.2.1.6.9-.5 1.2-.4.7.3-.4.7-1.4 1.2-2.2 1.2-.8 0-1.3.4-1 .9.3.5-.1 1.2-1 1.5-.8.3-1.2 1-.9 1.6.3.5-.1 1-.9 1-.9 0-1.6.6-1.6 1.3 0 .7-.9 1.9-2 2.7-1.1.8-2 1.9-2 2.5 0 .5-1.2 2.1-2.5 3.4-1.4 1.3-2.5 2.9-2.5 3.7 0 .8-.4 1.4-1 1.4-.5 0-1 .7-1 1.5s-.5 1.5-1.1 1.5c-.5 0-.7.5-.3 1.1.3.6.2 1.4-.4 1.8-.7.4-1.3 1.6-1.5 2.7-.1 1.2-1 3.2-1.8 4.5-.8 1.3-2.6 5-3.8 8.2-1.3 3.2-3 5.7-3.8 5.7-.8 0-1.2.4-.8.9.3.5.1 1.2-.5 1.6-.5.3-1 1.5-1 2.7 0 1.1-1.3 3.6-3 5.5-1.6 1.8-3 3.1-3 2.7 0-.4-.9.3-2 1.6s-2 2.9-2 3.5c0 .7-.8 2.3-1.9 3.6-1 1.3-1.6 3-1.3 3.8.3.8 0 1.1-.7.7-.6-.4-1.1-.1-1.1.8s-.4 1.6-1 1.6c-.5 0-1 .7-1 1.6 0 .9-.5 1.2-1.2.8-.6-.4-.8-.3-.5.4.9 1.3-.2 4.4-1.3 3.7-1.2-.7-2.4 1.5-2.5 4.3 0 1.2-.7 2.7-1.5 3.2-.9.6-1 1-.3 1s-.1 1.4-1.7 3.2c-1.6 1.7-2.8 3.4-2.5 3.6.2.2-.7 1.6-2.1 3-1.3 1.5-2.4 3.2-2.4 3.9 0 .7-.4 1.3-.9 1.3-.6 0-1.8 2.6-2.7 5.7-1 3.2-2.4 6.4-3.3 7.1-.8.6-1.2 1.2-.8 1.2.4 0-.1 1-1.3 2.2-1.1 1.2-2 2.7-2 3.4 0 .7-.4 1.4-.9 1.6-.5.1-1.1 1.2-1.3 2.3-.1 1.1-1 2.7-1.9 3.5-.9.8-1.4 2.1-1.1 2.9.3.8 0 1.1-.7.7-.7-.5-.9-.1-.5.8s-.1 1.8-1 2.2c-.9.3-1.3 1-1 1.5.3.5.2.9-.3.9-.4 0-1.4 1.5-2.2 3.3-.8 1.7-2.3 4.4-3.3 5.9-1.1 1.6-1.7 2.8-1.3 2.8.3 0-.6 1.1-2 2.4-1.4 1.3-2.7 3.4-2.8 4.5-.1 1.2-.7 2.1-1.4 2.1s-1.2.3-1.1.7c.4 1.6-1.4 5.3-2.3 4.7-.5-.3-.9-.2-.8.3.4 2.2-.3 4.1-2.1 6.1-1.1 1.2-2 2.5-2 3 0 1.4-3.2 7.5-4.7 9-.7.7-1.3 2-1.3 2.8 0 .8-.5 1.4-1.1 1.4-.5 0-.7.5-.4 1 .3.5.1 1-.5 1s-.8.4-.5 1c.3.5.1 1-.4 1-.6 0-1.1.7-1.1 1.5s-.5 1.5-1.1 1.5c-.7 0-.9 1-.7 2.5.3 1.3.2 2.2-.3 2-.4-.3-1 .4-1.4 1.5-.3 1.1-1.1 2-1.6 2s-.9.6-.9 1.4c0 .7-.7 1.9-1.5 2.6-.8.7-1.3 1.6-1 2 .2.4-.4 1.5-1.5 2.5s-2 2.4-2 3.2c0 .7-.4 1.3-1 1.3-.5 0-1 .6-1 1.4 0 .8-.8 2.2-1.7 3.2-1 1-1.8 2-1.8 2.3-.1 1.1-5.8 9.6-6.6 9.9-.5.2-.9 1-.9 1.8s-.5 1.4-1 1.4c-.6 0-.9.4-.8.9.2.5-1.5 2.6-3.7 4.6-2.2 2.1-3.9 4.1-3.9 4.4.3 1.3-.9 3-1.7 2.5-.5-.3-.9.2-.9 1.1 0 .8-.7 1.8-1.5 2.1-.8.4-1.5 1.3-1.5 2.1s-.3 1.2-.7 1c-.5-.2-1.9.9-3.3 2.6-1.4 1.7-1.8 2.7-1 2.2 1.2-.7 1.3-.6.3.6-.7.9-1.4 2.4-1.6 3.5-.2 1-.7 2.6-1.1 3.5-.8 1.8-.4 9.9.6 11.4.3.6.9 2.8 1.3 4.9.6 2.8.5 3.7-.4 3.2-.7-.5-.9-.1-.4 1.1 1.1 3.2 2.5 4.3 5.2 4.1 1.5-.1 3.2.1 3.9.6.7.4 1.2.2 1.2-.4 0-.6 1-.8 2.3-.5 4 1 10.7 1.2 10.1.4-.2-.5.7-1.1 2.1-1.5 1.4-.3 2.5-1 2.5-1.5s.5-.9 1.1-.9c.5 0 .7.6.3 1.2-.5.8 0 .7 1.1-.2 1-.8 2.7-1.4 3.8-1.2 1.1.2 1.7-.1 1.3-.6-.4-.6-.2-1.3.4-1.7.5-.3 1-.1 1 .6 0 .8.4.8 1.5-.1s1.5-.9 1.5-.1c0 .7.4 1 .9.7 1.3-.8 3.1 1.5 3.1 4 0 .3 1-.2 2.2-1 1.2-.9 3.5-1.6 5-1.6 1.6 0 2.8-.4 2.8-.8 0-.5.6-.9 1.3-1 2.7-.2 4.6-.8 6-2 1.2-1 1.6-1 1.9 0 .3.8 1.3.6 3.4-.8 1.6-1.1 4.8-2.6 7.1-3.4 2.3-.7 4-1.7 3.6-2.3-.3-.6-.1-.7.5-.3 1.4.8 9.2-1.1 9.2-2.3 0-.5 1.4-.7 3.1-.6 2.1.2 2.9-.1 2.5-1-.2-.7.2-1.6 1-1.9 1-.4 1.3-.2.8.6-.4.7.8.1 2.6-1.2s3-1.7 2.5-.9c-.5.8 0 .6 1.3-.5 1.1-1 3.2-1.9 4.5-2 1.4 0 2.3-.4 2.1-.8-.2-.4 0-.9.6-1.3.5-.3 1-.1 1 .6 0 1 .3 1 1.2.1.7-.7 1.7-1.2 2.3-1.2.5 0 .3.5-.5 1.1-1.3.9-1.3 1 0 .6.8-.2 1.4-1 1.2-1.6-.2-.9 2.8-2.8 5.8-3.6 3.4-.9 4.9-1.8 4.4-2.7-.4-.7-.2-.8.5-.4.6.4.9 1.1.6 1.6-.8 1.3 2.1 2 3.4.7 1.5-1.5 1.4-3-.1-2.2-.7.4-.4-.1.7-1s1.9-2 1.8-2.5c-.2-.5.4-.7 1.2-.4.8.4 1.2 1 .9 1.5-.3.5.2.6 1 .3 1.1-.4 1.6 0 1.6 1.5 0 1.2-.6 2.1-1.6 2.1-.8 0-1.2.5-.8 1.1.4.8-.1.9-1.5.4-2.5-.7-6.5 2-5.5 3.7.4.6-.4.5-1.6-.2-1.5-.8-2-.8-1.6-.1.4.6 0 1.1-.8 1.1-1 0-1.3-.6-1-1.8.5-1.6.5-1.6-.6.1-.6.9-.8 2.2-.5 2.7.6.9-.8 1.4-2.7 1.1-.5 0-.8.7-.9 1.6 0 1.3-.2 1.4-.6.4-.4-1.1-1-.8-2.5 1-1.7 2-1.9 2.1-1.3.4.6-1.9.5-1.9-1.7.2-1.3 1.1-3.1 1.9-4.1 1.8-1-.2-1.4.1-1 .7.4.7-.1.9-1.5.6-1.3-.4-2-.2-1.9.6.1.6-.4 1-1 .8-.7-.1-1.3.5-1.3 1.4 0 1.3-.3 1.4-1.5.4-1.2-1-1.6-.9-2.1.4-.3.9-1.2 1.6-2 1.6s-1.4.5-1.4 1.1c0 .5-.4.8-.9.4-.5-.3-1.2-.1-1.6.5-.4.6-1.1.7-1.7.4-.6-.4-.8-.2-.4.4.3.5 0 1.3-.6 1.5-1 .4-1 .6 0 .6.7.1 1 .6.7 1.1-.3.5-.5 1-.3 1s1.8.4 3.6.9c2 .6 3 .6 2.7 0-.4-.5.2-.9 1.2-.9 1.1 0 2.3-.4 2.8-.9.9-.9 4.6-1.9 8.5-2.4.8-.1 2-.9 2.7-1.7.7-.8 1.3-1.1 1.3-.6 0 .6.7.1 1.5-1 1-1.3 1.4-1.4 1.5-.5 0 .9.4 1 1.3.4.6-.6 2-.9 2.9-.8 1 .2 2-.1 2.4-.6.3-.5 1-.7 1.5-.4.5.4.9.2.9-.4 0-.6.7-.8 1.5-.5.8.4 1.5.1 1.5-.5s.7-.8 1.5-.5c.8.4 1.5.2 1.5-.4 0-.6.8-.9 1.7-.8 1 .2 3.3-.3 5.1-1.1 1.8-.7 3.7-1.1 4.1-.8.5.3 1.2-.2 1.5-1.1.4-.9 1.3-1.4 2.2-1 .8.3 1.3.2 1-.3-.3-.5.1-1.2 1-1.5 2.3-.9 2.6-.8 1.8.6-.5.8 0 .7 1.1-.2 2.3-1.9 2.1-1.9 4 .5.9 1.1 1.3 1.3.9.5-.6-1.3-.5-1.3.7-.2s1.1 1.6-.8 3.1c-1.2 1-1.9 2.1-1.6 2.5.4.3-.3.6-1.5.6-1.1 0-2.4.5-2.7 1-.4.6-1 .8-1.5.5-.5-.3-1.1-.1-1.5.5-.4.6-1.1.8-1.6.5-.5-.4-.9-.1-.9.5 0 1-10.9 6.6-12.2 6.2-.5-.1-.9.2-.9.8-.1.5-.2 1.6-.3 2.2-.5 3.7 9.1 5.6 12.9 2.6 1.3-1 2.8-1.8 3.3-1.8.6 0 1.2-.5 1.4-1 .2-.6 1.3-1.2 2.6-1.3 1.2 0 2.2-.5 2.2-1 0-.4.4-.6.9-.2.5.3 1.2.1 1.5-.3.3-.5 1.6-.9 2.8-.8 1.3.1 2.6-.2 2.9-.7.3-.4 1.8-1 3.4-1.3 1.6-.3 3.3-.8 3.9-1.2.6-.4 1.8-.7 2.6-.8.8 0 2.8-.6 4.3-1.2 1.6-.7 3.4-1.2 4.2-1.2.8 0 1.7-.5 2-1.1.4-.5 1.2-.8 1.8-.6.7.2 2.4-.2 4-1 1.5-.7 2.7-1.1 2.7-.7 0 .4.7 0 1.7-.7.9-.8 2.3-1.4 3.2-1.4.9-.1 3.7-1.1 6.3-2.2 2.7-1.2 5.7-2 6.8-1.8 1.1.2 2 0 2-.4 0-.5.9-1.1 2-1.4 1.1-.3 2 0 2 .5 0 .6.9.3 2-.7s2-1.4 2-1c0 .5.5.4 1.1-.2.6-.6 1.8-.9 2.5-.6.8.3 1.4.1 1.4-.4s1.5-1 3.2-1.1c1.8-.2 3.6-.9 4-1.6.4-.8 1.6-1.2 2.6-.9 1.1.2 2.5-.2 3.3-1 .8-.7 2-1.2 2.7-.9.6.2 1.2-.2 1.2-.8 0-.7.7-1 1.5-.6.8.3 1.5.2 1.5-.3s1-1.2 2.3-1.6l2.7-.9c.3-.1 1.5-.7 2.8-1.4 1.2-.7 2.2-1 2.2-.6 0 .3.6.1 1.3-.5.8-.6 1.7-.8 2-.4.4.3.7-.1.7-1.1 0-.9.5-1.4 1-1.1.6.3 1 0 1-.7 0-.8.3-.9.8-.3.8 1.2 5.2 1.5 5.2.4 0-.4.9-.6 2-.4 1.1.2 1.9-.1 1.7-.8-.1-.7.6-1.1 1.6-.9.9.2 1.7-.2 1.7-.8 0-.6.4-.9.8-.6.5.3 3.2-.6 6-1.9 2.9-1.3 5.2-2.1 5.2-1.8 0 .3.6 0 1.3-.6.8-.6 1.7-.9 2-.6.4.3.5.2.2-.2-.5-.6 7.8-5.8 10-6.3.6-.1 1.5-.6 2.2-1.2.7-.5 1.7-.7 2.3-.3.5.3 1 .2 1-.3 0-1 4.8-3.5 7-3.6.8 0 2-.6 2.5-1.4.6-.7 1.7-1.4 2.5-1.5.8-.2 2.1-.6 2.8-1 .6-.5 1.7-.5 2.2-.2.6.3 1 .2 1-.2 0-1.2 7.9-4.5 9.1-3.8.5.4.9.1.9-.5s.4-.9.9-.6c.5.3 1.4-.1 2.1-.9.7-.8 1.8-1.5 2.4-1.5.7 0 3.1-.9 5.4-2 2.3-1.1 5.6-2.3 7.3-2.7 1.7-.3 3.3-1.2 3.6-1.9.3-.8 1-1.4 1.5-1.4 1.2 0 6.8-2.4 12.1-5.2 2-1 3.7-1.6 3.7-1.3 0 .4.7-.1 1.6-.9.8-.9 2-1.4 2.5-1.1.5.4.9.2.9-.4 0-.5.8-.8 1.8-.6.9.1 2.5-.2 3.5-.7 1.1-.5 1.7-.5 1.7.2 0 .5.9.2 2-.8 1.2-.9 2.4-1.7 2.8-1.8.4 0 2.1-.7 3.7-1.4 1.7-.7 3.6-1.2 4.3-1.1.6.1 1.2-.2 1.2-.7 0-.8 3.5-2.3 4.9-2.1.2 0 .7-.4 1-1 .4-.6 1.7-1.2 3-1.4 1.2-.2 2.7-1 3.2-1.8.7-1.2.9-1.2.9.1.1 1.3.2 1.3 1.3-.1.7-.9 1.7-1.4 2.3-1.2.7.2 1.9-.3 2.8-1.2.9-.9 1.6-1.3 1.6-.9 0 .3.7.1 1.5-.6.8-.6 1.9-.9 2.5-.5.5.3 1 .2 1-.4 0-.9 2.7-2.2 6-2.7.8-.2 1.6-.8 1.8-1.4.2-.5.7-.8 1.2-.5.5.3 1.5-.1 2.2-.9 2.1-2 7.5-4.6 8.2-3.9.3.4.6.1.6-.5 0-.7.7-1.2 1.6-1.2.8 0 1.2-.4.9-1-.4-.6.1-.7 1-.3 1 .3 2 .2 2.4-.3 1.1-1.6 5.2-3.5 6.1-2.9.6.4 1 .1 1-.4 0-.6.7-1.1 1.5-1.1s1.5-.5 1.5-1.1c0-.6.6-.9 1.3-.6.6.2 1.8-.3 2.5-1.2.8-.9 1.1-1 .7-.3-.7 1.4 6.6-2.5 7.6-4 .3-.5.9-.9 1.3-.9 1.9.3 2.8-.2 5.8-2.8 2.7-2.3 11.2-6.2 16.3-7.5 1.1-.2 7.4-4 9-5.3.6-.5 1.8-.7 2.9-.5 1.3.3 1.6 0 1.1-.9-.6-.9-.3-1.1.8-.6.9.3 2.7-.3 4.1-1.4 1.4-1.1 2.6-1.7 2.6-1.2 0 .4.4.2.8-.5.5-.7 1.9-1.5 3.2-1.7 1.3-.2 2.7-1 3-1.6.4-.6 1.1-1 1.6-1 1.9.2 4.2-1 4.8-2.4.7-2-.4-1.9-2.1.3-.8.9-1.2 1.2-.9.5 1-1.9-1.2-2.5-2.3-.6-.8 1.4-1 1.5-1.1.3 0-1.3-.2-1.3-.9-.1-.5.8-1.7 1.6-2.5 1.8-3.3.6-4.2.9-6.1 2-1.1.6-2.2 1.1-2.5 1.1-.3 0-2.1.6-4 1.4-3.7 1.5-8.5 2.9-9.6 2.7-.4 0-1 .4-1.4 1.1-.4.6-1.7 1.2-2.8 1.3-1.2.1-2.2.5-2.2 1 0 .4-.4.6-.9.2-.5-.3-1.2-.1-1.6.5-.4.6-1.1.8-1.6.5-.5-.4-1.2.1-1.5.9-.4.9-1.8 1.6-3.4 1.6-1.6 0-3.2.5-3.5 1-.4.6-1.1.7-1.7.4-.6-.4-1.4 0-1.9.7-.5.8-.9.9-.9.3 0-.6-1.1-1.2-2.5-1.2-1.3 0-2.3.4-2 .8.3.4-.7 1.6-2.1 2.5-1.5.9-2.3 1.2-2 .6.4-.6 0-1.1-.8-1.1-.9 0-1.6.6-1.6 1.2 0 .9-.4.8-1-.2-.7-1.1-1-1.1-1-.2 0 .7-.5 1-1 .7-.6-.4-.9-.1-.8.6.2.6-.7 1.2-1.9 1.4-1.3.1-2.3-.3-2.3-.8s-.7-.4-1.5.3-1.5.9-1.5.4c0-.4-.6 0-1.2.9-1.3 1.6-5.2 1.8-7.5.4-.6-.4-1.4 0-1.7.9-.3.8-1 1.2-1.6.9-.5-.3-1-.2-1 .3s-1.1.9-2.5.9-2.5-.4-2.5-.9c0-.6-.6-.6-1.4.1-.9.8-1.6.8-2 .2-.4-.6-1.3-.8-2.1-.5-.8.4-1.2 1.1-.8 1.7.4.6 0 .8-1 .4-.9-.3-1.9-.2-2.3.4-.4.6-1.2.5-2.2-.3-1-.7-1.4-.8-1-.4 1.2 1.4-3.4 3.5-4.9 2.3-.7-.5-1.3-.6-1.3-.1 0 1.2-4.3 3.1-5.8 2.6-.7-.2-1.2-1.1-1.2-2 0-1.5-.2-1.5-1-.2-.7 1.1-1 1.2-1 .2 0-.7.7-2 1.5-2.8.8-.9 1.5-1.2 1.5-.7 0 .4.4.2.8-.4.4-.7 1.8-1.4 3.1-1.6 1.2-.2 2.7-1 3.2-1.8s.9-1.1.9-.7c0 .4.9 0 1.9-.9 2-1.7 7.1-2.5 7.1-1.1 0 1.6 1.8.7 5.6-2.9 2.1-2.1 4.5-3.6 5.3-3.4.7.1 1-.2.7-.8-.4-.5.3-1.2 1.3-1.6 1.1-.3 2.3-1.5 2.6-2.6.4-1.2 1.3-1.8 2.1-1.5.7.3 1.6.1 1.9-.5.4-.5 1-.7 1.5-.4.5.3 1.2 0 1.6-.6.4-.8.9-.7 1.5.2.7 1.1.9 1 .9-.4 0-1 .4-1.6.9-1.3.5.4 1.2 0 1.4-.6.4-1 .6-.9.6.1.1 1 .7.7 2-.7 1-1.2 2.1-1.9 2.5-1.5.3.3.6.1.6-.5 0-.7.9-1.2 2-1.2 1.2 0 2-.7 2-1.8 0-1.3.2-1.4.9-.4.6 1 1 .8 1.4-.8.4-1.5 1.1-2.1 2.1-1.7.8.3 1.8.2 2.1-.4.4-.5 1.1-.7 1.6-.4.5.4.9.1.9-.4 0-.6.7-1.1 1.6-1.1.8 0 1.2-.5.9-1-.3-.6.4-1 1.8-1s3.1-.8 3.8-1.7c1.2-1.4 1.2-1.6 0-.8-1 .5-1.2.4-.7-.4.4-.6 1.1-.9 1.5-.6.5.2 2.1-.6 3.7-2 1.7-1.5 3.1-2 3.5-1.4.4.7 1.2.5 2.1-.5.9-.8 1.8-1.2 2.2-.9.3.4.6.1.6-.5s.9-1.4 2-1.7c1.1-.4 1.8-1.1 1.5-1.6-.4-.5.1-.9.9-.9.9 0 1.5-.3 1.5-.8-.4-2.2.5-2.8 4.1-2.8 2.2.1 4-.2 4-.7 0-.4.6-.6 1.3-.5.6.2 1.1-.3.9-1.1-.2-.8.3-1.1 1.3-.8.8.4 1.5.2 1.5-.3 0-.6.7-1 1.5-1s1.5-.6 1.5-1.3c0-.8.3-.9.8-.1.4.6 1.6 1 2.7.8 1.1-.2 3.1-.5 4.4-.6 1.3-.1 2.6-.8 2.8-1.5.3-.7.8-1.1 1.3-.8.4.2 3-1.8 5.8-4.5 2.9-2.8 5.8-5 6.6-5 .8 0 1.9-.7 2.4-1.5.4-.9 1.8-1.7 2.9-1.8 1.2 0 2.1-.6 2-1.2-.1-.5.8-.9 2.1-.9 1.2.1 2.2-.2 2.2-.7 0-.8 4-2.4 5.3-2.1.4.1.7-.2.7-.7 0-.5 1.1-1.2 2.5-1.5 1.6-.4 2.3-1.1 1.9-1.8-.5-.8 0-.9 1.5-.5 1.3.3 2 .3 1.7 0-.6-.6 8.1-5.2 10-5.3.6 0 2.6-1.4 4.4-3 1.9-1.7 4-2.8 4.7-2.6.7.3 1.3-.1 1.3-.9s.3-1.4.8-1.3c1.4.3 6.2-1.4 6.2-2.3 0-.5.9-.9 2-.9s2-.5 2-1.1c0-.5.4-.8.9-.4.5.3 1.2.1 1.6-.5.4-.6 1.1-.8 1.6-.5.5.4 1.2 0 1.5-.8.3-.8 3.2-2.2 6.5-3.2 3.2-1 5.9-2.2 5.9-2.7s.4-.7.9-.4c.5.3 1.4-.1 2.1-.9.7-.8 1.5-1.3 1.9-1 .4.2 2-.7 3.5-2 1.6-1.4 3.4-2.2 4-1.8.6.3.8.3.4-.2-.9-1 4-5.7 5.1-5 .5.2 1.6-.4 2.6-1.5s2.6-2 3.7-2c1 0 1.8-.5 1.8-1 0-.6.6-1 1.4-1 .8 0 2.2-.7 3-1.6.9-.8 1.6-1.2 1.6-.8 0 .4.8 0 1.8-.8 1.9-1.7 5.3-3.2 6.5-2.9.5.1.6-.3.3-.8-.4-.5 1.1-1.5 3.1-2.2 2.1-.7 4.4-1.9 5.1-2.8.8-.9 1.1-1 .7-.4-.8 1.6 5.5-1.6 7.2-3.7.7-.8 1.3-1.1 1.3-.7 0 .5.7.1 1.6-.7.8-.9 2-1.3 2.6-1 .6.4.8.2.5-.3-.7-1 2-2.8 3.6-2.5.4.1.7-.3.7-.9 0-.6.5-.9 1.2-.7.7.3 2-.3 3-1.1 1-.9 2-1.4 2.2-1.1.1.3 1-.3 2-1.3 1-.9 2.2-1.5 2.7-1.2.5.4.9.1.9-.5 0-.8.6-.8 2 0 1.6.9 2.2.8 2.6-.5.3-.8.9-1.3 1.3-1 .4.2 2-.8 3.6-2.2l2.8-2.6-2.2-.9c-1.3-.4-2.7-.6-3.1-.3-.5.3-1.4-.3-2-1.2-1-1.5-1.1-1.5-.6-.1.4 1.3-.1 1.6-2.2 1.2-1.5-.3-3.3-.7-4-.9-.7-.3-1.5.2-1.8.9-.7 1.9-4 2.6-5.5 1.2-.9-.8-1-.8-.5.1.4.7.2 1.3-.3 1.3-.6 0-1.1-.5-1.1-1.1 0-.8-.4-.8-1.3 0-1 .8-1.7.7-2.7-.2-1-.9-1.1-.9-.6 0 .4.8.1 1.3-.8 1.3-.8 0-2 .9-2.6 2-.6 1.1-1.7 2-2.5 2s-1.5.4-1.5.9c0 .6-.9.9-2.1.8-1.4-.1-1.9-.7-1.6-1.9.4-1.4.1-1.5-1.9-.8-1.3.5-2.4.7-2.4.3 0-.4-.6.1-1.3 1.2-1.1 1.4-1.6 1.5-2.2.5-.6-.9-.4-1.1.5-.5.9.5 1.1.4.6-.4-.6-.9-1.1-.9-2.2 0-.8.6-1.4.8-1.4.4s-.6-.2-1.3.4c-.8.6-1.8.7-2.2.3-.5-.4-.5-.1-.1.6.5.7-.2 1.5-1.7 2.1-1.4.6-2.8 1.4-3.1 2-.4.6-1.3.8-2.1.5-.9-.4-1.8.3-2.4 1.7-.5 1.3-1 1.8-1 1.2-.1-.7-.4-1.2-.8-1.2-2 .3-3.4-.2-2.8-1.1.3-.6-.2-1-1.2-1-2.7 0-6.3 1.1-5.9 1.9.1.3-.6 1.5-1.7 2.5-1.7 1.6-1.9 1.7-1.4.3.3-.9.2-1.7-.3-1.7-.6 0-1 .5-1 1.1 0 .6-.7.8-1.5.5-.9-.3-1.8.1-2.2 1-.5 1.3-.7 1.3-1.4.2-.7-1-.9-1.1-.9 0 0 .7-.4 1.1-.9.8-.5-.3-1.9.2-3.2 1.2-4.3 3.1-6.9 4.3-6.9 3.1 0-.6-.5-.7-1.2-.2-.7.4-1.6.8-2 .9-.5.1-.9.2-1 .4-.2.1-1 .3-1.9.5-.8.1-4.2 1.6-7.5 3.1-3.2 1.6-6.3 2.9-6.9 2.9-.5.1-2.9 1.3-5.2 2.8-2.4 1.5-4.7 2.7-5.2 2.7s-1.4.7-2.1 1.5c-.7.9-1.9 1.4-2.7 1.1-.8-.3-1.2-.2-.8.3.3.5-.9 1.2-2.7 1.6-1.8.4-4 1.3-4.8 2-1.6 1.4-6 3-7.2 2.7-.5-.1-.8.2-.8.7 0 .5-1.2 1.2-2.7 1.6-1.6.3-3.8 1.6-5 2.7-1.5 1.4-2.3 1.7-2.3.9 0-1-.6-.9-2.2.2-1.3.9-4.3 2.6-6.8 3.8-2.5 1.2-5.8 2.8-7.4 3.7-2 1-2.6 1.1-2.1.2.6-.9.3-1-1.1-.2-1.1.5-2.4.7-3.1.5-.6-.2-1.4.5-1.8 1.7-.3 1.1-1 1.8-1.5 1.5-.5-.3-1.1-.1-1.5.5-.3.5-1.6 1-2.9 1-1.3 0-3.3.9-4.6 2-1.3 1.1-2 2-1.6 2 .4 0 .1.6-.6 1.4-.7.8-1.6 1.2-2 .9-.5-.2-.8.3-.8 1.1 0 .9-.3 1.5-.7 1.4-1.1-.2-9.3 3.5-9.3 4.3 0 .3-1.4.4-3 .1-2.2-.3-4.2.4-7.3 2.4-2.3 1.6-4.5 2.7-4.9 2.6-.5-.1-.8.3-.8.8 0 .6-.7 1-1.5 1s-1.5.4-1.5 1c0 .5-.7.7-1.5.4-.8-.4-1.5-.1-1.5.5s-.5 1.1-1.1 1.1c-.7 0-1.9.8-2.8 1.8-.9 1.1-2.8 1.8-4.5 1.8-2-.1-3 .4-3.6 2-1.1 2.9-3 4-4 2.4-.6-1-1.5-.9-4 .4-1.8.8-3.7 1.3-4.3.9-.6-.3-.7-.1-.3.5.4.7.1 1.2-.6 1.2-2 0-6.8 2.4-6.8 3.3 0 .5-.4.5-1 .2-.5-.3-1-.2-1 .4 0 .5-.9.8-2 .6-1.5-.3-2 .1-2 1.8.1 2 .2 2.1 1.4.5s1.3-1.5 1.2 1.1c-.1 1.6-.3 2.9-.6 2.9-2.1-.1-3 .4-2.4 1.4.6 1 .4 1-.7 0-1.6-1.4-3.3-1.6-2.4-.2.3.5.2 1-.3 1-.4 0-1.8.9-3 2-1.2 1.2-2.2 1.7-2.2 1.3 0-.4-.5-.1-1 .7-.7 1.1-1 1.2-1 .2 0-.9-.9-.7-2.9.7-1.6 1.2-3.2 2.1-3.5 2.1-1.2 0-8.5 5.7-8 6.2.3.3-.2.8-1.1 1.2-1.1.4-1.4.2-.9-.6.5-.7.3-.8-.7-.2-1.4.8-3.4 1.4-5.6 1.6-.7.1-1 .5-.7 1 .3.4-.2.8-1.1.8-.9 0-3.2 1.6-5.1 3.5-1.9 2-3.9 3.3-4.5 3-.5-.4-.9 0-1 .7 0 .7-.5.3-1.1-1-1.3-2.6-2.3-2.8-3.2-.6-.3.8-1 1.3-1.5 1-.5-.3-1.2.1-1.5 1-.4 1-.2 1.3.7.8.8-.5.7-.2-.2.9-.7.9-1 1.7-.5 1.7.4 0-.1.7-1.2 1.6-1 .8-1.2 1.2-.4.8.9-.4.7.2-.5 1.3-1.7 1.8-2.2 1.9-3.6.7-1.3-1.2-1.8-1.2-3.5.2-1 .8-1.3 1.2-.5.8.9-.5 1.2-.3.7.4-.4.7-1.4 1.2-2.3 1.2-.9 0-1.4.3-1 .6.9.9-2.5 3.7-7.1 5.9-2.3 1.1-4.2 2.4-4.2 3 0 .5-.5.3-1-.5-.8-1.3-1-1.2-1 .4s-.2 1.7-1.7.5c-1-.7-1.5-.9-1.1-.5 1.3 1.5-4.4 4.5-6.4 3.4-1.1-.5-1.8-.5-1.8.1 0 .5.6 1.1 1.3 1.4.6.2 0 .6-1.5.9-1.8.3-2.5.1-2.1-.6.4-.6-.1-.5-1.1.3-1.5 1.3-1.9 1.3-2.7 0-.6-1-.9-1-.9-.2 0 .7-.5 1.3-1.1 1.3-.5 0-.7-.5-.3-1.2.4-.7.3-.8-.5-.4-.6.4-.9 1.1-.6 1.6.6.9-5.6 6-7.7 6.4-.7.1-1.9.6-2.7 1-1 .7-1.2.5-.6-.5.5-.8-.4-.1-1.9 1.4-2.3 2.5-2.9 2.7-4.3 1.5-1.2-.9-1.5-.9-.9 0 .4.7.1 1.5-.8 1.8-.9.3-1.3 1-1 1.5.3.5-.3.6-1.2.2-1.2-.4-1.5-.3-1 .5.6 1.1-.5 1.7-2.6 1.3-.5 0-.8.4-.8 1 0 .5-.4.7-1 .4-.5-.3-1-.1-1 .4 0 .6-.9 1.1-2 1.1s-2 .6-2 1.2c0 .9-.4.8-1-.2-.9-1.3-1.4-.7-1.1 1.3.1.6-.8.9-2.6.6-.3 0-1 .6-1.5 1.4-.4.9-1.7 1.4-2.8 1.2-1.1-.2-2 0-2 .6 0 .5-.7.9-1.6.9-.9 0-1.2.5-.8 1.2.5.8 0 .9-1.4.6-1.6-.4-2.2-.2-2.2.9 0 .9-.6 1.3-1.5.9-.8-.3-1.5-.1-1.5.4 0 .6-.9 1-2.1 1-1.3 0-1.8-.4-1.3-1.2.4-.7.3-.8-.5-.4-.9.6-.9 1.1-.1 2.1.9 1 .7 1.3-.7 1.1-1.8-.3-6.3 3.5-6.3 5.4 0 .7-.6.8-1.7.1-1.2-.6-2.1-.5-3.1.7-.7 1-1.1 1.2-.8.6.3-.7 0-1.7-.8-2.3-1.1-.9-1.3-.6-1.1 1.3.3 2-.1 2.4-1.7 2.1-1.2-.3-3 .6-4.5 2.3-1.5 1.5-2.4 2-2.1 1.2.4-1.1 0-1.6-1.2-1.6-1 0-1.6.4-1.4.8.3.4 0 .8-.6.8s-.8.5-.4 1.2c.5.7.3.8-.5.4-.7-.5-1.8 0-2.6 1-.8 1.1-1.5 1.4-1.5.9 0-.6-.5-.3-1 .5-.6 1-1 1.1-1 .2 0-.6-.9-1.2-2-1.2-2.3 0-2.7-1.8-.5-2.6.8-.4 1.2-1.1.9-1.6-.4-.6.2-.7 1.7-.3 2 .7 2.2.6 1.2-.7-1.1-1.2-.9-1.4.7-1.3 1.1.1 2.3.4 2.6.8.4.4 1.4.1 2.2-.6.8-.6 1.8-1.1 2.1-1 .3.2.6 0 .6-.5.1-1.7 1.7-3.1 3.1-2.5 1.1.4 1.2.8.3 1.9-1 1.2-.9 1.3.4.8.9-.3 1.5-1.3 1.4-2.2-.1-1 .3-1.8.8-2 .6-.2 1.9-1.1 2.9-2 1.2-1.1 1.6-1.2 1.1-.3-.5 1-.4 1.2.3.7.7-.4 1.2-1.4 1.2-2.3 0-.9.3-1.3.7-1 .3.4 1.5-.1 2.6-1 1-1 2-1.7 2.1-1.6.4.7 4.6-1.1 4.6-1.9 0-.6.7-.8 1.5-.4.8.3 1.4.2 1.2-.2-.1-.4 0-.7.3-.7s1.9-1.2 3.5-2.8c1.6-1.5 3.3-2.7 3.6-2.7.3 0 1.8-1.1 3.3-2.5 1.5-1.4 3.2-2.3 3.7-2 .5.4.9.2.9-.2 0-1.1 8.8-5.7 11-5.8.8-.1 2.2.3 3 .9.8.6.6 0-.5-1.2-1.1-1.3-1.5-2.2-.9-2 .5.2 2.2-1 3.7-2.6 1.6-1.7 2.7-2.3 2.7-1.5.1 1.1.3 1.1 1.3-.1 1.1-1.3 5.9-4 7.3-4 .3 0 .3.4-.1.9-.3.6.4.9 1.5.8 1.8-.1 2.4-.9 2.1-2.9 0-.4.8-1 1.9-1.3 1.1-.4 1.7-1.1 1.4-1.7-.5-.7-.2-.8.7-.2 2 1.2 4 1.4 3.3.3-.9-1.4 1.5-3.9 3.8-3.9 1 0 1.6-.4 1.3-1-.4-.6.6-.8 2.4-.6 1.7.2 2.9.1 2.7-.3-.1-.3.5-1.4 1.6-2.3 1-1 1.8-1.5 1.8-1.2 0 .4.6.1 1.3-.5.8-.6 1.7-.8 2-.4.4.3.7.1.7-.6s.5-.9 1-.6c.6.3 1 .2 1-.4 0-.6.7-.8 1.5-.5.9.4 1.5 0 1.5-.7 0-1.2.2-1.2.9 0 .7 1.1 1 .9 1.6-.7.3-1.2 1.2-2.1 1.8-1.9.7.1 1.1-.6 1.1-1.5-.1-1.1.5-1.5 1.7-1.3 1 .2 2.6-.3 3.4-1.1 1.7-1.8 2-3.4.5-3.4-.5 0-1-.4-1-1 0-.5.6-.7 1.4-.4.8.3 1.7 0 2.2-.7.5-.8.3-1-.6-.4-.9.5-1.1.4-.6-.3.4-.7 1.2-1.2 1.7-1.2s1.9-.9 3.1-2c1.2-1 2.4-1.7 2.8-1.5.5.3 1-.2 1.4-1 .3-.8 1.2-1.5 2.1-1.5.8 0 1.5-.7 1.5-1.6 0-.8.5-1.2 1-.9.6.3 1.3 0 1.6-.8.3-.9 1.9-2.1 3.5-2.7 1.6-.7 2.6-1.7 2.2-2.3-.4-.7 0-.8 1.3-.3 1 .4 1.5.4 1.2 0-1-.9 1.5-3.2 2.9-2.7.7.3 1.3-.1 1.3-.8 0-.7.3-1 .6-.6.4.3 1.2.1 2-.6 3.2-2.9 4.4-3.7 4.4-3.2 0 .4.7-.1 1.6-1 1-.9 2.5-1.4 3.5-1.2 1.1.3 1.9.1 1.9-.5 0-.5.5-.6 1-.3.6.3 1 .1 1-.5s.4-.9.9-.6c.5.3 1.2-.1 1.5-1 .3-.8 1-1.2 1.6-.9.5.3 1 .2 1-.3s1.2-1.5 2.8-2.2c1.5-.8 3.5-2.3 4.4-3.5 1-1.1 1.8-1.4 1.8-.8 0 .9.6.7 1.9-.4 1.1-.9 1.8-2 1.5-2.5-.3-.4.1-.8.9-.8s1.8-.7 2.1-1.6c.3-.8 1-1.3 1.5-.9.6.3 1.5-.4 2.1-1.5.6-1.2 1.8-1.9 2.5-1.6.7.2 1.6-.2 1.9-1 .3-.9 1-1.3 1.5-.9.6.3 1.5-.3 2.1-1.4.7-1.3 1.6-1.8 2.7-1.4 1 .4 1.4.2.9-.5-.3-.6.3-1.3 1.4-1.7 1.1-.3 2-1.1 2-1.6 0-.6.5-.7 1-.4.6.3 1.3-.1 1.6-1 .4-.9 1.2-1.4 2-1.1 1.4.5 3.7-1.7 2.7-2.7-.3-.4-.1-.7.6-.7.6 0 2.4-1.3 3.9-2.8 1.5-1.5 3.6-2.8 4.7-2.8s3.3-1.1 4.8-2.4c1.6-1.4 3-2.3 3.2-2 .2.3 1.1-.4 1.9-1.5.9-1.1 1.6-1.7 1.6-1.3 0 .7 3.8-2.3 8-6.5 1.5-1.5 3-2.7 3.3-2.7.4 0 2-1.4 3.5-3 1.6-1.7 3.4-3 4-3 .6 0 1.6-.8 2.1-1.8.6-.9 1.1-1.4 1.1-1.1 0 .4 2.3-1.5 5.1-4.2s5.8-4.9 6.5-4.9c.8 0 1.4-.5 1.4-1.1 0-.5.4-.8.9-.4.6.3.9-.4.8-1.5-.1-1.1-.5-2-.9-2-2.6 0 .4-4.3 4.6-6.7 1.5-.8 1.5-1.1.2-2.2-1.2-1-1.8-.8-3.5 1-1.2 1.3-2.1 1.9-2.1 1.5 0-.4-1 .2-2.2 1.3-1.1 1.1-2.4 1.8-2.8 1.6-.5-.3-1 .2-1.4 1-.3.8-1.1 1.5-1.7 1.5-.7 0-1.8.8-2.6 1.7-.8 1.1-1.1 1.2-.7.3.7-1.3.6-1.3-1.2 0-1 .8-2.2 1.9-2.6 2.5-.4.5-.8.6-.8.2 0-.4-.9-.3-2 .3s-1.7 1.6-1.4 2.2c.5.7.1.9-.9.5-1-.3-1.7-.2-1.7.3 0 .6-.5 1-1 1-.6 0-2.8 1.1-4.9 2.4-2.1 1.4-4.2 2.2-4.7 1.8-.4-.4-.5-.3-.2.3.3.5-.3 1.8-1.4 2.7-1 1-1.8 1.5-1.8 1 0-.4-.7.1-1.4 1.1-.8 1-1.8 1.9-2.3 1.9-1.1.1-5.7 2.1-6.3 2.8-.6.7-6.4 3.2-6.8 3-.2-.1-1.1.7-2 1.7-.9 1.1-3.2 2.5-4.9 3.2-1.8.8-3.3 1.7-3.3 2.2 0 .5-.3.8-.7.7-.5-.1-1.9.4-3.2 1.1-1.9 1.1-2.2 1.1-1.6-.1.6-1 .5-1.1-.6-.1-.7.7-2.3 1.3-3.6 1.3-1.3 0-2.3.5-2.3 1.2 0 .6-.3.8-.6.5-.4-.3-1.8.2-3.2 1.3-1.3 1.1-2.8 1.7-3.3 1.4-.5-.3-.9 0-.9.5 0 .6-.7 1.1-1.5 1.1s-1.5.4-1.5 1c0 .5-.5 1-1.1 1-1.6 0-6.9 4.7-6.2 5.4.4.4-.4.5-1.8.3-2.3-.4-5.8.8-6.9 2.3-.3.4-2 1.5-3.8 2.4-1.9 1-3 2.1-2.6 2.8.4.7.3.8-.4.4s-1.2-.2-1.2.3c0 .6-.8 1.1-1.8 1.1s-2.4.6-3.1 1.3c-1.1 1-1.2.9-.6-.3.5-.8-.3-.5-1.7.8-1.3 1.2-2.7 1.9-3.1 1.6-.4-.4-.9 0-1.2.8-.4 1-1.4 1.4-2.6 1.1-1-.3-1.9 0-1.9.6s-1.1 1.6-2.5 2.1-2.5 1.4-2.5 2c0 .6-.4.9-1 .5-.5-.3-1.8.2-3 1.2-1.1 1-2.4 1.8-2.8 1.8-.4 0-1.7.9-3 2-1.2 1.1-2.6 2-3 1.9-.4 0-1.5.9-2.5 2-1 1.2-1.5 1.4-1.1.6.7-1.3.6-1.3-1.2 0-1 .8-2.5 2.2-3.2 3-.8.8-1.1 1-.8.3.4-.7-.6-.5-2.6.5-1.8.9-4.1 1.5-5 1.4-1-.2-1.8.2-1.8.8 0 .6-.5.8-1 .5-.6-.3-1.3.1-1.6.9-.3.9-1.2 1.6-2 1.6s-1.4.4-1.4 1c0 .5-1 1.4-2.1 2.1-1.5.7-1.9.8-1.5 0 .4-.6-.6-.3-2.3.6-1.6 1-2.7 2.1-2.5 2.5.3.5 0 .8-.5.8-1.6 0-7.6 5.1-8.3 7-.2.6-1.3 1.2-2.6 1.3-1.2 0-2.2.4-2.2.7 0 .3-1.2.5-2.7.4-1.5 0-3.6.8-4.7 1.8s-2.6 1.8-3.3 1.8c-.7 0-1.3.4-1.3 1 0 .5-.7 1-1.5 1s-2.8 1.4-4.5 3.1c-1.6 1.8-3 2.8-3 2.3s-.4-.3-.8.3c-.5.7-2 1.4-3.5 1.5-1.4.1-2.4.4-2.2.6.2.3-1.5 1.4-3.8 2.6-2.3 1.2-4.1 2.7-3.9 3.4.1.8-.2 1.1-.8.7-.5-.3-1.3.1-1.6.9-.3.9-1.2 1.6-2 1.6s-1.4.4-1.4 1c0 .5-.6.7-1.4.4-.9-.3-1.7.3-2.1 1.5-.3 1.2-1.1 1.9-1.6 1.6-.5-.4-.9-.2-.9.3 0 .6-1.3 1.5-3 2.1-2 .6-3 .7-3 0 0-.6-.6-.7-1.2-.2-.7.4-1.5.8-1.8.9-3.1.6-6 1.8-6 2.5 0 .5-.5.9-1.1.9-.5 0-.7-.6-.3-1.3.5-.8.3-.8-.9.2-.9.7-1.4 1.8-1 2.5.4.6-.2.4-1.2-.4s-1.6-1-1.2-.3c.4.6.3 1.4-.3 1.8-.5.3-1 .1-1-.5 0-.7-.7-.9-1.6-.6-.8.3-1.2.2-.9-.3.3-.6-.3-1.4-1.2-2-1.7-1-1.7-1 0-1.1 1 0 1.6-.4 1.3-.8-.5-.9 1.5-2.8 5.3-5 1.9-1.1 2.2-1.1 1.6 0-.4.7.6-.2 2.3-2 1.7-1.7 3.3-3.2 3.5-3.2 1.1 0 10.7-10.1 10.7-11.2 0-.6.3-.9.6-.6.6.7 7.4-5.6 7.4-6.9 0-.4 1.1-1.7 2.5-2.7 1.3-1 2.2-2.3 1.9-2.8-.3-.4-.2-.7.3-.6.5.2 4-2.9 7.9-6.7 3.8-3.9 7.4-7.2 7.9-7.5.6-.3.9-.8.7-1.2-.1-.5.1-.8.5-.9.5 0 1.9-.2 3.2-.3 1.4-.2 2.7-.8 2.9-1.4.2-.7 1.3-1.2 2.3-1.2 1.1 0 1.8-.4 1.4-.9-.3-.5.4-1.2 1.5-1.6 1.1-.3 1.9-.9 1.7-1.3-.3-1 6-7.2 7.3-7.2.6 0 .8-.5.5-1-.3-.6.2-1 1.1-1 1 0 1.4-.3 1.1-.7-.4-.3.3-1.1 1.6-1.7 1.2-.7 2.7-2.7 3.3-4.5.6-1.9 1.8-3.9 2.7-4.6.9-.7 1.4-1.5 1-1.8-.3-.4-.1-.7.5-.7 1.3 0 7.2-5.8 7.2-7.1 0-.5.4-.8.9-.6.5.1 3-1.9 5.5-4.6 2.5-2.6 4.2-4.7 3.8-4.7-.4 0 1.3-1.2 3.8-2.7 2.5-1.5 4.8-2.7 5.3-2.5.4.1.7-.3.7-.8 0-1.5 8.3-10 9.7-10 .7 0 1.3-.4 1.3-.9s2.3-3.3 5-6.1c2.8-2.8 5-5.6 5-6.2 0-.6.3-.9.6-.5.4.3 3.2-2.1 6.4-5.4 3.1-3.2 6.2-5.9 6.9-5.9.6 0 1-.3.8-.8-.1-.4.8-1.7 2.1-3 1.2-1.2 2.2-2 2.2-1.7 0 .3 1.2-.6 2.8-2 1.5-1.4 4.3-3.5 6.3-4.7 2.1-1.1 4.2-3.1 4.8-4.5.6-1.3 1.9-2.7 2.8-3 2.2-.8 3.2-1.9 6.3-6.3 1.3-1.9 3.6-4.7 5.2-6.1 1.5-1.4 2.5-2.9 2.1-3.2-.3-.4-.1-.7.6-.7s1.9-.7 2.7-1.5c.9-.8 1.4-1.5 1.1-1.5-.2 0 3.7-4.2 8.7-9.2 5-5.1 9.4-9.2 9.8-9 .5.1.7-.2.5-.7-.3-1.3 4.4-5.2 5.5-4.5.4.3.7.2.6-.3-.1-.4.3-1.8 1-2.9.6-1.2.8-2.4.5-2.8-.3-.3.1-.6 1-.6s1.9-.5 2.3-1.2c.5-.7.2-.9-.7-.4-.8.4-.6.1.4-.7 1-.9 1.7-1.7 1.5-1.9-.2-.3.5-1.2 1.5-2.2.9-1 1.7-1.4 1.7-1 0 .4.9-.2 2-1.4s2-2.4 2-2.8c0-.4 1.2-1.8 2.8-3.2 1.5-1.3 2-2.1 1.2-1.7-.8.3-.5-.2.8-1.3 1.2-1.1 2.2-2.5 2.2-3.2 0-.6.5-.8 1-.5.6.3 1 .2 1-.4 0-.6 1.7-2.2 3.7-3.6 2.1-1.4 3.4-2.5 3-2.5-.4 0-.3-.6.3-1.3.6-.6 2.3-2.9 3.9-5 1.9-2.4 3.1-3.3 3.4-2.5.3.7.6.3.6-.9.1-1.5.6-2.1 1.5-1.7.8.3 2-.4 2.8-1.5.8-1.2 1.8-1.8 2.3-1.3.5.4.5.2.2-.5-.4-.6-.1-1.4.5-1.7.7-.3.4-.4-.7-.3-2.7.3-4.8 2.4-3.9 3.9.6.9.3.9-.9-.1-1.1-.8-1.7-.9-1.7-.2 0 .6-1.7 1.9-3.7 3-4.2 2.1-11.3 8.4-11.3 10 0 .5-.5 1.3-1.2 1.7-.7.5-.8.3-.3-.7.7-1.1.6-1.2-.7-.2-.8.7-1.9.9-2.3.5-.5-.4-.5-.1-.1.5.4.7.2 1.3-.4 1.3-.6 0-.8.4-.5 1 .3.5.1 1-.5 1s-.8.4-.5 1c.3.5.1 1-.5 1s-1.7.6-2.5 1.2c-.7.7-2.7 2.4-4.3 3.7-1.7 1.4-2.9 2.9-2.6 3.3.3.5 0 .7-.8.6-.7-.2-1.2.5-1.2 1.4.1.9-.4 1.4-1 1.2-.6-.2-2.1.4-3.3 1.5-1.1 1.1-2.4 1.7-2.7 1.4-.3-.4-.6-.1-.6.5 0 .7-.8 1.2-1.7 1.2-1.4 0-1.5.2-.4.9.9.6 1 1.1.2 1.5-.6.4-1.1.4-1.1 0 0-.3-.8 0-1.7.7-1.4 1.2-1.6 1.2-.8 0 .5-1 .4-1.2-.3-.7-.7.4-1.2 1.4-1.2 2.2 0 .9-.5 1.2-1.2.8-.8-.5-.9-.2-.4 1.2.4 1 .4 1.5 0 1.1-.4-.4-1.4-.1-2.3.6-1.4 1.1-1.5 1-.1-.8 1.4-2 1.4-2-.7-.2-1.2 1.1-2.7 1.6-3.3 1.2-.9-.6-.9-.2-.1 1.4 1 1.7.9 2.2-.4 2.7-.9.4-1.4 1.3-1.1 2.1.4 1.1.1 1.1-1.4.3-1.1-.6-2-.8-2-.4 0 .3-.6.2-1.3-.5-1.7-1.3-3.7.4-3.7 3.2 0 1.1-.4 1.5-1.2 1.1-.8-.5-.9-.2-.5.9.6 1.7-1.2 2-2.4.4-.8-1.1-4 .3-3.3 1.4.3.5 0 .9-.5.9-.6 0-1.1.5-1.1 1.1 0 .5.6.7 1.3.3.9-.6.8-.3-.1.8-.8 1-2.1 1.4-3 1.1-1.3-.4-1.2-.2.3 1l2 1.6-2 .7c-1.1.4-2.3 1.2-2.7 1.8-.5.7-.8.5-.8-.4 0-1.3-.1-1.3-1.1 0-.9 1.3-1 1.3-.6 0 .2-.8.9-1.6 1.5-1.6 2.5-.3 2.7-.5 1.3-1.3-1-.7-2-.4-3 .8-.9 1-2.7 1.7-4 1.6-1.3-.1-3.1.6-4 1.7-.8 1-2.1 1.8-2.8 1.8-.7 0-1.3.3-1.3.8 0 1.1-8 5.7-9.3 5.4-.7-.2-.9-.1-.5.3.9.9-3.3 5.6-4.4 4.9-.4-.3-.8-.1-.8.4 0 .6-.9.8-2 .5-1.1-.3-1.7-.9-1.4-1.4.3-.5 0-.9-.7-.9-.8 0-.9-.3 0-1.3.6-.8.7-1.7.3-2.1-.4-.4-.2-.6.3-.5.6.2 2.7-1.3 4.8-3.4 2-2 3.4-3.7 3-3.7-.4 0 .2-.7 1.3-1.6 1-.8 1.2-1.2.4-.9-.8.4-.2-.4 1.5-1.8 1.6-1.4 3.3-2.3 3.7-2.1.4.2.9-.5 1.3-1.6s1.1-1.8 1.5-1.5c.5.3 1.9-1.5 3.1-4 1.4-3 3.2-5 5.4-6.1 2.6-1.2 3.2-2 2.7-3.6-.4-1.6-.2-1.9.8-1.3.9.5 1.1.4.6-.4-.8-1.2 1.5-4.1 3.2-4.1.6 0 1.3-.7 1.6-1.6.3-.8 1-1.3 1.5-1 .5.3 1.6-.5 2.5-1.9.9-1.4 1.3-2.5.9-2.5s.2-.7 1.3-1.6c1-.8 1.2-1.2.4-.8-.8.4.3-1.1 2.5-3.2 2.2-2.2 4.3-3.8 4.7-3.6.4.1.5-.6.3-1.7s.3-2.2 1.1-2.5c.9-.3 1.2-1.1.8-1.7-.4-.8-.3-.9.4-.5s1.2.2 1.2-.4c0-.6.3-.9.8-.7.4.3 1.3-.1 2-.9.8-.9.9-1.4.2-1.4-.6 0-.8-.5-.5-1 .4-.6 1-.8 1.5-.5.4.3.7-.3.6-1.3 0-1 .6-1.6 1.6-1.6 1 .1 1.7-.1 1.6-.5-.4-1.4 1.4-5.1 2.3-4.6.5.4.9.1.9-.4 0-.6.6-1 1.3-.8.6.1 1.1-.4 1-1.1-.2-.6.4-1.2 1.3-1.2.8 0 1.2-.5.9-1-.6-.9 1-1.4 4.3-1.3.6.1 1.2-.8 1.2-1.9 0-1.2.4-1.7 1.2-1.2.7.5.9.2.5-.8-.4-1.1.1-1.8 1.5-2.1 1.5-.4 1.9-1.1 1.5-2.6-.6-2.3 4.9-9 7.9-9.6 1-.2 2.1-.4 2.3-.4.2-.1-.3-.9-1-1.9-.7-.9-.9-1.4-.5-1 .9.8 3.9-3.9 3.2-5.1-.2-.3.2-1.2 1-1.9s1.4-.9 1.4-.5.7-.1 1.5-1.1c1.1-1.4 1.5-1.6 1.5-.5 0 1.2.2 1.2 1-.1.5-.8 1-1.2 1-.7 0 .4 1.1 0 2.5-.9s2.2-2 1.9-2.5c-.3-.5.3-.9 1.2-.9 1 0 1.5-.3 1.2-.6-.3-.3.6-1.8 2-3.3 4.6-4.7 7.2-8.1 7.2-9.1 0-.5.9-1.5 2-2.3 1.1-.8 1.8-1.6 1.5-1.9-.3-.3 1.4-2.3 3.7-4.4 2.4-2.1 5.3-5.2 6.6-6.8 1.2-1.6 2.2-2.6 2.2-2.2 0 .3 1.6-1.2 3.5-3.3 2-2.2 3.5-4.3 3.4-4.8-.1-.4.3-1.9.9-3.3.6-1.4 1.1-2.2 1.1-1.8.1.4 3.1-2.3 6.8-6 3.8-3.7 6.7-7 6.5-7.5-.1-.4.4-.7 1.2-.7.8 0 1.6-.4 1.8-.9.2-.5 1-1.1 1.8-1.3.8-.2 2.5-1.6 3.8-3.2 1.2-1.7 2.2-2.6 2.2-2 .1.5.8-.3 1.6-1.9.8-1.5 1.9-2.7 2.4-2.7.6 0 1-.7 1-1.5s.5-1.5 1.1-1.5c.5 0 .9-.3.7-.8-.5-.9 4.9-6.1 5.6-5.4.4.3.6-.3.6-1.3s1.9-3.7 4.3-6c2.7-2.6 4.3-5 4.2-6.3-.1-1.2.2-1.9.7-1.6.4.3 1.1-.3 1.5-1.3.3-1 3.9-5.2 8-9.3 4-4.1 8.1-8.6 9-9.9 1-1.4 3.4-4.1 5.3-6 1.9-2 3.3-3.9 3.2-4.3-.1-.4.7-1 1.8-1.3 1-.3 2.2-1.5 2.5-2.6.4-1 1-1.7 1.4-1.4.4.2 1.4-.7 2.1-2 .7-1.3 1.7-2.2 2.1-1.9.5.3.6-.2.3-1-.3-.9.2-1.7 1.5-2.1 1.1-.3 2-.9 1.8-1.3-.2-.7 2-3.5 5.8-7.6 1.1-1.1 2-2.7 2.1-3.4.2-2.9.5-3.3 1.4-2.7.6.3 1 .1 1-.5s.8-1.4 1.7-1.7c2.1-.8 12.3-11.4 12.3-12.7 0-.7 5.9-6.4 6.3-6 .1.2.8-1.1 1.5-2.8.6-1.7.8-2.8.5-2.4-.3.3-1.2-.2-2-1.2-.8-.9-1.2-1.1-.8-.5.3.7.1 1.3-.5 1.3s-.8.5-.4 1.2c.5.7.2.9-.9.5-.9-.3-1.7-.1-1.9.5-.2.6-1.1.4-2.1-.6-.9-1-1.7-1.3-1.7-.8 0 .8-2.1 1.8-4.5 2.1-1.3.2-3.2 2.7-2.7 3.6.3.5-.2.4-1.1-.4-1.5-1.2-1.7-1.2-1.1.3.5 1.2.2 1.5-1.2.9-1.2-.4-1.5-.3-1 .5.4.7.1 1.2-.9 1.2-.9 0-1.3.4-1 1 .3.5.1 1-.5 1s-.8.4-.5 1c.4.6-.1.7-1.1.3-1.1-.4-1.5-.3-1 .5.3.6.1 1.4-.5 1.8-.7.4-.9.3-.5-.4.3-.6.2-1.3-.4-1.7-.5-.3-1 .1-1 1 0 1.1-.5 1.5-1.5 1.1-.8-.3-1.5-.1-1.5.4 0 .6.7 1 1.5 1s1.5.5 1.5 1.1c0 .5-.4.8-.8.5-.5-.3-2.1.6-3.7 2-1.5 1.3-2.4 2.4-1.9 2.4 1 0-3.7 3.9-4.8 4-.5 0-.8-.5-.8-1.1 0-.5.5-.7 1-.4.6.3 1-.1 1-1s-.4-1.4-.9-1.1c-.5.4-1.2 0-1.5-.6-.3-.9-1-.6-2.4.9-1.5 1.7-2.2 1.9-3.1 1-.9-.9-1.1-.8-.6.5.4 1 1.2 1.8 1.9 1.8.6.1.1.9-1.1 1.9-1.2 1-1.9 2.1-1.6 2.5.4.3-.1.6-1.1.6-.9 0-1.4.4-1.1 1 .3.5 0 .7-.7.5-.8-.3-2.4.6-3.6 2-1.2 1.4-2.7 2.5-3.3 2.5-.5 0-.7.5-.4 1.1.4.6-.2 1.3-1.4 1.6-1.2.3-2.1 1.2-2.1 2s-.5 1.1-1 .8c-.6-.4-1.8-.1-2.6.6-1.2 1-1.5 1-1.2-.1.2-.7-.3-1.5-1.1-1.8-.8-.3-1.1 0-.7.7.4.6.2 1.1-.3 1.1-.6 0-1.1.7-1.1 1.6 0 .8-.4 1.2-1 .9-1-.6-1.5.9-1 3 .1.5-.2.7-.6.3-.4-.4-1.4-.2-2.2.5-1.3.9-1.4.9-.8-.1.4-.6.4-1.2.1-1.2-.9 0-3.5 2.7-3 3.2.2.2-.5 1-1.7 1.7-1.4.9-1.8.9-1.3 0 .5-.7.3-1-.6-.7-.8.3-1.3 1.1-1.1 1.7.1.6-.4 1-1 .9-.7-.2-1.2.3-1 .9.1.7-.4 1.3-1 1.3-1 0-1 .2 0 .9 1 .6.9 1.1-.4 2.2-1.6 1.2-1.7 1.2-1-.1.4-.8 0-.6-.8.4-.9 1.1-1.6 2.4-1.6 2.8 0 .5-1 .4-2.1-.3-1.5-.8-1.9-.8-1.5 0 .4.6.1 1.1-.6 1.1-.8 0-2.1.9-3.1 2-1 1.2-2.2 1.8-2.7 1.5-.6-.3-.7.1-.4 1 .4 1 .2 1.5-.7 1.3-.8-.2-1.3.3-1.1 1 .1.8-.2 1.1-.8.7-.6-.3-1.4.4-1.9 1.7-.6 1.3-1 1.9-1 1.4-.1-.9-7.1 4-8.3 5.8-.4.6-.4 1.4-.2 1.8.3.4-.3.5-1.2.1-1.2-.4-1.5-.3-1 .5.4.7-3.3 5.1-9.6 11.3-5.7 5.6-9.7 9.8-8.9 9.4.9-.6 1.2-.4.7.4-.4.6-1.1.9-1.5.7-.4-.3-3.1 2.2-6 5.4-2.9 3.3-6.2 6.2-7.3 6.6-1.1.3-1.7.8-1.4 1.1.5.6-4.3 5.3-5.4 5.3-.4 0-2.7 1.8-5 4s-3.9 4-3.5 4c.5 0-.4 1.1-1.9 2.3-1.5 1.3-3.3 4.1-4.1 6.3-1 3-1.8 3.9-3.5 3.8-1.1-.1-1.8.1-1.6.4.3.3-.4 1.3-1.6 2.3-1.1 1.1-1.7 1.9-1.3 1.9.5 0 0 .7-1.1 1.5-1 .8-1.4 1.5-.8 1.5.6 0 1.1.7 1.1 1.5s-.2 1.3-.4 1.1c-.5-.4-4.3 3-4.3 3.8 0 .2-2 2.5-4.5 5-2.4 2.5-4.1 4.6-3.8 4.6.4 0-.2.6-1.3 1.4-1 .8-2.3 1.1-2.8.6-1.3-1.3-3.5 0-2.9 1.7.4 1 .2 1.4-.5.9-.6-.3-1.3.3-1.7 1.4-.3 1.1-.9 1.9-1.3 1.8-.4-.1-2 .5-3.7 1.5-1.6.9-2.6 1.6-2.2 1.7.4 0-.8 1.4-2.8 3.1-2.5 2.3-3.5 3.9-3.5 6.1 0 2.3-.4 2.9-1.6 2.4-.8-.3-1.3-.2-1 .3.3.5-.1 1.4-.9 2.1-.8.7-1.5.9-1.5.4 0-.4-.6.1-1.4 1.1-.8 1.1-1.2 2.3-1 2.6.2.4-.8 1.9-2.2 3.4-2.1 2.3-2.7 2.5-4.1 1.3-.9-.7-1.4-.8-1-.2.9 1.5-1.9 3.8-3.4 2.8-.7-.4-.9-.3-.6.3.6 1-3.7 6.6-4.5 5.8-.2-.2-1 .5-1.7 1.7-.7 1.1-.8 1.7-.3 1.4.6-.3 1.2 0 1.5.6.3 1.1.7 1.1 1.9 0 1.3-1 1.5-.9 1.3 1-.4 3.8-.5 3.9-1.5 3.3-.5-.3-1-.1-1 .5s-.4.9-.9.6c-.5-.4-.8.5-.7 1.9.2 1.3 0 2.2-.4 2-.4-.3-1 .5-1.3 1.6-.3 1.2-1 1.8-1.6 1.4-.6-.3-1.1-.1-1.1.4 0 .6-.7 1.1-1.6 1.1-.8 0-2.2.7-3 1.5-.9.8-1.3 1.5-.9 1.5.3 0-1.1 1.7-3.1 3.7-2 2.1-4 3.7-4.5 3.6-.4-.2-1.1.6-1.4 1.7-.4 1.1-1.5 2.5-2.6 3.1-1.1.5-1.7 1.4-1.4 1.9.3.5.1 1.1-.4 1.4-.5.4-.8 1.4-.7 2.4.2.9-.2 2-.8 2.4-.6.4-1.1 1.3-1.1 2s-1 1.5-2.3 1.8c-1.3.3-2.3.8-2.3 1.2.1 1.2-4.3 5.3-5.3 5-.5-.2-.4.3.2 1 .8 1.1.6 2-1.2 4.1-1.3 1.5-2.5 2.4-2.8 2.2-.3-.3-1.1.7-1.7 2.3-1 2.3-1.7 2.8-3.7 2.4-1.3-.2-2.4-.8-2.4-1.3s-.5-.9-1.2-.9c-.6 0-.9.3-.6.6.3.3-.5 1.7-1.8 3.1-1.4 1.5-2.1 2.9-1.7 3.2.7.5.8 2.2.4 6 0 .8-.4 1.2-.7.8-.9-.9-3.3 1.6-2.6 2.8.3.5-.3.3-1.3-.5-1.5-1.2-1.7-1.2-1-.1.6 1.1.4 1.3-.7.8-2.1-.7-3.1.3-1.8 1.9.8.8.6 1.6-.3 2.6-.8.8-1.8 2.4-2.1 3.6-.4 1.2-1.6 2.7-2.7 3.2-1 .6-1.9 1.7-1.9 2.5s-.5 1.5-1.1 1.5c-.5 0-.8.4-.5.9.3.5-.3 2-1.4 3.4-1.1 1.4-2 3-2 3.6 0 .6-.5 1.1-1.1 1.1-.5 0-.8.4-.4.9.3.6-.4 1.5-1.5 2.1-1.1.6-1.8 1.5-1.5 1.9.3.5-.2 1.1-1 1.5-.8.3-1.7.1-2-.4-.3-.5-1.5 0-2.7 1.2-1.6 1.6-2.2 1.8-2.9.7-.7-1.1-.9-1-.9.4 0 1-.5 1.5-1 1.2-1-.6-4.2 1.9-3.9 3.1.5 1.6-7.1 10.4-9 10.4-.7 0-.9.4-.6 1 .3.5.2 1-.4 1-.5 0-1.3 1-1.7 2.2-.6 2-.7 2.1-1.9.4-1.3-1.7-1.4-1.7-2.5.1-1 1.6-1 1.5-.5-.5.6-1.9.3-2.3-1.2-2-2.7.5-4.7 3.8-2.2 3.8.5 0 .8-.4.5-.9-.3-.5 0-1.1.7-1.4.8-.3 1.2.5 1.2 2.4s-.5 2.9-1.5 2.9c-1.3 0-1.3.1 0 1 1.2.7 1 1.1-1 1.9-1.4.5-2.1 1-1.7 1 1.1.1-6.3 7.1-7.5 7.1-.5 0-.6.4-.3 1s.2 1-.3 1c-.6 0-.8.9-.5 2 .3 1.2-.1 2.2-1.1 2.6-.9.3-1.4.9-1.2 1.3.3.4-.5 1.3-1.7 2.1-2 1.2-2.1 1.2-.8-.3 2-2.5.5-2.1-1.9.5-1.1 1.2-2 1.8-2 1.4 0-.4-.6-.1-1.4.6-.8.7-1.2 1.6-.9 2 .2.5-.1.8-.7.8s-.9.4-.5.9c.9 1.6-1.6 2.5-2.7 1-.8-1.1-.9-1-.4.3.3 1 .1 1.8-.5 1.8s-.8.4-.5.9c.3.5-.8 1.4-2.4 2-1.7.5-3 1.5-3 2.1 0 .6-.5.8-1.1.4-.8-.5-1 .1-.7 2 .3 1.4.2 2.6-.3 2.6-.4 0-1.1.9-1.4 2-.4 1.1-1 1.8-1.5 1.5-.5-.3-1.1-.1-1.5.5-.4.6-1 .8-1.5.5-.9-.5-2.3 2.8-2.4 5.5-.1.8-.8 1.4-1.6 1.2-.8-.2-1.2 0-.8.4.8.7-2.8 6.4-4.9 7.7-.7.4-1.3 1.5-1.3 2.2 0 .8-.7 1.5-1.6 1.5-.8 0-1.3.4-1 .9.6.9-2.2 2.6-3.6 2.3-.5-.1-.8.4-.8 1.2 0 .8-.8 1.4-1.8 1.3-1.1 0-1.8-.9-1.8-2.3 0-1.5.5-2 1.8-1.6 1 .2 1.8-.1 1.8-.7 0-.7-.4-1-.9-.7-.5.3-1.1-.3-1.4-1.4-.3-1.3 0-2 .9-2 .8 0 1.4-.4 1.4-1 0-.5 1.5-2.4 3.3-4.2 1.7-1.7 2.5-2.8 1.7-2.3-1.4.8 2.1-2.6 8.2-8.1 3.7-3.3 5.9-6.4 5.3-7.5-.4-.5-.3-.8.2-.7.4.2.9-.2 1.1-.7.2-.6 1.3-1.5 2.5-2.2 1.2-.7 1.8-1.2 1.4-1.3-.4 0 .6-1.3 2.2-2.9 1.6-1.6 2.7-3.2 2.3-3.7-.4-.4.1-.4 1-.1 1.1.4 1.7.2 1.5-.6-.1-.7.4-1.1 1.1-1 1.1.3 1.3-.3 1.1-2.3 0-.4 1-1.2 2.3-1.9 1.3-.6 2.2-1.7 2.1-2.3-.2-.7.2-1.2.7-1.2.6 0 1.5-1.2 2-2.6.6-1.4 1.4-2.2 2-1.9.5.3 1-.3 1-1.4 0-1.4.5-1.9 1.5-1.5.8.4 1.5.1 1.5-.6 0-.6.7-1.8 1.5-2.7.8-.8 1.3-1.9.9-2.4-.9-1.5 2.2-2.2 4.5-1 1.8 1 1.9.8 1.6-1.1-.3-1.3-.9-2.4-1.5-2.6-1.4-.5-1.3-3.2.2-3.2.6 0 .9-.3.5-.6-.3-.3.8-1.9 2.4-3.5 1.6-1.5 2.9-3.3 2.9-3.8 0-.6.7-.7 1.7-.4 1.1.4 1.4.3.9-.5-.4-.7-.2-1.2.6-1.2.9 0 .9-.3-.2-1-1.3-.8-1.2-1 .3-1 1 0 1.6-.4 1.3-.9-.8-1.2 1.9-2.2 3.1-1 .5.5.9.1.9-1s-.5-1.7-1.1-1.3c-.5.3.2-.9 1.8-2.7 1.5-1.8 2.7-4 2.7-4.8 0-.9.3-1.3.6-1 .9.9 4.5-3.3 3.8-4.5-.3-.4-.2-.8.3-.7 2.1.4 3.3-.2 3.3-1.6 0-.8.3-1.4.8-1.3 1.8.4 4-1.5 3.5-2.9-.5-1.2-.3-1.4.6-.8 1 .6 1.1.2.6-1.5-.5-1.5-.4-2 .4-1.6.6.4 1.1.2 1.1-.4 0-.6.5-.8 1.2-.4.6.4.8.3.5-.3-.9-1.4 1.9-3.7 3.3-2.8.7.4 1.4-.2 1.7-1.4.3-1.1.8-1.9 1.2-1.6.4.2.5-1 .3-2.7-.4-2.4-.2-2.9.9-2.3 1.1.7 1.2.6.3-.6-1.3-1.8-1.2-4.4.3-4.4.6 0 1.5-.4 2-.9.4-.5.3-.6-.4-.2-.6.3-1.4.2-1.7-.3-1-1.6 2.3-2.1 3.9-.5 1.1 1.1 1.9 1.2 3.2.5 1.7-1 1.6-1.1-.4-1.7-1.3-.3-2-1-1.7-1.5.3-.5.2-.9-.3-.8-3.1.5-3.3-.4-.7-2.7 1.6-1.5 2.2-2.3 1.4-1.8-1.3.7-1.3.5-.1-.9.7-.9 1.7-1.4 2.2-1.1.5.3.9.2.8-.3-.3-2 .2-3.4 1.1-2.8.6.3 1 .1 1-.5s.5-.8 1.2-.4c.8.5.9.2.5-.9s-.1-1.7.8-1.7c.8 0 1.5-.7 1.5-1.5s.5-1.5 1.1-1.5c.5 0 .8-.4.5-.8-.3-.5.6-1.6 1.9-2.6 1.4-1 2.2-2.2 2-2.6-.3-.4.2-1.1 1.1-1.4.8-.3 1.2-1 .9-1.6-.3-.5-.1-1 .5-1s.8-.5.5-1c-.3-.6.1-1.3.9-1.6.9-.3 1.6-1.2 1.6-1.9s.9-1.5 2.1-1.8c1.2-.3 1.9-1 1.6-1.5-.4-.4.2-1.6 1.1-2.5 2.8-2.6 4.3-4.7 3.5-4.7-.4 0 0-.5 1-1.1.9-.6 1.5-1.4 1.2-2-.4-.5.2-.9 1.1-.9 1 0 1.5-.3 1.2-.6-.4-.3.1-1.4 1-2.3 3.4-3.6 5.2-6.2 5.2-7.4 0-.7.9-1.9 1.9-2.7 1.1-.7 1.8-1.7 1.5-2.2-.3-.4-.1-.8.4-.8s1.4-1.2 2-2.6c.7-1.4 1.7-2.2 2.2-1.9.6.3 1-.3 1-1.5s.5-1.8 1-1.5c.6.3 1 .2 1-.4 0-.6 1-1.9 2.2-3 1.2-1.1 2.2-2.9 2.3-4 .1-1.1 1.4-3.2 3.1-4.7 1.6-1.5 2.9-3.2 2.9-3.6 0-.5.5-1.2 1.1-1.6.6-.4 1.3-1.5 1.7-2.5.4-1 1.2-1.5 1.8-1.1.8.4.7 0-.1-1.6-1-1.9-.9-2.2.9-2.7 1.1-.3 1.8-1 1.4-1.6-.4-.7 0-.8 1.3-.3 1 .4 1.5.4 1.1 0-.4-.4.1-1.7 1-2.8 1.4-1.6 1.4-1.8.3-1.1-.9.6-.7.2.3-.7 1.1-1 2.3-1.5 2.8-1.2.5.3.9.2.8-.3-.4-2.3.4-4.1 3.1-7.3 1.6-1.9 3-3.2 3-2.8 0 1.6 4.1-3.4 4.3-5.2.1-1 .4-1.7.8-1.4.4.2 1-.6 1.4-1.9.4-1.2.8-2.5 1-3 .6-1.8.7-2.2.6-3 0-.4.4-.7 1-.7.5 0 .7-.5.4-1-.3-.6-.1-1 .5-1s.9-.4.6-.8c-.3-.5.4-1.6 1.5-2.5 1.1-1 1.7-2.2 1.4-2.7-.3-.6-.1-1 .4-1 .6 0 1.1-.7 1.1-1.5s.5-1.5 1.1-1.5c.5 0 .7-.5.4-1-.3-.6.1-1 .9-1 .9 0 1.5-.3 1.4-.8-.3-1.4 1.4-6.2 2.3-6.2.5 0 .9-.6.9-1.3 0-.8 1.5-3 3.4-4.9 1.9-2 3.2-3.9 2.9-4.2-.4-.3-.1-.6.5-.6.7 0 1.2-.9 1.2-2s.9-2.9 2-4 1.7-2 1.3-2c-.3 0 .1-.8 1-1.8 1-1 1.4-2.2 1-2.5-.3-.4-.2-.7.4-.7.5 0 1-.7 1-1.5s-.4-1.2-.8-.9c-.4.2-1 0-1.4-.6-.4-.6-1-.8-1.4-.6-1.7 1.1-.6-2.6 1.3-4.8 1.2-1.2 2.9-3.7 3.9-5.4 1.6-2.9 1.6-3 0-2.7-1 .2-2.2.4-2.6.4-.5.1-.5.5-.2 1.1.3.5.1 1-.4 1-.6 0-1.1.7-1.1 1.5s-.4 1.5-1 1.5c-.5 0-1 .7-1 1.6 0 .8-.4 1.3-.9.9-.5-.3-1.2.3-1.6 1.4-.3 1-2.1 3.5-4.1 5.5-1.9 2-3.2 3.6-2.9 3.6.3 0-.3.8-1.2 1.8-1 1-2.7 3.1-3.8 4.6-1.1 1.6-3 3.9-4.2 5.1-1.2 1.3-2 2.5-1.7 2.8.3.2-.9 1.6-2.6 3-1.7 1.5-3.2 3-3.3 3.4-.1.8-1 1.9-5 6.6-1.1 1.2-3.3 3.9-5 6.1-1.8 2.1-5.1 5.9-7.4 8.5-2.4 2.5-4.3 5-4.3 5.4 0 .5-.5.5-1.2.1s-.8-.3-.4.4-1.2 3.1-3.8 5.6c-2.4 2.5-4.2 4.7-3.9 4.9.2.3-.5.8-1.6 1.2-1.2.3-2.1 1.3-2.1 2.1s-.4 1.3-.9 1.1c-.5-.1-1 .2-1.1.8-.2.5-1.5 1.9-2.9 3-1.7 1.3-2.5 2.7-2.3 3.9.3 1.5 0 1.7-1.4 1.2-1-.4-1.5-.4-1.1 0 .4.4-.5 2-1.9 3.5-2.3 2.4-2.9 2.6-5.1 1.6-2.2-1-2.3-1.2-.7-1.7.9-.4 1.8-1.4 2-2.3.1-1-.2-1.4-.8-1.1-.6.4-.2-.5.7-2 1-1.4 2.2-2.6 2.7-2.6s.6-.5.3-1c-.3-.6-.1-1 .5-1s.8-.5.5-1c-.3-.6-.1-1 .5-1s.9-.4.5-.9c-.3-.5-.1-1.2.5-1.6.6-.4.7-1.1.4-1.7-.4-.6-.2-.8.4-.4.6.3 1.3-.3 1.7-1.4.3-1.1 1.1-2 1.6-2 .6 0 .8-.4.4-.9-.3-.6.3-1.4 1.2-2 1-.6 1.4-1.1 1-1.1-.5 0-.1-.7.7-1.6.9-.8 1.4-2 1.1-2.5-.4-.5-.1-.9.5-.9s1.6-1.4 2.1-3c.6-1.7 1.5-3 2.1-3 .5 0 .7-.4.3-.9-.3-.6.1-1.3.9-1.8.8-.4 1.5-1.1 1.6-1.5.8-3.4 1.4-4.8 2.1-4.8.5 0 .9-.7.9-1.5s.5-1.5 1.2-1.5c.6 0 .9-.3.5-.6-.3-.4.1-1.3.9-2.1s1.1-1.9.8-2.5c-.4-.6-.2-.8.3-.5.6.4 1.7-.1 2.4-1 1.2-1.4 1.2-1.6-.1-.8s-1.3.7 0-1.1c.8-1 2.3-2.7 3.3-3.6 1-.9 1.8-2 1.8-2.5 0-.4.8-1.8 1.9-3 1-1.2 1.6-2.4 1.3-2.7-.3-.3.4-1.7 1.6-3.2 1.1-1.5 2.1-3.3 2.1-4.1 0-.8.4-1.2.9-.8 1 .6 2.5-2.7 2.7-6 .1-1.1.2-2.8.3-3.8 0-1 .4-1.6.9-1.4.4.3.8-.5.8-1.6.3-3.9.9-5.2 2.7-5.9.9-.4 1.7-1.7 1.7-2.8 0-1.2.4-1.8 1-1.5.6.3.7-.1.4-.9-.3-.9-.1-1.6.5-1.6s1-.3.9-.8c-.2-1.3 1.5-4.7 2.9-5.5.7-.4 1.3-1.5 1.3-2.2 0-.8.5-1.5 1.1-1.5.6 0 .8-.7.5-1.6-.4-1-.2-1.3.6-.8s.9.2.5-1c-.4-1-.3-1.5.3-1.1.5.3 1.8-.8 2.8-2.4 1-1.7 2.1-2.9 2.3-2.6.3.2.6-.8.7-2.2.1-1.5.9-3.4 1.7-4.3.8-.9 1.5-2.4 1.5-3.2 0-.9.7-2.1 1.5-2.8.8-.7 1.5-1.9 1.5-2.7 0-.8.4-1.2.9-.8.9.5 2.2-2 2-3.9 0-.5.5-1.3 1.3-1.7 1-.7 1.1-1.2.1-2.8-.9-1.5-1-2.2-.1-2.7.6-.4.8-.3.4.4-.3.6-.2 1.3.3 1.6 1.4.9 2.1-.8 1-2.4-.8-1.3-1.3-1.1-2.9 1-1.1 1.4-2.5 3.1-3 3.7-.6.7-.8 1.3-.5 1.3.4 0 0 .6-.7 1.3-2 2.1-5.7 7.1-5.8 7.9 0 .4-1.2 2-2.5 3.4-1.4 1.5-2.5 3.2-2.5 3.8 0 .6-.8 1.9-1.7 2.8-3 2.8-4.3 4.7-4.3 6.1 0 1.6-2.3 4.7-7.8 10.4-2.4 2.5-4.1 4.7-3.8 5 .3.4-.2 1.2-1.2 2-1.1 1-1.2 1.2-.2.8.8-.4.4.3-1 1.5s-1.8 1.8-1 1.4c1.3-.6 1.3-.5 0 .7-.8.8-2 2.1-2.8 2.9-.7.8-1.1.9-.7.2.3-.6.1-1.2-.4-1.2-.6 0-1.1.7-1.1 1.5 0 .9-1.1 2-2.5 2.5-1.7.6-2.3 1.4-1.9 2.5.4.9.3 1.5-.2 1.4-.5-.1-1.7-.1-2.8 0-1.5.1-1.6.4-.6 1.6.8 1 .9 1.5.2 1.5s-.9.7-.5 1.7c.4 1.1.3 1.4-.5.9-.7-.4-1.2-.2-1.2.3 0 .6-.5 1-1.2.8-1.8-.3-4 4.5-2.5 5.5.9.6.8.8-.2.8-1.1 0-.9.4.5 1.5 1.8 1.4 1.8 1.4-.3 1-1.3-.2-2.2.1-2 .7.1.6-.4 1.3-1.2 1.6-.8.3-1.1 0-.7-.7.8-1.3-.1-1.3-2.9-.1-1.3.6-1.5.9-.5.9.9.1 1.1.4.5.9-1.6 1.2-5.1 5.6-3.8 4.9.6-.4 1.5-.3 1.8.3.4.6.3 1-.2.9-1.9-.3-3.4.2-2.9 1 .3.5 0 .8-.7.7-.6 0-1.3.3-1.5.9-.2.5-1 1.4-1.8 1.8-1.3.7-1.3 1.1-.2 2.5s1 1.5-.6.9-1.7-.5-.6.8 1.1 1.6-.1 1.3c-.8-.2-1.3.3-1.2.9.2.7-.2 1.3-.7 1.3-.6 0-1-.6-1-1.3 0-.6-.7-.3-1.6.8-.8 1.1-2 1.9-2.5 1.8-.5-.2-.9.2-.9.7 0 .6-.6 1-1.4 1-.8 0-2.4 1.4-3.7 3.1-4.2 5.5-12.6 13.9-14 14-.8 0-.5.4.6.8 1.9.8 1.9.8-.3 2-1.2.7-2 1.6-1.7 2.2.4.5 0 .9-.8.9s-1.8.7-2.1 1.6c-.5 1.4-.8 1.4-2.3-.1-1.7-1.8-2.9-7-1.3-6 .5.3 1.1-.4 1.5-1.5.4-1.1 1.1-1.8 1.6-1.5.5.3.6 0 .3-.8s.2-1.7 1.1-2.1c.9-.3 1.3-1 1-1.6-.3-.5-.1-1 .5-1 .8 0 .7-.6-.1-2.1-.7-1.3-.7-1.9-.1-1.5.6.3 1.3-.3 1.7-1.4.3-1.1 1.1-1.9 1.8-1.7.6.1 1.1-.3 1.2-.8.1-1.7 2.9-5.5 4.1-5.5.6 0 1.5-1.6 2.1-3.5.6-1.9.8-3.5.3-3.5-.4 0-.5-1.1-.3-2.5.3-1.3.8-2.3 1.2-2.2.9.2 6.1-5.3 6.1-6.4 0-.4-.5-1.1-1-1.4-.7-.4-.7-1.3 0-2.6.6-1 .8-1.9.5-1.9-.4 0 1-1.5 2.9-3.4 2-1.8 3.6-3.8 3.6-4.3 0-.6.9-1.8 2-2.8 1.1-1 2-3.1 2-4.8 0-1.6.9-4.2 2.1-5.8 1.1-1.6 1.7-2.9 1.4-2.9-.4 0 .1-.7 1-1.6 1.3-1.3 1.3-1.9.3-3.2-1-1.2-1-1.6 0-1.9.6-.3 1-.9.7-1.3-.3-.5 0-1.2.6-1.6.8-.4.9-.3.5.4s-.2 1.2.3 1.2c.6 0 1.1-.7 1.1-1.6 0-.8.4-1.3.9-1 1.1.7 2-1.4 1.4-3.2-.3-.6-1-.9-1.6-.5-.7.3-.3-.3.7-1.5 1.9-2.2 3.2-3 2.1-1.3-.3.5-.1 1.2.4 1.5.5.4.8-.5.7-1.8-.2-1.8.1-2.3 1.2-1.8 1 .3 1.3.1.8-.6-.4-.7-.2-1.2.3-1.2.6 0 1.1-.7 1.1-1.5s.4-1.5.9-1.5 1.2-.7 1.5-1.6c.6-1.5.4-1.5-1-.3-1.5 1.2-1.5 1 .1-2.1s1.6-3.3.1-2.1c-1.4 1.2-1.6 1.2-1-.3.3-.9 1-1.6 1.6-1.6.5 0 .7-.4.3-.9-.3-.5-.1-1.3.5-1.6.6-.4 1-.3.9.2-.4 2.3.4 2.1 3-.8 2.1-2.2 2.8-3.9 2.5-5.6-.3-1.4-.1-2.2.5-1.9.5.3 1.5-.2 2.2-1.1 1-1.2 1-1.4.2-.9-.7.4-1.3.2-1.3-.3 0-.6.4-1.1 1-1.1s.6-.9 0-2.5c-.7-1.8-.5-2.8.5-3.8 1-1.1 1.1-1.7.2-2.6-.6-.6-.9-1.1-.7-1.2 3.5-.6 4.5-1 4.8-1.8.2-.6 1.3-1.1 2.4-1.1 1.3 0 1.8-.5 1.5-1.4-.3-.8-.1-1.7.6-1.9.9-.3.8-.8-.2-1.8-1.2-1.2-1.3-1.2-.6 0 .6 1 .4 1.2-.4.7-.8-.6-.9-1.2-.2-2 .6-.7.8-1.6.4-1.9-.3-.4-.2-.7.3-.7s1.8-1.4 2.8-3c.9-1.7 2.1-2.8 2.5-2.5 1.7 1 5.9-3.4 5.9-6.2 0-1.5.5-2.9 1.1-3.1.6-.2.8-.8.5-1.3-.3-.6 0-1.7.7-2.5.7-.9 1.4-2.3 1.5-3.2.2-.8.6-1.8 1.1-2.1.5-.3 1-2.2 1.2-4.1.1-1.9.7-3.7 1.2-3.8.5-.2.6-.8.3-1.4-.4-.6-.1-1.4.5-1.8.7-.4 1.3-1.7 1.4-2.8.1-1.2.7-2.2 1.4-2.2.6 0 1.5-.5 1.9-1.2.5-.7.3-.8-.5-.3-.9.5-.9.1.1-1.4.7-1.2 1.6-2.1 2-2.1.5 0 .8-.7.8-1.5s.5-1.5 1-1.5c.6 0 .9-.3.8-.8-.3-.8 2.4-5 3.2-4.8 1.1.2 4.9-3.1 4.3-3.7-.3-.4-.2-.7.4-.7.5 0 1-.7 1.1-1.5.1-.8.3-2.2.4-3 .1-.8.5-1.5 1-1.5.4 0 .8-.7.8-1.5s.5-1.5 1-1.5c.6 0 1-.9 1-2s.5-2 1.1-2c.5 0 .8-.4.5-.9-.4-.5-.2-1.1.3-1.3.5-.1 1.1-.9 1.3-1.7.2-.8 1.5-2.7 3.1-4.3 1.5-1.6 2.5-3.3 2.2-3.7-.2-.5.2-1.4 1-2.1.8-.7 1.5-1.9 1.5-2.6 0-.8.5-1.4 1-1.4.6 0 1-.7 1-1.6 0-.9.5-1.2 1.2-.8.6.4.8.3.5-.3-.4-.6.2-2.2 1.3-3.6 1.1-1.3 2.1-3.9 2.2-5.7.1-1.7.6-3.4 1-3.6.5-.3.6-1 .3-1.5-.4-.5-.1-.9.5-.9s.9-.4.5-.9c-.9-1.5 4.1-13.1 5.6-13.1.6 0 .8-.4.4-.9-.3-.5-.1-1.2.5-1.6.6-.4.8-1.1.5-1.6-.4-.5-.1-.9.5-.9s.9-.4.6-.9c-.3-.5.1-1.4.9-2.1.8-.7 1.3-1.6 1-2-.3-.5-.1-1.1.5-1.5.6-.4.8-1.1.5-1.6-.4-.5-.2-.9.4-.9.6 0 1.9-1.9 3-4.3 1.1-2.3 2.1-3.8 2.1-3.2.1.9 2.1-3.3 2.1-4.5.1-.3.6-1.1 1.2-1.9.6-.7 1.2-2 1.4-2.9.1-.9.7-1.8 1.2-2 .6-.2 1.1-1.2 1.1-2.2 0-1 .5-2.2 1-2.5.6-.3 1-1.5 1-2.6 0-1 .4-1.9.9-1.9s1.1-.8 1.3-1.8c.8-3.1 1.1-3.7 2.5-5 .7-.8 1.1-1.8.8-2.3-.4-.5-.2-.9.3-.9.6 0 1.5-1.2 2.1-2.8 2-5.1 5.5-10.7 8-13.1 1.4-1.4 2.5-3.3 2.3-4.3-.2-1 .1-1.8.6-1.8 1.1 0 2.3-3.1 2.8-7.5.2-1.7.9-3.2 1.4-3.3.6-.2.8-.8.4-1.3-.3-.5 0-.9.5-.9.6 0 1.1-.3 1-.8-.2-1.5 1.4-5.2 2.3-5.2.5 0 .6-.5.3-1-.3-.6-.1-1 .5-1s1.5-1.2 2.1-2.8c.5-1.5 1.2-3.4 1.6-4.2.3-.8.7-1.9.7-2.3.1-.5.9-1.4 1.9-2.1.9-.7 1.7-1.8 1.7-2.4 0-.6.4-1.2 1-1.4.5-.2 1.1-1.3 1.3-2.5.2-1.2 1.2-3 2.3-4 1-1 1.9-2.5 1.9-3.3 0-.8.5-1.4 1.1-1.3.6.1 1.1-.3 1.1-1 .1-2.4.8-4.2 2.3-5.4 1.3-1.1 1.3-1.4 0-2.3-1.2-.8-1.2-1-.1-1 1.1 0 1.1-.3 0-1.7-1-1.1-1-1.4-.1-.9.6.4 1.2.2 1.2-.3 0-1.6-1.6-1.3-3.1.5-1.2 1.4-1.4 1.4-2.4 0-.7-.9-1.5-1.3-1.8-.9zm-57.6 66.6c-1 .9-1.1.8-.5-.6.3-1 .9-1.5 1.2-1.2.3.3 0 1.1-.7 1.8zm-8.3 16.1c-1 .7-1.4 1.7-1 2.1.4.5.1.5-.7 0-1.2-.7-1.1-1 .4-2.2 2.4-1.7 3.6-1.7 1.3.1zm-55.9 130.2c-1.4 1.3-1.6 1.3-1.6 0 0-.8.4-1.3.9-1 .4.3.8 0 .8-.7s.3-.9.7-.5c.4.3 0 1.3-.8 2.2zm-13.7 2.2c-.3 1-.1 1.3.6.8.6-.3 1.4-.1 1.8.5.4.8.3.9-.4.5s-1.2-.3-1.2.3c0 .5-.9.9-1.9.8-1.5-.1-1.7-.4-1-1.4.6-.7.8-1.6.5-2.1-.3-.5.1-.9.8-.9.8 0 1.2.7.8 1.5zm8.3 3.1c-.3 1.4.1 1.8 1.1 1.4.8-.3 1.4 0 1.4.7 0 .6-.5.8-1.2.4-.7-.5-.9 0-.6 1.4.4 1.6.2 1.9-1 1.5-1.1-.5-1.3-.3-.7.8.7 1.2.6 1.2-.7.1-.9-.8-1.9-.9-2.2-.4-.3.6.1 1.6 1 2.3 1.4 1.1 1.3 1.5-.8 3.2-1.6 1.3-1.8 1.7-.5 1.3.9-.3 1.7-.1 1.7.4 0 .6-.4 1-1 1-.5 0-1 .7-1 1.5s-.5 1.5-1.1 1.5c-.5 0-.7.6-.3 1.2.6 1 .5 1-.8.1-.8-.7-1.8-1-2.1-.6-.4.3-.7.1-.7-.5 0-.7.5-1.2 1.2-1.2.6 0 .3-.7-.8-1.5-1.7-1.3-1.7-1.4-.1-1.5.9 0 1.6-.6 1.5-1.3-.2-.6.2-1.1.9-1 .7.2 1-.6.8-1.6-.2-1.1.5-2.7 1.6-3.6 1-1 1.6-2.1 1.4-2.6-.3-.4.3-1.2 1.2-1.8 1-.6 1.4-1.1 1-1.1-.5 0-.5-.5-.2-1 1-1.6 1.4-1.2 1 .9zm-12.4 5.8c.8.9.9 1.4.3 1-.7-.4-1.4 0-1.7.8-.4 1-.1 1.2 1.1.8 1.3-.4 1.2-.2-.3 1-1.7 1.3-2 1.4-2.3.1-.2-.8-.7-1.2-1.1-1-.4.3-.8-.1-.8-.9s.4-1.2.8-1c.4.3.9-.2 1.3-1 .7-1.9 1-1.9 2.7.2zm2.5 11c0 1 .4 1.7.9 1.6.6-.1 1.2.7 1.2 1.8.1 1.1-.5 1.9-1.3 1.9-.9 0-1.4.7-1.2 1.7.2 1.4-.3 1.7-2 1.5-2.2-.2-2.2-.1-.7 1.4 1.4 1.5 1.4 1.7-.2 3.1-1 .8-1.2 1.2-.6.8.9-.4 1.1-.1.7.9-.7 1.9-2.4 2.1-2.4.4 0-.6-.3-.8-.6-.5-.4.4-.1 1.3.6 2.2 1 1.2.9 1.6-.4 2.1-.9.3-1.3 1.1-.9 1.7.4.7-.2.8-1.8.3-4.7-1.3-6.4-1.8-7.6-1.8-.7-.1-1.3-.5-1.3-1 0-1.1.7-1 3.1.2 1.5.9 2.1.7 2.5-.5.3-.8 1.2-1.5 2-1.5.7 0 1.1-.6.8-1.4-.3-.8 0-1.7.5-2.1.6-.3.9-1 .6-1.5-.3-.5.7-.7 2.2-.4l2.8.4-2.4-1.4-2.4-1.4 2.2-.7c1.5-.5 2.1-1.3 1.9-2.8-.2-1.3.2-2.1 1-2 .6.2 1.2-.5 1.2-1.5 0-1.6.8-3.2 1.6-3.2.1 0 .1.8 0 1.7zm-17.7 13.4c-1.4 2.6-2.7 2.4-2.5-.4.1-1.7.6-2.3 1.8-1.9 1.4.3 1.5.8.7 2.3zm-1.4 4.2c-.3.6.4 1.8 1.6 2.5 1.4.9 1.9.9 1.4.2-.5-.9-.1-.8 1.6.1 1.3.7 2.5 1.2 2.7 1.1.8-.6 2.1 0 2.6 1.4.5 1.2.2 1.5-1 1-1.5-.6-1.5-.4-.3 1.1s1.2 1.6-.5 1c-1.2-.5-1.7-.3-1.3.5.2.7-.2 1.9-1 2.6-1.1 1.1-1.3.9-.9-1.2.3-1.4.7-2.9 1-3.4.2-.4.2-1.3-.2-1.9-.5-.8-1.5-.5-3.1.8-1.3 1-2 1.9-1.5 1.9.4 0-.1.7-1.2 1.5-1.8 1.3-1.8 1.4.4.8 1.8-.4 2.4-.1 2.9 1.6.3 1.1 1 2.1 1.6 2.1.6 0 0 1.2-1.4 2.7-1.3 1.4-1.9 2.3-1.2 2 .8-.5.8-.1 0 1.7-.7 1.3-1.6 2.2-2.1 1.9-.5-.4-.7.1-.3 1 .3.9-.1 2.1-1.1 2.9-1.5 1.1-1.6 1.1-.7-.2.6-.9.3-.8-.7.2-1.9 2.1-3.2 2.4-2.5.5.3-.7-.2-2.2-1-3.2-1.1-1.4-1.4-1.5-1-.4.3.9.1 2.2-.4 3-.5.9-.7.4-.6-1.6.2-2.1.8-3 1.9-2.9.9.1 1.9-.4 2.2-1.2.3-.9 0-1.1-1.1-.7-1.1.4-1.4.2-.9-.5.4-.7 1.6-1.2 2.6-1.2s2.2-.5 2.6-1.2c.5-.8.2-.9-1-.5-1.4.6-1.5.3-.6-1.3.6-1.1 1.3-2 1.6-2 .3 0 .2.4-.1 1-.3.5-.4 1-.1 1 .3 0 1-.9 1.6-2 1-1.9.8-2-1.5-1.6-1.4.3-2.4.2-2.1-.2.2-.4-.2-1.2-.9-1.9-1.1-1-1.5-1-1.8 0-.3.7-.6.2-.6-1.1-.1-1.3-.5-2-1.1-1.7-.6.3-.7-.1-.4-.9.3-.9 1-1.3 1.5-1 .5.3.9.1.9-.3 0-.5.7-1.8 1.6-2.9.8-1 1.2-1.2.8-.4-.5 1.1-.2 1 1.2-.3 2.2-2 2.5-2.1 1.9-.4zm4.9 6.5c-.6.4-1 1.5-.8 2.5.1.9-.1 1.5-.6 1.2-.7-.4-.7-2.2-.1-4.3.1-.1.7-.2 1.4-.2.8 0 .9.3.1.8zm-9.7 4.9c-.4.3-.2 1.2.3 1.8.7.9.5 1.7-.7 2.6-1.6 1.3-1.7 1.2-.4-.4 1.4-1.8.2-2.4-1.5-.7-.7.7-1.1.6-1.1-.4 0-.8.4-1.3.8-1.1.4.3.9-.2 1.3-1 .3-.8.9-1.5 1.2-1.5.4 0 .4.3.1.7zm-17.3 6.1c-.3.9.1.6.9-.7 1.4-2.4 1.5-2.4 2.5-.4.9 1.6.8 2.5-.8 4.3-1.5 1.8-2.2 2-3.9 1-1.2-.6-2.1-.8-2.1-.6 0 .3 1.2 1.2 2.8 2 1.5.8 2.1 1.5 1.4 1.6-.7 0-1.1.3-.8.8.2.4-.1 1.5-.8 2.4-1.1 1.5-1.3 1.5-2.4-.3-1.1-1.7-.9-2.1 1-2.9 2.1-.8.9-1.6-1.7-1-.5.1-.7-.2-.3-.6.4-.4.3-1.3-.4-2.1-.6-.8-.7-1.3-.2-1.2 2.1.4 2.4-.2 1.3-2.4-1.1-2-1.1-2.1.4-.8 1.6 1.2 2.2.8 1.8-1.2-.1-.5.3-.6.8-.2.6.3.8 1.3.5 2.3zm11.3 6.2c.7 0 1.3.4 1.3 1 0 .5-.7.7-1.5.4-1.8-.7-2 .7-.3 2.4 1 1 1 1.5-.1 2.1-.8.5-1 1.4-.6 2.1.5.9.4 1.1-.3.6-.7-.4-1.2-.2-1.2.3 0 .6-.8 1.1-1.7 1-1.1 0-1.3-.3-.5-.6.6-.2 1.2-.9 1.2-1.5s-.7-.8-1.5-.5c-.8.4-1.7.1-2.1-.5-.4-.6-.3-.8.4-.4.6.3 1.8-.1 2.6-1 1.7-1.6 2.2-3.9.7-3-.5.3-1.1-.3-1.4-1.5-.4-1.5-.3-1.8.7-.9 1 .8 1.2.4.9-1.7-.3-2.7-.3-2.7.8-.6.7 1.3 1.8 2.3 2.6 2.3zm-16.4 7.7c-.7.2-1.3.9-1.3 1.4 0 .6.5.7 1 .4 1.4-.9 1.2.8-.2 2.4-1 1.1-1 1.3 0 .7 1.9-1.1 1.4.9-.8 2.9-1.8 1.7-2 1.7-1.4.2.5-1.3.2-1.6-1-1.1-1.1.4-1.6.1-1.6-1 0-.9.6-1.6 1.3-1.6.9 0 .8-.3-.2-.9-1-.7-.8-1.2 1-2.5 1.3-.9 2.8-1.6 3.4-1.5.5 0 .4.3-.2.6zm20.7.9c0 .8-.4 1.3-.9.9-.5-.3-1.2-.1-1.6.4-.3.6.5.8 2 .5 1.4-.2 2.5 0 2.5.6s-.5.8-1.1.4c-.8-.5-1 .1-.7 1.9.3 1.8.1 2.4-.8 2-.7-.2-1.2-1-1-1.6.1-.7.1-.9-.1-.5-.8 1.4-2.2.8-1.7-.6.4-1.2-.1-1.4-2.2-1-1.6.3-2.6.2-2.2-.1.3-.4 1.4-.8 2.5-1 1-.1 1.7-.8 1.5-1.5-.1-.6.2-.9.7-.6.5.4 1.2.2 1.6-.4.9-1.5 1.5-1.2 1.5.6zm-2.4 6.8c1 .8 1.6 1.8 1.1 2.2-.4.4-1.3.2-1.9-.4-.7-.7-1.6-1.2-2.2-1.2-.5 0 .1.9 1.4 2 2.1 1.8 2 2.5-.2 2.1-1.2-.2-.9 1.4.5 2.8.6.8.7 1.1.1.8-.6-.4-2 .1-3 .9-1.7 1.4-1.7 1.5-.1 1 1.1-.3 1.6-.2 1.2.4-.3.6-1.2 1-2 1s-1.1.7-.8 1.8c.2 1-.5 2.8-1.6 4.1-1.1 1.3-1.8 2.7-1.6 3.2.3.4-.3 1.4-1.2 2.1-1 .7-1.9 2-2.1 2.8-.2.8-1.1 2.2-2 3-1.4 1.4-1.5 1.3-.2-.5 1.3-1.9 1.3-1.9-.4-.4-1.5 1.4-1.6 2.1-.7 3.8.9 1.7.9 2.1-.1 1.9-.7-.2-1.2.3-1 1.1.2.9-.3 1.1-1.4.7-1.4-.5-1.5-.4-.4.9.8 1 .9 1.5.1 1.5-.6 0-1.1.7-1.1 1.6 0 1.1-.5 1.4-1.6 1-1.4-.5-1.5-.4-.4.9.8 1 .9 1.5.1 1.5-.6 0-1.1.5-1.1 1.1 0 1.6-2.9 4.1-3.9 3.4-.5-.3-1.2-.1-1.5.4-.4.5-.1 1.3.5 1.7.8.5.9.3.4-.7-.7-1.2-.5-1.2.6-.1 1.2 1.1 1.2 1.4 0 2.1-.8.5-1.1 1.6-.8 2.4.4 1.1.1 1.4-.9 1-.8-.3-1.4.1-1.4 1.1 0 .9-.5 1.6-1.1 1.6-.5 0-.7-.5-.3-1.2.5-.7.2-.9-.8-.6-2.5 1-1.4-3.3 1.2-4.7 1.4-.7 1.9-1.5 1.2-1.9-.6-.4-.9-1.3-.6-2.1.4-.8 1.1-1.2 1.8-.8.8.5.8.3-.1-.8s-.8-1.8.1-3.1c.7-1 1.5-1.5 1.8-1.2.3.2.8-.9 1.2-2.6.4-2.2 1-2.9 1.8-2.4 1 .6 1 .4.2-.7-.9-1.1-.6-1.9 1.1-3.6 1.3-1.2 2.7-1.9 3.1-1.5.5.4.3 0-.4-1-1.4-1.8 0-3.4 2-2.2.6.4.8.3.5-.3-.6-1 2.5-4.6 3.4-4.1.2.2 0-.2-.5-.7-.5-.7-1-.6-1.3.2-.4 1-.8.9-1.9-.2-1.5-1.5-4.4-1-4.4.7 0 .6.6.6 1.4-.1 1-.8 1.6-.9 2.1-.1.3.5-.1 1-1 1-1 0-1.3.5-.9 1.2s.4 1-.1.6c-.4-.4-1.4-.3-2 .2-.9.8-1.4.6-1.8-.4-.4-1-.1-1.3.9-.9s1.2 0 .8-1c-.3-1 .4-2.6 2-4.2 1.4-1.4 2.2-2.5 1.7-2.5-.4 0-.8-.7-.8-1.5s.4-1.5.8-1.5c1.3 0 2.9 3.6 2.1 4.5-.4.5-.1.5.7 0 1-.6 1.2-.4.7.4-.4.6-1.6.9-2.6.6-1-.3-2.1-.1-2.5.4-.3.6 0 .8.8.5.8-.3 1.8-.1 2.1.5 1 1.6 3.6.1 3.6-2.1 0-1 .5-1.6 1-1.3.9.6 1.4-.8 1.1-2.8-.1-.7 1.5-1.1 3.2-.8.4 0 .7-.4.7-1s-.9-.8-2.2-.3c-1.9.6-1.7.2 1-2.1 2.8-2.3 3.1-3 2-4.3-.8-.9-.8-1.3-.2-.9.7.4 1.7-.5 2.4-2.3 1.4-3.4 1.9-3.6 4.6-1.6zm192.4.7c0 .5-.6.8-1.2.6-.7-.1-1.2.4-1 1 .1.7-.2 1.3-.8 1.3-.5 0-1-.5-1-1 0-1.7.5-2.5 1.3-2.3.4.2.7-.2.7-.8 0-.5.5-.7 1-.4.6.3 1 1 1 1.6zm-203.3 1.7c1.3.7 2.2 1.8 2 2.5-.1.7.4 1.1 1.1.9 1.7-.3 1.5.2-1 2.4-1.4 1.3-1.9 1.4-1.4.4.4-.8.1-.6-.8.4-.8 1-1.4 2.2-1.2 2.5.2.3-.4 1.4-1.4 2.3-1.6 1.7-1.7 1.7-3-.7-1.1-2.1-1.1-2.7.4-4.4 1.6-1.8 1.6-1.9-.1-1.7-2.2.1-2.3-1.6-.4-4.3 1.5-2.1 2.5-2.1 5.8-.3zm198.1 1.7c-.3.3-.9-.2-1.2-1.2-.6-1.4-.5-1.5.5-.6.7.7 1 1.5.7 1.8zm-156.3 37.3c-.3.3-1.1 0-1.8-.7-.9-1-.8-1.1.6-.5 1 .3 1.5.9 1.2 1.2zm-66.9 16.5c.2.2-.7.9-2 1.5-2.2 1-2.4.9-1.9-.5.5-1.2.3-1.4-.7-.8-.8.5-1.1.4-.6-.3.6-.9 4.2-.9 5.2.1zm-.1 7.6c.6.1.3.5-.5 1-.8.6-1.8.7-2.2.5-.5-.3-.6.9-.3 2.8.3 2.1.2 2.8-.4 1.9-1-1.5-2-.3-1.6 2.1.2 1.1-.2 1.5-1.2 1.1-.8-.3-1.1-.9-.6-1.2.5-.3.8-1.3.8-2.1-.1-.8.3-2.4.9-3.5.6-1.1.9-2.3.8-2.7-.1-.3.6-.5 1.6-.3.9.2 2.2.4 2.7.4zm-30.2 16.4c.6-.3.1.8-1.2 2.5-1.2 1.8-2.6 3.2-3.1 3.2-1.8 0-1.5-3.6.4-6.1 1.9-2.3 2.1-2.4 2.4-.7.2 1.1.8 1.5 1.5 1.1zM755 400.4c-.5.5-2.1 1-3.5 1.2-2.2.2-2.4 0-1.5-1.1.7-.8.8-2 .4-2.6-.4-.7-.3-.9.4-.5.6.3 1.4.1 1.8-.5.5-.9 1.1-.7 2.1.6.8 1.2 1 2.2.3 2.9zm10.6-2.1c.2 1.2-4.4 5.6-4.7 4.5-.8-3-.5-3.6 1.4-3.3 2.1.4 2.1.3.4-.9-1.4-1.1-1.5-1.5-.5-1.9 2-.8 3.1-.3 3.4 1.6zm-170.9 1.9c-.3.8-.6.5-.6-.6-.1-1.1.2-1.7.5-1.3.3.3.4 1.2.1 1.9zm154.9 4.4c-.3.8-.1 1.4.4 1.4 2.1 0-2.6 3.5-4.9 3.7-1.5.1-1.9-.2-1.1-.7.7-.4 1-1.4.8-2.1-.6-1.8 2.2-4.8 3.9-4.2.8.3 1.2 1.2.9 1.9zm9.4-.5c0 .5.5.7 1.2.3.7-.4.8-.3.4.4-.4.6-1.3.9-2.1.5-1.7-.6-2-2.3-.5-2.3.6 0 1 .5 1 1.1zm-2.5 3.8c-.8 1.4-2.5 1.4-2.5 0 0-.5.5-.7 1-.4.6.3 1 .1 1-.6s.3-1 .6-.6c.3.3.3 1-.1 1.6zm-2.8 4.2c-.7 1.2-1.5 1.5-2.3.9-.6-.6-1.4-.7-1.8-.3-.4.4-.4 0 0-1 .3-.9 1-1.7 1.6-1.7.5 0 .6-.5.3-1.1-.4-.6.2-.5 1.3.2 1.6 1 1.8 1.6.9 3zM731 412c0 .5-.2 1-.4 1-.3 0-.8-.5-1.1-1-.3-.6-.1-1 .4-1 .6 0 1.1.4 1.1 1zm15.7 1.7c-.3.5.1 1.4.9 2.1 1.3 1.2 1.8.8 1.5-1.1 0-.4.4-.7.9-.7 1.3 0 1.3.6-.1 3.1-.6 1.1-1.7 1.8-2.4 1.5-.9-.3-1.2 0-.8 1 .3.7-.1 1.4-.8 1.4-.7 0-1 .3-.7.6.4.3-1 2.2-2.9 4.1-2.8 3-3.7 3.4-4.4 2.2-.8-1.2-1-1.2-.8.1.3 2.6-.1 4.4-.7 3.7-.9-.9-3.6 2.1-2.9 3.2.7 1.2-3.5 4.2-4.8 3.4-.6-.3-.7-.1-.3.5.4.7.2 1.2-.3 1.2-.6 0-1 .6-.8 1.2.1.7-.4 1.2-1.1 1-.8-.1-1.1.2-.7.9.7 1.1-3.4 5.6-4.7 5.1-.5-.1-.7.4-.6 1 .2.8-.5 1.2-1.6 1-1-.2-1.5.1-1.1.7.4.7 0 .8-1 .5-1.2-.5-1.3-.9-.3-2.1.9-1.1.9-1.6-.2-2.3-1.2-.7-1.1-1 .3-1.6.9-.3 1.4-1 1.1-1.5-.3-.5.1-.9.9-.9 1 0 1.3-.7 1-2-.3-1.2 0-2 .6-2 .7 0 1 .4.6.9-.3.5-.1 1.3.5 1.6.6.4.9.2.8-.3-.2-.6.2-1 .7-1 .6 0 .9.5.7 1.1-.3.9 0 .9.9 0s.8-1.5-.5-2.8c-1.5-1.6-1.8-1.6-4.1-.1-1.4.9-2.5 2.3-2.5 3.2 0 .8-.4 1.2-1 .9-.6-.4-.7.1-.3 1.1.4 1.2.3 1.5-.6 1-.7-.5-1-1.4-.7-2.1.2-.7-.1-1.9-.7-2.6-1-1.1-.9-1.1.4-.1s1.9.9 2.9-.3c.7-.8.9-1.5.5-1.5-.5 0 0-.9.9-1.9 1-1.1 1.5-2.4 1.1-3-.4-.7 0-.8 1.1-.4 1.2.4 1.5.3 1-.5-.4-.7-1.5-1.2-2.4-1.2-1.1 0-.1-1.5 3.1-4.4 2.6-2.5 5.2-4.6 5.8-4.8.5-.2 1.1-1.3 1.2-2.5.1-1.8.4-2 1.7-1 2.5 1.9 2.6 2 .5 1.3-1.1-.4-1.6-.4-1.3 0 1 1-1.1 4.6-2.3 3.9-.5-.4-.9-.1-.9.4 0 1.4 1.3 1.4 2.8-.1.9-.9 1.2-.8 1.2.6 0 1 .5 1.4 1.1 1 .8-.4.8-.9 0-1.7-1.7-1.7-1.3-2.6.8-2.4 1.1.1 1.7.6 1.3 1.2-1.2 2-1.1 4.3.2 5.5 1.2.9 1.3.7.9-1.1-.5-1.8-.3-2.1 1.1-1.6.9.4 1.4.3 1.1-.2-.3-.5-.1-1.2.5-1.6.6-.4.8-1.1.5-1.6-.4-.5.1-.9.9-.9.9 0 1.5-.5 1.4-1.2-.2-.7.4-1.2 1.2-1.3.8-.1 1.4-.7 1.2-1.4-.2-.9.3-1.1 1.3-.7.9.3 1.3.2 1-.4-.6-1 .1-3 1.1-3 .3 0 .3.3.1.7zM647.3 430c1 1 .8 1.2-.7.6-1.6-.5-1.7-.4-.6.9 1 1.2.9 1.6-.4 2.1-.9.3-1.4.9-1.2 1.3.3.4-.4 1.2-1.4 1.8-1.6 1.1-1.8.9-1.5-1.3.2-2 0-2.2-1.2-1.3-1.1 1-1.2.8-.7-.6.6-1.4.4-1.6-.7-1.1-.8.4-.4-.1.8-1.2 1.2-1.1 2-2.2 1.7-2.5-.3-.3.6-.4 2.1-.3 1.4.2 3.2.9 3.8 1.6zm60.7 4.9c-.5.9-1.1 2.4-1.4 3.4-.3 1-1.1 1.5-1.6 1.2-.6-.4-.9-.3-.8.2.2.4-.5 1.9-1.6 3.3-1 1.4-1.6 1.8-1.3 1 .2-.8-.2-2.3-1.1-3.3-1-1.1-1.1-1.7-.4-1.7.7 0 1.1-.5 1-1.1-.2-.6.6-1.3 1.6-1.5 1.1-.1 2.3-.9 2.7-1.7 1.2-2 3.9-1.8 2.9.2zm5.5 8.4l.9 2.7c.1.3.5 1.1.9 1.8.5.7.2 1.4-.7 1.8-1.3.5-1.2.9.6 2.4l2.2 1.7-2.1 1.1c-1.1.6-2.3.9-2.6.6-.3-.3-.8 0-1.3.7-.4.7-.3 1 .4.5.6-.3 1.3-.2 1.7.4.6.9-.8 1.4-2.8 1.1-.5-.1-.6.3-.3.8.4.5-.6 2.2-2 3.8-2.5 2.6-2.6 2.7-1.9.5.5-1.9.3-2.3-1.1-2-.9.2-1.9-.4-2.1-1.2-.4-1.3-.3-1.3.6 0 1 1.5 1.2 1.3 1.5-1.2 0-.6.7-1.3 1.5-1.6.9-.3 1.1 0 .6.9-.5.8-.6 1.2-.2.9.3-.3.5-.9.5-1.3s.8-2 1.7-3.4c.9-1.4 1.2-2.2.6-1.9-.6.4-1.1.2-1.1-.3 0-.6-.7-1.1-1.5-1.1s-1.5.5-1.5 1.1c0 .5.4.8.9.4.5-.3 1.2-.1 1.5.4.4.5.2 1.2-.3 1.5-.5.4-1.3.1-1.7-.5-.5-.8-.8-.8-1.4.1-.5.8-.9.7-1.3-.5-.4-.9-.3-1.4.1-1.1.4.2 1.3-1.2 1.9-3.2 1-3.1.9-3.4-.1-2-.7 1-1.7 1.8-2.1 1.8-.4 0-.2-.6.4-1.3.6-.8.7-1.8.3-2.2-.4-.5-.2-.5.5-.2 1.4.8 4.6-2.1 3.8-3.4-.4-.5.2-.6 1.1-.2 1.2.4 1.5.3 1-.5-.4-.8-.2-1 .7-.6.8.3 1.8 1.5 2.2 2.7zm-14.5 5.2c-.4 1.1-.8 2.4-.8 2.8-.2 1.3-3.2 3.9-3.2 2.8 0-.6-.5-1.1-1.1-1.1-.5 0-.7.6-.4 1.2.4.7-.1.4-1-.7-1.4-1.8-1.4-2.1.6-3.6 1.2-.9 1.9-2 1.6-2.5-.3-.5.7-.9 2.3-.9 2.4-.1 2.7.2 2 2zm3.1 12.8c0 1.2-.1 3.1-.2 4.2s0 2.6.2 3.4c.2.7-.2 1.6-1 1.9-.9.3-1.1 0-.6-.9.5-.8.5-1.1.1-.7-.4.3-.6.8-.5 1 .8.9-3.7 6.8-4.9 6.3-.7-.2-1 0-.7.5.8 1.3-2.5 6.1-3.6 5.4-.5-.3-.8 0-.7.8.2.7-.4 1.2-1.2 1-.8-.2-1.2 0-.8.4 1.1 1-8 9.7-9.6 9.1-.7-.3-1.3.1-1.3.9 0 .7.3 1.1.7.9.4-.2.7.2.7 1 0 1.1-.5 1.2-2.1.3-1.9-1-2-1-.7.5.7 1 1.2 1.7 1 1.8-3.1.6-3.8.6-3.3-.2.3-.6 0-1.6-.6-2.4-1.2-1.5-.2-2.1 2.5-1.5.6.1.7-.2.3-.5-.4-.4-.2-1.7.4-2.9.7-1.1 1.1-2.4 1-2.9-.1-.4.3-.7.9-.7.5 0 .7-.5.3-1.2-.5-.8-.2-.9.9-.5s1.7.1 1.7-.8c0-.8.7-1.5 1.5-1.5s1.2-.6.9-1.3c-.6-1.6 1.2-3.3 4.1-3.9 1.1-.2 1.9-1 1.8-1.6-.2-.7.3-1.2 1-1.2.6 0 .4-.5-.6-1.1-1-.6-2.4-.8-3.1-.6-.7.3-1.3-.1-1.3-.8 0-.8.9-1.1 2.6-.9 7.6 1.3 8.1 1.2 6.9-1-1.1-2-1-2 .7-.6 1 .8 1.6 1 1.2.3-.4-.7 0-1.6 1-2.2 2.3-1.2.4-3.5-2.1-2.5-1.4.5-1.4.9-.4 2.2 1.1 1.3 1 1.4-.9.4-1.6-.9-2.4-.9-2.9 0-.4.6-.3.8.4.4s1 .1.9 1.4c-.1 2-1.7 2.9-1.7 1 0-.6-.3-.9-.7-.9-2 .3-3.3-.2-3.3-1.3 0-.6.3-.8.6-.5.4.4 1.5-.3 2.5-1.4.9-1.1 2-2 2.3-2 2.4.3 3 0 1.6-.9s-.7-1.5 1.5-1c.6.1.4-.4-.2-1.1-1.5-1.5-1.7-3.3-.3-2.4.6.3.7-.1.4-.9-.3-.9-.1-1.6.6-1.6.6 0 .8-.5.4-1.2-.5-.8-.2-.9.9-.5 1 .4 1.7.1 1.7-.6 0-.6.7-.1 1.6 1.2.9 1.2 1.6 3.2 1.5 4.4zm2.9 2.7c-1.2 2.2-2.1 2.6-1.7.7.2-1 1.7-2.6 2.5-2.7.1 0-.2.9-.8 2zm-32 33.4c0 .3-.4.8-1 1.1-.5.3-1 .1-1-.4 0-.6.5-1.1 1-1.1.6 0 1 .2 1 .4zm-5 1.6c.8.5 1.2 1.1 1 1.4-.3.2-1.4-.2-2.4-1-2.2-1.5-1-1.9 1.4-.4zm-3.6 4.3c.3-.3.6-.1.6.6 0 .8-.8 1-2.2.6-1.5-.4-1.9-.3-1 .3 1 .7 1 1.1-.3 2.2-.8.7-1.8 1-2.2.6-.3-.3-.1-.6.6-.6s1-1 .7-2.5c-.4-2.2-.2-2.4 1.3-1.5 1 .5 2.1.6 2.5.3zm3.1.7c-1.6 1.8-1.4 2.5.8 2.1.4-.1 0 1-.8 2.3-1.8 2.7-5.7 4.3-4.8 2 .4-1 0-1.2-1.3-.8-1.1.4.1-1.2 2.6-3.4 4.8-4.5 6.5-5.5 3.5-2.2zm-17 19.9c.3.5.2 1.2-.3 1.5-.5.3-.9-.1-.9-.9 0-1.7.3-1.9 1.2-.6zm40 6.1c.3.5.1 1-.4 1-.6 0-1.1-.5-1.1-1 0-.6.2-1 .4-1 .3 0 .8.4 1.1 1zm-45.1 2.5c.3.8.1 1.4-.4 1.2-.5-.1-1.6.7-2.5 1.8-1.3 1.6-1.3 1.4.1-1.3 2.1-3.7 2-3.6 2.8-1.7zm-215.1 29c-.3.9-.8 1.4-1 1.1-.3-.3-.2-.9.2-1.5.9-1.6 1.5-1.3.8.4zm494.7.5c0 .5-.5 1-1.1 1-.5 0-.7-.5-.4-1 .3-.6.8-1 1.1-1 .2 0 .4.4.4 1zm-449 9.4c0 .2-.7.7-1.6 1-.8.3-1.2.2-.9-.4.6-1 2.5-1.4 2.5-.6zm-5 10c0 .3-.4.8-1 1.1-.5.3-1 .1-1-.4 0-.6.5-1.1 1-1.1.6 0 1 .2 1 .4zm-2.6 6.1c-.4.8-.8 1.5-1 1.5-.2 0-.4-.7-.4-1.5s.4-1.5 1-1.5c.5 0 .7.7.4 1.5zm94.1.5c.3.5.2 1-.4 1-.5 0-1.3-.5-1.6-1-.3-.6-.2-1 .4-1 .5 0 1.3.4 1.6 1zm227.8 40.8c-.6 1.5-.5 1.6 1.3.2 1.8-1.4 1.8-1.4.5.2-1.6 2.1-3 1.5-2.8-1.2.1-1 .5-1.7.9-1.4.4.3.4 1.2.1 2.2zm3.4 7.4c-.3.8-.6.5-.6-.6-.1-1.1.2-1.7.5-1.3.3.3.4 1.2.1 1.9zM786 638c0 .5-.2 1-.4 1-.3 0-.8-.5-1.1-1-.3-.6-.1-1 .4-1 .6 0 1.1.4 1.1 1zm-2 2.1c0 1.4-1.7 1-2.3-.5-.4-1-.1-1.3.9-.9.7.3 1.4.9 1.4 1.4zm-17 .4c-.5.7-.6 1.6-.2 2 .4.5.2.5-.4.2-.7-.4-1.7 0-2.4.8-.7.9-.8 1.5-.2 1.5 1.5 0 2.1 3.7.8 5.1-.8 1-.7 1 .6 0 1-.7 1.5-1.8 1.2-2.3-.4-.5.1-.8 1-.6 2 .4 2.2 2.3.4 2.3-.7.1-1.2.6-1.1 1.2.1.6-.5 1-1.5.8-.9-.2-2.1-.4-2.6-.4-.5-.1-.3-.8.4-1.6.6-.8 1-2 .7-2.7-.3-.7-.6-.4-.6.7-.1 1.7-.3 1.8-1.2.5-.9-1.3-1-1.2-.5.2.4 1.2 0 1.8-1.2 1.9-1.2 0-1 .4.8 1.1 2.5 1.1 2.5 1.2.3 1.5-1.4.3-2 .9-1.6 1.9.4 1 0 1.2-1.3.7-1.2-.4-1.5-.3-1 .6.8 1.3-1.5 1.1-2.5-.2-.8-1.2-4 .3-3.2 1.6.4.6.1.7-.7.2-1-.6-.9-1.1.6-2.2 1-.7 2.4-1.1 3.1-.9.7.3 1.5 0 1.9-.6.5-.7.2-.8-.6-.3-.9.5-1 .2-.6-1.2.4-1.2 0-2.5-.9-3.3-1.2-1-1.3-1.6-.3-2.8 1.1-1.3 1.1-1.4 0-.8-1.1.7-1.1.4-.1-1.2.8-1.2 2.1-1.9 3.6-1.7 1.9.2 2.1 0 1.2-1.2-.9-1.1-.8-1.2.5-.7.9.3 1.6 1.5 1.6 2.6 0 1 .5 1.6 1 1.3.6-.4.7-1.2.4-1.8-.4-.7-.4-.9.1-.5.9.9 3.7-1.1 3-2.1-.2-.4.2-.8 1-.8 1 0 1.2.4.5 1.2zm14.4 2.6c-.3.5-1 .7-1.5.4-.5-.4-.9-.1-.9.5 0 .7-.8.9-2.1.5-1.2-.4-1.9-.3-1.6.2.3.5-.2.9-1.2.9s-1.8-.6-1.8-1.3c0-.6.3-1.2.6-1.1 2.7.3 4.2-.4 3.8-1.6-.3-.8-.3-1.7 0-2 .8-.8 5.4 2.5 4.7 3.5zm-39.5 2.3c.9 1 .7 1.9-.9 3.7-1.1 1.4-1.9 1.8-1.8.9.2-.8-.4-1.4-1.2-1.5-.8 0-1.6-.5-1.7-1-.1-.6.5-.9 1.3-.7.8.2 1.4-.1 1.3-.5-.4-2.6 1.2-3.1 3-.9zm29.1.6c0 .5-.2 1-.4 1-.3 0-.8-.5-1.1-1-.3-.6-.1-1 .4-1 .6 0 1.1.4 1.1 1zm-16.5 5c0 .8-.9 1.6-2 1.7-2 .3-2 .3 0-.5 1.9-.9 1.9-.9 0-2.1-2-1.2-2-1.2 0-.9 1.1.2 2 1 2 1.8zm-26.1.8c.3.5-.1.9-.9.9s-1.2-.4-.9-.9c.3-.4.7-.8.9-.8.2 0 .6.4.9.8zm14.1 1.1c.3.6-.5 1.5-1.7 2.1-2.1 1-2.1 1-.6-.3 1-.8 1.5-1.7 1.1-2-.3-.4-.4-.7 0-.7.3 0 .8.4 1.2.9zm6.9 1c.3.4-.4.7-1.4.6-2.7-.2-3.3-1-1-1.2 1.1-.1 2.2.2 2.4.6zm-36.7 2.6c0 .8-.4 1.2-.9.9-.5-.3-.6-1-.3-1.5.9-1.3 1.2-1.1 1.2.6zm32.3-.4c0 .5-.4.8-.9.5-1.5-.9-3.6 2.5-3.3 5.3.2 2 .1 2.3-.7 1.1-1.6-2.3-1.3-4 1.2-6.1 2.5-2.1 3.7-2.4 3.7-.8zm-14.5 2.1c.5-.4.5-.1.1.6s-.1 1.5.8 1.8c1.2.5 1.1.9-.5 2.5-1 1-1.9 2.5-1.8 3.1 0 1 .2 1 .6.1.3-1 1-1 2.6-.2 2 .9 2 .9.5-.4-2.3-1.8-2.3-2.2.1-2.4 1.3-.1 1.8.5 1.7 2-.1 1.5-.7 2.1-1.9 1.9-1-.2-1.7.3-1.7 1.3 0 1.4-.3 1.4-2.4-.2-2.2-1.7-2.3-1.9-.9-3.6.9-.9 1.1-1.7.6-1.7-.6 0-1.3.6-1.6 1.4-.3.8-1.4 1.2-2.5.9-1.4-.3-1.8 0-1.7 1.6.2 2.5 1.4 4 1.6 2 .1-.8.1-1.8 0-2.2-.1-.4 1 0 2.4.9s2.2 2.1 1.8 2.7c-.5.8-.8.7-1.1-.1-.5-1.6-2.2-1.6-1.8 0 .1.7.1 1-.1.6s-1.1-.4-1.9-.1c-.7.3-1.1 1-.7 1.6.3.5.1.7-.5.3-.6-.3-1.3-.2-1.7.3-.3.6-1.3.7-2.3.4-1.5-.6-1.6-.5-.2 1.3.8 1 1 1.6.6 1.2-.5-.4-1.6-.2-2.4.5-1.3 1-1.5.9-.8-.3.4-.8.1-.6-.8.4-.8 1-1.3 2.2-1.1 2.7.6.9-1.5.6-3.2-.4-.9-.6-1.1-.3-.7.8.4 1 .2 1.5-.7 1.3-.8-.2-1.3.2-1.2.7.2 1.5-5.9 1.8-6.8.3-.9-1.4.9-4 2.2-3.2.5.3.8 0 .7-.8-.2-.8.6-1.2 2.2-1.2 1.6.1 3.5-.9 5.2-2.6l2.7-2.8 1.6 2.1c.9 1.2 1.3 1.7 1 1-.5-1.1 3.3-4 4.5-3.4.2.1.6-.2.8-.8.2-.6-.3-.8-1.2-.5-.9.3-1.6.1-1.6-.5s.5-1 1.1-.9c.6.2 1.4-.3 1.6-1 .3-.8-.1-1-1.1-.6-.9.3-1.6.1-1.6-.5s.3-1 .8-.9c.4.2.8-.2 1-.7.2-.6 1.3-2 2.4-3.2 1.5-1.6 2.5-2 3.3-1.3.9.8 1.1.3.8-1.7-.4-2.5-.3-2.6 1-1.1.8 1 1.8 1.4 2.2 1zm-20.1-.3c.3.5-.1 1.1-.9 1.4-.9.4-1.2.1-.8-.9.6-1.6 1-1.7 1.7-.5zm34.6 1.2c0 .5.6.7 1.3.3.6-.4.8-.3.4.1-1 1.1-3.8 1.6-5 .8-.5-.3-.3-.9.4-1.4 1.9-1.2 2.9-1.1 2.9.2zm-7.6 2.3c-.7 1.9-2 2.1-3 .4-.4-.7-.3-.8.5-.4.6.4 1.4 0 1.7-.9.4-.9.8-1.4 1-1.2.3.2.2 1.2-.2 2.1zM501 662c-.8.5-1.7.7-2.1.4-.4-.2-1 .4-1.3 1.3-.4.9-.2 1.9.4 2.3.6.4-.1 1.2-1.7 1.9-1.5.7-2.5.9-2.1.5.4-.4 0-1.2-.9-1.9-1.3-.9-1.3-1.4-.3-2 .8-.5 1.1-.4.7.2-.7 1.1 2.2 2.8 3.1 1.8.3-.3 0-.5-.6-.5-.7 0-1.2-.7-1.2-1.6 0-.8.4-1.3.9-1 .5.3 1.1 0 1.4-.7.2-.7 1.5-1.3 2.8-1.4 1.8-.2 2 0 .9.7zm238 1.6c0 .8-.4 1.2-1 .9-.5-.3-1-.1-1 .5s-.5.8-1.1.5c-.6-.5-.4-1.2.8-2.1 2.3-1.7 2.3-1.7 2.3.2zm-21.3 4.6c-.3.8-.6.5-.6-.6-.1-1.1.2-1.7.5-1.3.3.3.4 1.2.1 1.9zm-.2 2.7c-.6.5-2.5-1-2.5-2 0-.5.6-.4 1.4.3.8.7 1.2 1.5 1.1 1.7zM698.6 684c0 1.2-.4 1.6-.9 1.1s-.6-1.4-.3-2c1-1.5 1.2-1.4 1.2.9zm-61.6 3.6c0 .8-1.9 1.3-2.4.6-.3-.5.1-.9.9-.9s1.5.2 1.5.3zm-227.7 65.7c1.8-.4 1.9-.3.7.6-1.3 1-1.3 1.1 0 1.1.9.1.5.6-1 1.5-1.4.8-2.1 1.4-1.6 1.5.5 0 .3.7-.4 1.5s-1.7 1.2-2.3.8c-.6-.4-.8 0-.4 1.1s.1 1.9-1.1 2.3c-.9.4-2.1 1.3-2.5 2-.6 1-1.2 1.1-2 .4-.9-.7-1.2-.2-1.3 1.5-.2 2.8-2.2 5.6-3.5 4.8-.5-.3-.9.1-.9.9s-.8 2.1-1.7 2.8c-1.4 1.2-1.6 1.2-.9-.1.5-.8-.3-.2-1.8 1.5-1.4 1.6-2.5 3.4-2.6 3.8 0 .5-.4.6-.9.2-.6-.3-1.5.4-2.1 1.5-.7 1.3-1.7 1.9-2.6 1.6-.8-.3-1.3-.2-1 .3.3.5-.1 1.4-.9 2.1-.8.7-1.5.9-1.5.5s-.8-.1-1.7.6c-.9.8-1.4.9-1 .3.3-.6 0-1.1-.7-1.1-.8 0-1.2.6-.9 1.4.3.7 0 1.3-.6 1.3s-1.1-.9-1.1-2.1c0-1.3-.4-1.8-1.2-1.3-.7.3.9-1.5 3.6-4 2.6-2.5 5.3-4.6 5.8-4.6s.6-.5.3-1c-.3-.6-.2-1 .4-1 .5 0 3.6-2.6 6.8-5.7 3.2-3.2 6.1-5.7 6.6-5.5.4.1.6-.4.5-1-.2-.7.3-1.2 1-1 .6.1 1.1-.1 1.1-.5-.3-2 .2-3.4 1.1-2.8.6.3 1 .1 1-.6s1-.9 2.5-.7c2.6.5 3.5-.6 1.3-1.5-.7-.3-.4-.6.6-.6 1.1-.1 1.7-.4 1.4-.7-.4-.3.1-1.3 1-2.3 1.1-1.1 1.8-1.3 2-.5.2.7 1.3 1 2.5.7zm18.6 72.1c-.3.3-1.1-.5-1.8-1.7-1.3-2.1-1.2-2.1.5-.5 1 1 1.6 2 1.3 2.2z"/><path d="M686.3 228.5c0 .8.4 1.2.9.9.5-.3.6-1 .3-1.5-.9-1.3-1.2-1.1-1.2.6zM683 232.4c0 .2.8 1 1.8 1.7 1.5 1.3 1.6 1.2.3-.4s-2.1-2.1-2.1-1.3zM670.5 255c-.3.6.1.7.9.4 1.8-.7 2.1-1.4.7-1.4-.6 0-1.3.4-1.6 1zM635 286.1c0 .5.5.7 1 .4.6-.3 1-.8 1-1.1 0-.2-.4-.4-1-.4-.5 0-1 .5-1 1.1zM645.6 288.6c-.5 1.4-.4 1.5.9.4 1.7-1.4 1.9-2 .6-2-.5 0-1.2.7-1.5 1.6zM621.5 349.1c-.4.6-.5 1.2-.2 1.5.2.3.7-.2 1-1.1.7-1.7.1-2-.8-.4zM636.6 300.8c-.3.5.1.9.9.9s1.2-.4.9-.9c-.3-.4-.7-.8-.9-.8-.2 0-.6.4-.9.8zM633.5 303.1c-.4.6-.5 1.2-.2 1.5.2.3.7-.2 1-1.1.7-1.7.1-2-.8-.4zM639.6 302.9c-.3.5.2 1.5 1.2 2.2 1.5 1.2 1.6 1.2.5-.2-.7-.9-1-1.9-.6-2.2.3-.4.4-.7 0-.7-.3 0-.8.4-1.1.9zM579.7 383.5c.3.8.9 1.2 1.4.9 1.2-.7 1.1-1.1-.5-1.7-1-.4-1.3-.1-.9.8zM752.6 397.8c-.2.4-.1 1.4.3 2.1.6.9 1.1 1 1.5.2.4-.6.2-1.1-.4-1.1-.6 0-.8-.5-.5-1 .3-.6.4-1 .1-1-.3 0-.7.4-1 .8zM746.7 404.3c-.7 1.9.8 4.3 1.7 2.8.4-.6.1-1.1-.6-1.1-1 0-1-.2.1-.9.8-.5.9-1.1.3-1.5-.5-.3-1.2 0-1.5.7zM728.6 432.6c-.3.9.1 1.1 1.1.7 1.2-.5 1.4-.3.8.8-.5.8-.4 1.1 0 .6.5-.4 1-1.3 1.1-2.1.2-1.6-2.4-1.7-3 0zM719.9 435.7c-1.2 1.6-1.2 1.7.2.6.9-.7 2-.9 2.4-.5.5.4.5.1.1-.6-.9-1.6-1.1-1.5-2.7.5zM708.5 448c.3.5 0 1-.7 1.1-.7 0-.3.5.9 1.1 1.6.8 2.7.7 4.4-.5 2-1.5 2.1-1.7.5-2.3-1.1-.4-2.2 0-3.2 1.2-1.2 1.7-1.3 1.7-.8.1.4-1 .1-1.7-.6-1.7-.6 0-.8.4-.5 1zM697.4 464.1c-.4.7-.3.9.4.5.5-.3 1.3 0 1.5.6.4.9.6 1 .6.1.1-1.7-1.6-2.5-2.5-1.2zM664.6 508.2c.3.5 1 .6 1.5.3 1.3-.9 1.1-1.2-.6-1.2-.8 0-1.2.4-.9.9zM739 645.4c0 .2.7.7 1.6 1 .8.3 1.2.2.9-.4-.6-1-2.5-1.4-2.5-.6zM729 661c0 .5.5 1 1.1 1 .5 0 .7-.5.4-1-.3-.6-.8-1-1.1-1-.2 0-.4.4-.4 1zM723 662.5c-1.1 1.3-1 1.4.4.9.9-.3 1.6-1 1.6-1.5 0-1.3-.6-1.1-2 .6zM710.8 676.7c.6.2.9 1 .6 1.5-.4.7-.2.8.5.4 1.3-.9.5-2.6-1.2-2.5-.9 0-.8.2.1.6zM404.6 759.2c.3.5 1 .6 1.5.3 1.3-.9 1.1-1.2-.6-1.2-.8 0-1.2.4-.9.9zM770.6 49.5c-1.9 2.9-2 3.5-.5 3.5.5 0 .7-.5.3-1.2-.5-.8-.2-.9.9-.5.9.3 1.9.1 2.3-.5.5-.7.2-.8-.7-.4-.8.4-.6.1.3-.7 1-.8 1.5-1.7 1.1-2-1.1-1.2-2-.8-3.7 1.8zM776.5 48c-.3.6.1.7.9.4 1.8-.7 2.1-1.4.7-1.4-.6 0-1.3.4-1.6 1zM760.2 62.2c-1.6 1.6-1.5 2.5.4 3.2 1 .4 1.3.2.8-.6s-.2-.9 1-.5c1 .4 1.5.3 1.1-.3-.3-.6 0-1 .7-1 .9 0 .9-.3-.2-1-1.9-1.3-2.4-1.2-3.8.2zm2.8.2c0 .2-.7.7-1.6 1-.8.3-1.2.2-.9-.4.6-1 2.5-1.4 2.5-.6zM679.5 278.9c-.3.5-.2 1.2.3 1.5.5.3.9-.1.9-.9 0-1.7-.3-1.9-1.2-.6zM602.9 320.7c-1 .2-2 1.4-2.4 2.6l-.9 2.7c-.4 1-4.5 7.5-5.5 8.7-.6.7-1.1 1.5-1.1 1.8 0 .4-.7 1.3-1.5 2.2-.8.8-1.3 1.9-1 2.3.3.5-.4 1.4-1.5 2-1.1.6-1.8 1.5-1.5 2.1.4.5.1.9-.4.9-.6 0-1.1.9-1.1 2s-.5 2-1 2c-.7 0-.7.7.1 2.1.8 1.5.8 1.9 0 1.5-.6-.4-1.4.1-1.8 1.1-.4 1-1.7 2.8-3 4-1.3 1.2-2.3 2.6-2.3 3.1s-.7 1.5-1.5 2.2c-1.2 1-1.3 1.6-.3 2.8.7.9.9 1.3.3 1-.5-.3-1.6 0-2.3.8-1 1-1 1.4-.1 1.4.7 0 .9.3.5.7-.4.5-1.1.8-1.5.8-1.2 0-4.5 3.6-4.7 5.1-.1.8.2 1.7.8 2 1.2.7 2.9-1.6 2.2-2.8-.3-.4.2-.8 1.2-.8 1.4 0 1.5-.2.3-1.8-.7-.9-.9-1.4-.5-1 1.2 1 3.7-1.2 2.9-2.5-.4-.6 0-.8 1-.4.9.3 1.6.3 1.6-.1-.3-1.8.2-3.2 1-3 .5.2.9.1.9-.2-.2-1.5 4.4-9 5.2-8.5.6.3.7-.1.4-.9-.3-.9-.1-1.6.5-1.6s1.1-.4 1.1-.9.5-2.2 1.2-3.8c.6-1.5 1.1-3.1 1-3.6-.1-.4.2-.7.8-.7.5 0 .7-.7.4-1.5-.4-1.1-.2-1.3.9-1 1 .4 1.7-.2 2.1-2 .4-1.4 1.1-2.3 1.6-2 .5.3 1.1-.4 1.5-1.5.4-1.1 1-1.8 1.5-1.5.5.3.9-.5.8-1.7-.2-4.5.2-5.9 1.4-5.2.7.4.8.3.4-.4s-.3-1.2.3-1.2.7-.7.4-1.7c-.4-1.1-.3-1.4.5-.9.7.4 1.2.2 1.2-.4 0-.6.5-.8 1.3-.4.9.6.9.5 0-.7-1-1.2-1-1.8-.1-2.7.7-.7 1-1.1.8-1.1-.3.1-1.2.3-2.1.6zM566.5 381c-.3 1.1-1 1.8-1.4 1.6-.4-.3-1.3.4-2 1.6-.7 1.1-.8 1.7-.2 1.3.6-.3 1.1-.2 1.1.3 0 .6-.7 1.3-1.6 1.6-.8.3-1.2 1-.9 1.6.3.5.1 1-.5 1s-.8.4-.5 1c.3.5.2 1-.4 1-.5 0-1.2-.6-1.4-1.3-.4-.7-.6-.8-.6-.1-.1.6.5 1.7 1.3 2.3 1.1.9 2.1.6 4.6-1.8 1.8-1.6 3-3.4 2.6-3.9-.3-.6.2-1.7 1.1-2.4 2-1.5 2.4-4.9.6-5.5-.6-.2-1.4.5-1.8 1.7zM648 426c-.9.6-1 1-.3 1 .6 0 1.5-.5 1.8-1 .8-1.2.4-1.2-1.5 0zM545.9 447.2c-.5 1.8-.6 3.8-.1 3.4.7-.8 1.2-3.6.6-3.6-.2 0-.4.1-.5.2zM675.1 458.7c.3 1.8-.2 2.7-.9 1.6-.6-.9-1.1-.8-1.8.5-1 1.5-.7 1.7 2 1.8 1.7.1 2.5-.1 1.8-.3-.9-.4-1-.8-.2-1.8.8-.9.8-1.5 0-2-.6-.4-1-.3-.9.2zM664.2 467.7c.8 1.1.7 1.2-.8.6-1.7-.6-1.7-.5-.5 1 .8 1 1.5 1.6 1.6 1.5.1-.2.7-1.3 1.4-2.5 1-1.9.8-2.2-.8-2-1.5.1-1.7.4-.9 1.4zM660.3 469.9c.1.5-1 2-2.5 3.4-1.6 1.4-2.8 3-2.8 3.5s-.7 1.5-1.5 2.2c-.8.7-1.3 1.6-1 2 .2.4-.7 1.2-2 1.8-1.4.7-2.5 1.6-2.5 2.2 0 .6-.5.8-1.2.4s-.8-.3-.4.4c.4.6-.4 2.1-1.8 3.3-1.4 1.2-2.3 2.5-2.1 2.9.2.4-.7 1.2-2.1 1.9-1.4.6-2.2 1.6-1.9 2.1.3.6-.1 1-.9 1-1.5 0-4.4 4-2.9 4 .4 0 .1.5-.7 1-.8.5-1 1-.4 1s2.1-.9 3.4-2c1.3-1.1 2-2 1.6-2-.4 0 .6-1.4 2.3-3.1 1.7-1.7 2.9-3.5 2.5-4-.3-.5.1-.9.9-.9 1.7 0 9.3-8.8 8.9-10.2-.2-.6.4-.8 1.3-.4.9.3 1.3.2 1-.4-.3-.5.3-1.4 1.4-2 1.3-.7 1.8-1.6 1.4-2.7-.4-.9-.2-1.4.4-1 .5.3 1.7-.3 2.6-1.4 2.1-2.4 2.1-2.5.2-3.3-.8-.3-1.4-.1-1.2.3zM526.6 474.5c.4.8 1.1 1.5 1.6 1.5.6 0 .5-.6-.2-1.5-.7-.8-1.4-1.5-1.6-1.5-.2 0-.1.7.2 1.5zM522.5 480.1c-1.1 1.6-.1 1.9 1.3.3.7-.8.8-1.4.3-1.4s-1.3.5-1.6 1.1zM628.5 506.5c-1 1.3-2.4 2.1-2.9 1.8-.5-.3-.6-.1-.2.5 1 1.6 3.7 1.5 3.4-.1-.2-.6.2-1.1.7-1 .6.1 1.2-.7 1.2-1.8.2-2.3.2-2.3-2.2.6zM641 508.1c0 .5.5.7 1 .4.6-.3 1-.8 1-1.1 0-.2-.4-.4-1-.4-.5 0-1 .5-1 1.1zM623 511.5c-.7.8-1.7 1.2-2.3.8-.6-.3-.7-.1-.3.5.4.7.1 1.2-.8 1.2-1.9 0-2.8 1.4-2 3.4.5 1.2 1 1 3-1.1 1.3-1.4 2.4-3 2.4-3.5s.4-.7.8-.4c.4.2 1.4.1 2.1-.3 1-.7.9-.9-.2-1.4-.9-.3-2.1.1-2.7.8zM615.3 517.8c-.8.5-.9 1.3-.3 2.2.7 1.2 1 1.2 1.6-.3.8-2.1.3-2.9-1.3-1.9zM501.3 520.5c0 .8.4 1.2.9.9.5-.3.6-1 .3-1.5-.9-1.3-1.2-1.1-1.2.6zM604.5 529c-.3.6.1.7.9.4 1.8-.7 2.1-1.4.7-1.4-.6 0-1.3.4-1.6 1zM952.5 553c-.3.6.1.7.9.4 1.8-.7 2.1-1.4.7-1.4-.6 0-1.3.4-1.6 1zM728.6 646.7c-.6 1.4-.5 1.5.5.6.7-.7 1-1.5.7-1.8-.3-.3-.9.2-1.2 1.2zM697.5 658.9c-.3.5-.2 1.2.3 1.5.5.3.9-.1.9-.9 0-1.7-.3-1.9-1.2-.6zM690 660.9c-1.3 1.1-2.8 1.7-3.2 1.5-.4-.3-.5.3-.1 1.3.5 1.5.4 1.6-.8.7-1.5-1.3-3.1-.2-3.7 2.6-.3 1.2 0 1.1 1.5-.1 1-.9 2.4-1.4 3.1-1.2.6.3 1.2-.1 1.2-.7 0-.9.4-.9 1.6 0 .8.8 1.4.9 1.3.4-.4-2.1.2-3.5 1.1-2.9.6.3 1-.3 1-1.4 0-2.5.1-2.5-3-.2zM701.6 660.2c.3.5 1 .6 1.5.3 1.3-.9 1.1-1.2-.6-1.2-.8 0-1.2.4-.9.9zM678.3 666.2c-1.3.6-2.3 1.5-2.3 2 0 .4-.8.8-1.7.8-1.5 0-1.6.2-.3 1 .8.5 1.7.5 2 .1.3-.5 1.5-1.1 2.8-1.5 1.2-.4 2.2-1.4 2.2-2.2 0-.8-.1-1.4-.2-1.3-.2 0-1.3.5-2.5 1.1zM670.7 671.6c.2.7 1.1 1 1.9.7 1.9-.7 1.8-1-.5-1.6-1.3-.3-1.8-.1-1.4.9zM666.7 672.1c-.9.6-1.7.7-1.7.4 0-.3-1.2.5-2.7 1.9-1.5 1.4-3 2.3-3.3 2.1-.4-.2-.7.2-.7 1 0 1.3.2 1.3 1.6.1 1.7-1.5 1.9-1.6 5.2-1.6 1.1 0 1.8-.4 1.4-.9-.3-.5.4-1.1 1.5-1.3 1.2-.2 1.7-.7 1.2-1.5s-1.3-.8-2.5-.2zM654.8 679c1 1.2 1.8 1.6 2.1.9.2-.6-.3-1.5-1-2-2.4-1.5-2.9-1-1.1 1.1zM651.5 680c-.4.6.1 1.8 1.1 2.5 1.8 1.3 1.8 1.4-.3.8-1.3-.3-2.3-1-2.3-1.7 0-.6-.5-.3-1.1.7-.6.9-1.4 1.5-2 1.2-.5-.3-1.7-.1-2.6.4-1.1.6-1.3 1.1-.5 1.1s1 .5.6 1.2c-.5.9-.2.8.9-.1 1-.7 3.4-1.4 5.5-1.5 3.2-.1 3.7-.4 3.7-2.5 0-2.6-1.9-3.9-3-2.1zM644 682c-.9.6-1 1-.3 1 .6 0 1.5-.5 1.8-1 .8-1.2.4-1.2-1.5 0zM640.2 686.2c-1.5 1.5-1.5 2.8-.2 2.8.6 0 .9-.3.9-.8-.3-1.9.2-2.5 1.1-1.2.6.9 1 1 1 .3 0-1.8-1.5-2.4-2.8-1.1zM595.5 716c.3.5.8 1 1.1 1 .2 0 .4-.5.4-1 0-.6-.5-1-1.1-1-.5 0-.7.4-.4 1zM591.9 720.7c-1.3 1.6-1.2 1.7.4.4 1.6-1.3 2.1-2.1 1.3-2.1-.2 0-1 .8-1.7 1.7zM548 742c-.8.5-1 1-.5 1 .6 0 1.7-.5 2.5-1s1.1-1 .5-1c-.5 0-1.7.5-2.5 1zM118.4 802.2c-.3.5-1.8.7-3.2.5-1.5-.2-4.3 0-6.2.5-1.9.5-5.1 1.1-7 1.4-1.9.2-4.2.7-5 1-.8.3-3.1.8-5 1.1-1.9.3-4.3.9-5.2 1.4-2.4 1.3-5.4 1.1-7-.4-4.2-4.1-8.9-5.5-15.6-4.8-1 .1-1.2 1.5-.8 5.5.6 6.5-.3 7.5-9 11-6.1 2.5-6.1 2.5-5.5 8.3 0 .7.9 1.3 1.9 1.3 1.1 0 2.7.9 3.7 2s2.9 2 4.1 2c4 0 5.3 3.4 4.9 13.5-.1 4.9-.3 9.3-.4 9.7-.1.3-1.4 1.9-2.9 3.5-5.4 5.4-5.6 6.7-1.8 10.9l3.4 3.7-.1 12.2c-.2 9.4-.5 12.5-1.7 13.6-1.6 1.5-11.3 8-14.3 9.6-1.1.5-1.8 1.4-1.7 1.9.2.5-.8 1.5-2.1 2.1-1.3.7-2 1.3-1.6 1.3.5 0-.5 1.2-2.2 2.6-1.7 1.4-3.1 3.3-3.1 4.1 0 1.3.3 1.3 1.5.3s2.1-1 4-.2c1.9.9 2.7.8 4-.4.8-.9 1.5-1.3 1.5-1 0 .3 3.4-1.3 7.5-3.5s7.5-3.5 7.5-3c0 .6 2.6-.9 5.8-3.3 3.1-2.3 7.7-5.6 10.2-7.2 2.5-1.6 6.3-4.6 8.5-6.7 2.2-2.1 4.9-4.6 6-5.6 2.4-2.2 17.2-11.8 23.5-15.2 2.5-1.3 4.7-2.6 5-2.9.3-.3 2.4-1.8 4.8-3.3 2.3-1.5 4.2-3.1 4.2-3.5 0-.4 1.7-1.8 3.7-3.2 6.2-4.1 9.4-7.3 10.9-10.8 2.8-6.8-.4-11.5-7.6-11.1-2.5.2-5.8.8-7.5 1.5-1.6.6-3.8 1-4.9.8-1-.1-3 .2-4.5.8-1.4.5-4.4 1.2-6.6 1.5-2.2.2-4.3.9-4.6 1.5-.4.7-1.1.3-1.8-.9-.9-1.8-.4-2.6 3.7-6.2 15.1-13.3 18.3-16.2 24.3-22.3 4.7-4.6 6.6-7.2 6.3-8.5-.7-2.6-7-6.4-11.3-6.8-2-.2-3.6-.4-3.6-.5 0-.7-6.7-.5-7.1.2zm-15 17.4c2 .8 2 1.8.2 3.6-6.6 6.4-12.1 11.3-12.7 11.3-.4 0-2.7 1.9-5.2 4.2-4.2 4-4.6 4.1-6.1 2.4-.9-1-1.3-2-1-2.3.7-.8 1.2-3.5 1.3-7.1.1-2.4 4.1-7.3 5.9-7.1.6 0 15.3-5.1 15.9-5.5.1 0 .8.2 1.7.5zm15.2 37.7c.8.8-7.5 8.7-9.2 8.7-.8 0-1.4.4-1.4.9s-1.3 1.4-3 2.1c-1.6.7-3 1.6-3 1.9 0 .4-1.8 1.7-4 3-2.2 1.2-4 2.6-4 3 0 .5-1.3 1.4-2.9 2.1-1.6.6-3.8 2-4.8 2.9-1.1 1-2.9 2.3-4.1 3-2.9 1.5-4.2-1-4.2-8.3 0-5.1.3-5.7 3.3-7.9 3.1-2.2 6-3.6 15.7-7.2 2.5-.9 5-2.1 5.7-2.7.7-.5 1.6-.7 2.1-.4.4.3 2.6-.1 4.7-.8 3.7-1.3 8-1.5 9.1-.3zM218.5 823.1c-4.7 2.7-10.2 6.1-12.2 7.6-3.6 2.7-5.5 4.3-17.5 15.5-2.8 2.7-5.4 4.8-5.9 4.8-1 0-22.9 21.3-22.9 22.3 0 .4-.9 1.7-2 2.9s-2 2.8-2 3.5c0 .7-.4 1.3-.8 1.3-1.3 0-3.2 4.6-2.7 6.7.6 3.2 8.5 16.7 10.8 18.6 1.2 1 3.3 2.3 4.7 2.9 2.9 1.2 25.8 1.9 28 .7.8-.4 3.6-.9 6.2-1.2 2.6-.3 5.3-.9 5.9-1.3.6-.4 3.9-.8 7.2-.9 3.4-.1 6.3-.7 6.4-1.2.2-.6 2.2-.8 4.5-.6 2.6.4 6.7-.3 11.2-1.7 12.5-3.8 13.2-4 15.2-4 1.1 0 2.5-.5 3.1-1.1.5-.5 2.3-1.2 3.9-1.4 1.6-.2 5.9-1.3 9.7-2.4 3.7-1.1 6.7-1.7 6.7-1.4 0 .3.8-.1 1.8-1 1.7-1.6 2.1-6.1 1.3-15.5-.1-1.4-4.9-1.6-8.3-.3-4.2 1.6-10 3.3-12.1 3.6-1.2.2-4.9 1.1-8.2 2-3.3.9-7.3 1.8-8.9 2-1.5.3-3.8.8-5 1.2-1.1.4-3.9.7-6.1.8-2.2 0-4.5.4-5.2.8-.6.4-3.8.9-7.1 1.1-3.2.1-6.4.6-7.1 1-.6.4-4.3.9-8.1 1-3.8.1-7.4.7-8.2 1.2-.7.6-6.2 1.1-12.2 1.2-8.9.2-11.2 0-12.7-1.4-1.6-1.5-1.7-1.9-.5-4.3.8-1.4 2.3-3.5 3.5-4.5 1.2-1.1 2.1-2.3 2.1-2.7 0-1.1 10.6-11.9 11.7-11.9.4 0 3.5-2.5 6.8-5.5 3.2-3 6.5-5.5 7.2-5.5.7 0 3.8-2.5 6.8-5.5 3.1-3 5.9-5.5 6.4-5.5.4 0 1.8-.9 3.1-2 1.2-1.1 4.6-3.4 7.4-5.2 2.8-1.8 5.4-3.7 5.8-4.3.5-.6.8-.6.8 0 0 .5.4.5.8-.2.6-1 .8-9.6.3-13.8-.3-2.4-5.7-.9-13.6 3.6zM813 910c0 .5-.6 1.5-1.3 2.2-.7.7-2.3 3.3-3.5 5.8-3.8 7.5-6.7 12.5-7.4 12.8-.5.2-.8 1.2-.8 2.1 0 1-.9 2.6-1.9 3.5-1.9 1.7-2.1 1.6-6-2.4-2.3-2.3-4.1-4.6-4.1-5.1 0-.4-1.1-2-2.4-3.4-1.3-1.4-3.2-4.2-4.1-6.1-.9-2-2.8-3.9-4.3-4.5-1.5-.5-3.4-1.2-4.2-1.6-2.6-1-8.9-.9-9.3.2-.7 1.8.2 11.7 1.1 12.9.5.6.9 3.3 1 6.1 0 2.7.5 6.1 1 7.5 1.1 2.9 1 22.9-.1 24.7-1.3 2.1-1.6 10.1-.3 10.6 2.6 1 12.1-.3 13.2-1.7 1.5-2.1 1-27.6-.6-30.6-.9-1.8-.8-2.5.6-4.1 1.8-1.9 1.8-1.9 4.3.9 3.8 4.2 8.9 7.5 11.9 7.5 5.5.1 12.1-3.5 12.2-6.6 0-.9.4-1.7.9-1.7s1.1-.9 1.4-2c.8-3.1 3-2.6 2.6.6 0 .4.5 1.1 1.3 1.5.9.6 1 .9.1.9-1 0-1 .6-.1 2.7.6 1.6 1.2 7.1 1.4 12.3.5 10.7.8 14.2 1.6 15.6.2.5.4 4.8.3 9.6-.1 8.1 0 8.7 2.2 9.7 2.6 1.2 4.9.6 7.2-1.9 2.4-2.5 2.3-3.6-.2-8.8-2.2-4.5-2.3-5.6-2.3-27.7.1-12.7.6-23.7 1.1-24.5 1.9-3 1.1-14.5-1.1-14.5-.5 0-1.4-.3-2-.7-1.9-1.2-9.4-2.6-9.4-1.8zM467.5 911.3c-1.6.5-4 .8-5.3.8-2.8-.1-15.4 6.1-18 8.9-2.5 2.7-2.3 5.2.6 8.5 2.6 3 3 6.4 1.4 11.5-1.4 4.6-2.6 10.8-2.7 14.5-.1 1.6-.5 3.8-1 4.8-.4 1.1-.8 5.2-.8 9.3l-.1 7.5-4.7 2.2c-8.7 4-6.6 8.4 3.8 8.2 5-.1 6.8-.6 8.6-2.3 1.3-1.2 2.8-2.2 3.4-2.2.6 0 4.6-1.6 8.8-3.6 4.3-2 8.3-3.7 9-3.8.6-.1 2.4-.9 3.8-1.9 1.5-.9 3-1.7 3.4-1.7.5 0 2.5-.9 4.6-2 2-1.1 3.7-1.7 3.7-1.3 0 .5.4.3.8-.3.4-.5 2.3-1.8 4.2-2.8 9.9-5 15.3-9.7 18.1-15.6 2.4-4.9 3.1-10.8 1.6-12.8-.5-.6-.6-1.2-.1-1.2s.4-.4-.2-.8c-.5-.4-2.1-2.5-3.4-4.7-2.1-3.7-8.7-10.4-10.1-10.5-.3 0-1.9-1.1-3.4-2.4-2.4-2.1-10.6-5.2-12.6-4.8-.3 0-2.8-.5-5.5-1.2-3.3-.9-5.9-1-7.9-.3zm20 13.6c10.3 3.6 15.3 9.7 13.4 16.5-1.9 6.9-9.4 12.5-30.9 23.2-4.1 2.1-8.3 4.4-9.2 5.2-1 .8-1.8 1.2-1.8.8 0-.3-1.2.1-2.6 1-2.3 1.5-2.7 1.6-4.1.2-1-1.1-1.3-2.3-.7-3.9.4-1.3.7-3 .6-3.7-.2-.6.2-1.2.8-1.2.5 0 1-.8 1-1.8s.6-2.6 1.3-3.7c.7-1.1 1.4-3.6 1.6-5.5.2-1.9.7-4.3 1.3-5.3.5-1 .8-5.3.6-9.6-.3-8.6.4-10.1 5.5-12.7 6.8-3.6 11.9-3.4 23.2.5zM749.6 911.2c-.9.5-2.9 1.2-4.4 1.4-1.5.3-4.9 1.2-7.7 2.1-2.7 1-6.3 1.8-7.8 1.9-1.6.1-3.3.6-4 1.3-.6.6-2.1 1.1-3.2 1.1-1.2 0-2.5.3-2.9.7-1.6 1.6-12 4.2-13.5 3.3-.9-.5-1.1-1-.6-1 .6 0 1.1-1.5 1.1-3.4.1-2.6-.3-3.6-1.8-3.9-1.4-.4-2.3.4-3.6 3.1-.9 2-2.9 4.3-4.5 5-2.8 1.3-6.2 7.6-5.3 9.8.2.6 0 1.6-.6 2.2-.5.5-1.1 3.3-1.4 6.3-.4 5.9-2.8 9.2-8.1 11.4-4.2 1.8-4.3 4.7-.3 8.3 2.9 2.7 3.3 5.3 1.4 8.4-.4.7-.8 2.4-.9 3.8-.1 1.4-.5 3.1-.9 3.8-1.4 2.3.5 5.1 4 6.1 4.2 1.1 7.1.7 9.4-1.4.9-.8 2.3-1.5 3.1-1.5.8 0 1.9-.4 2.5-.9.5-.5 4.5-2.1 8.9-3.6s9-3.3 10.2-4.1c1.2-.7 3.6-1.5 5.5-1.7 1.8-.2 4.2-.8 5.3-1.4 1.1-.6 2.6-.8 3.3-.6.7.3 2.9-.5 5-1.8 2-1.2 4.6-2.3 5.7-2.4 3.7-.4 5.6-1.7 7.4-5.4 2.4-4.9 1.8-7.2-2-6.9-1.6.1-2.9.6-2.9 1s-.9.5-2 .3-2.6.2-3.2.9c-.7.7-2.2 1.1-3.4.8-1.2-.2-3.4.2-5 1s-3.6 1.4-4.4 1.3c-.8 0-3 .5-4.9 1.3-1.8.7-3.5 1.1-3.8.8-.3-.2-2 .2-3.9 1-1.8.8-3.7 1.3-4.1 1.2-.5-.1-1.8.3-2.9 1-1.2.6-2.4.9-2.7.6-.3-.3-1.4-.1-2.6.5-1.4.8-2.2.8-2.6.1-.9-1.4 1.4-4.2 2.7-3.4.6.4 1.4.1 1.8-.6.4-.7 2-1.4 3.4-1.5 1.5-.2 3.2-.8 3.9-1.3.7-.6 1.7-1.1 2.2-1.1.6-.1 3.3-.9 6-1.8 2.8-1 5.2-1.8 5.5-1.8 7.9-2 9-2.8 9-7 0-5.5-.7-6.3-4.8-5.8-2 .2-4.4.7-5.2 1-.8.3-1.8.6-2.2.5-.4-.1-2 .3-3.5.9-1.5.6-3.7 1.2-4.8 1.4-1.1.1-3.3.7-4.9 1.4-2.4.9-3.2.9-4.3-.2-1.9-1.8.4-3.7 8.2-6.7 3.3-1.3 6.5-2.6 7-3 .6-.3 2.8-1.2 5-1.8 2.2-.6 6.5-1.9 9.5-2.8 3-.9 6.5-1.7 7.7-1.9 1.2-.2 2.8-.7 3.5-1.1.7-.5 2.4-1 3.7-1.2 1.3-.2 3.7-1 5.2-1.8 2.7-1.4 2.8-1.8 1.5-6.9-1.3-5.4-3.7-7.2-7-5.3zM329.1 914.2c-.6 1.5-1.1 3.2-1.2 3.6-.1.4-.6 1.8-1.1 3.2-.5 1.4-1.1 3.2-1.3 4-.2.8-.9 2.8-1.6 4.5-.6 1.6-1.3 3.4-1.5 4-.7 3-4.9 11.2-6.3 12.3-.9.7-2.8 1.8-4.3 2.3-2.3.9-2.6 1.5-2.2 4.7.3 1.9.9 4.1 1.4 4.6.5.7-1.4 5.8-5.1 13.4-7 14.3-7.5 15.9-4.9 16.7 1.5.5 8.1-.1 8.6-.8.1-.1 2.1-4 4.5-8.7 2.4-4.7 4.6-8.7 4.9-9 .6-.6 5-9.8 5-10.5-.1-1.9 8.6-7.5 11.5-7.5 1.1 0 3.3-.7 4.8-1.5s3.4-1.2 4.1-.9c1.2.4 5.6 8.2 5.6 9.8 0 2.7 7.2 15 8.3 14 .3-.3 1.9-.6 3.5-.6 5.1-.2 5.1-1.5-.6-17.3-1.4-3.8-3.1-8-3.8-9.4-.7-1.3-1.1-2.8-.9-3.1.3-.4-.4-1.5-1.5-2.5s-2-2.2-2-2.6c0-1.2-7.2-13.3-8.4-14.1-.6-.4-.8-.8-.4-.8s-.2-1.8-1.3-4c-1.2-2.2-2.5-3.7-3-3.4-.5.3-.9.1-.9-.4s-2-1.3-4.5-1.9c-4.3-1-4.4-.9-5.4 1.9zm11.8 20.1c1.1 2.7-1.2 4.7-5.3 4.7-4.5 0-5.5-4.7-1.9-8.7l2.4-2.5 2 2.1c1.1 1.1 2.3 3.1 2.8 4.4zM585.9 912c-1.1.6-7.1 1.8-12.4 2.5-3.6.5-9.5 2-12.1 3.1-1.7.7-3.4 1.1-3.6.8-.3-.2-1.1.2-1.7 1-.7.8-1.9 1.2-2.7.9-.8-.3-2-.1-2.7.5-.6.5-2.6 1.3-4.4 1.6-3.1.7-3.2.6-3.5-3.1-.3-3.3-.7-3.8-3-4.1-2.2-.3-2.8.1-2.8 1.7 0 1.1-1.7 3.4-3.9 5.1-3.6 2.9-7.2 10.3-5.7 11.8.3.3.1 1.1-.4 1.7-.6.7-1.3 3.2-1.6 5.6-.7 5.5-2.9 8.7-8 11.5-4.6 2.6-4.7 4.7-.3 8.4 3.2 2.7 3.3 4.3 1 10.2-.6 1.6-.9 2.8-.6 2.8.2 0-.2 1.7-1 3.9l-1.3 3.9 4.1.7c2.3.4 4.8.9 5.5 1.1.8.1 2.2-.6 3.3-1.7 1-1 3.1-2.1 4.6-2.5 1.6-.4 3.4-1.1 4.1-1.7.6-.5 1.2-.6 1.2-.2 0 .4.7.2 1.5-.5s1.5-1 1.5-.6c0 .3 1.6-.3 3.5-1.4 2-1.1 4.2-2 5.1-2 .8 0 2.9-.8 4.7-1.7 1.8-1 4.1-1.8 5.2-1.8 1.1 0 2.6-.4 3.3-.9.7-.4 2.8-1 4.5-1.2 3-.5 5.9-1.5 9.9-3.5 1-.5 2.9-.9 4.2-.9 4.6 0 8.8-7.7 6.3-11.6-.7-1.2-6-.3-12.2 2-1.6.6-3.4 1-3.8.8-.4-.1-2 .4-3.5 1.1-1.5.7-3.4 1.3-4.2 1.2-.8 0-3 .5-4.7 1.2-1.8.7-3.3 1.1-3.3.8 0-.2-1.2 0-2.7.6-1.6.6-3.9 1.3-5.3 1.6-1.4.2-3.4 1-4.6 1.8-1.4.9-2.6 1-3.7.3-1-.5-1.6-.6-1.5-.1.2.4 0 .9-.4 1-1.9.7-2.6.1-2.1-1.7.5-1.9 1.6-2.5 3.7-2.1.5.1 1.7-.6 2.7-1.5 1.1-1 2.2-1.5 2.5-1.1.3.3 3-.6 6-1.9 3-1.3 5.5-2.3 5.7-2.2.1.1 3.2-.9 7-2.1 5.7-1.9 6.8-2.7 7.3-4.9.3-1.5.7-3.2.9-3.9.2-.6-.2-1.8-.8-2.8-1.4-1.9-5.5-1.6-13.2.9-2.7 1-6.1 1.9-7.5 2.2-1.4.2-3.5 1-4.8 1.6-1.8.9-2.6.9-3.8-.3-1.3-1.4-1.3-1.7.3-3.1 1-.8 4.7-2.5 8.3-3.8 3.6-1.3 7.1-2.8 7.8-3.3.6-.5 1.2-.7 1.2-.3 0 .3 2.4-.3 5.3-1.4 2.8-1.1 6.1-2.1 7.2-2.3 1.1-.2 2.7-.7 3.5-1 .8-.4 2.6-.8 4-1.1 4.4-.8 13.5-3.8 14.7-4.8 3.6-2.9-3.7-13-7.8-10.8zM426.8 913.7c-.8 1-2.1 3.4-2.8 5.3-.8 1.9-2 4.1-2.8 4.9-3.3 3.4-12.3 26.3-13.7 35.1-.3 1.9-1.3 5-2.2 6.9l-1.7 3.4-2.5-3.3c-2.8-3.6-8-14.9-8.7-19-.3-1.4-1.2-4.1-2.1-6-2.3-4.8-2.7-6.7-2.7-12.8 0-6.1-1.2-6.6-8.3-3.1-4.7 2.3-5.1 3.5-2.8 7.9 2.4 4.6 2.1 9-1.1 17.5-1.1 2.7-1.9 5.9-1.9 7 .1 1.1-.5 2.9-1.2 4.1-.7 1.1-1 2.3-.7 2.6.3.4 0 1.7-.7 3-1.4 2.4-2.1 9.7-1 9.9 5.1.8 10.1.5 10.2-.7.2-1.6.6-3.3.9-3.7.6-.8 1.2-4.9 1.2-9.2 0-2.8.6-5.8 1.3-6.8 1.2-1.7 1.4-1.6 3.4.9 1.2 1.5 2.4 3.8 2.7 5.1.4 1.2 1 2.3 1.5 2.3s.9.6.9 1.3c0 .7.9 2.3 2 3.5 1.1 1.2 2 2.5 2 2.9 0 .5.7 1.6 1.5 2.6.8.9 1.5 2.1 1.5 2.6 0 .4 1 1.9 2.3 3.3 2.1 2.4 3.2 2.7 9 1.9.4-.1.6-.4.5-.9-.1-.4.2-2.6.6-4.9.4-2.4.8-4.6.8-5 0-.5.5-1.9 1-3.3s1.2-3.6 1.5-5c.2-1.3.8-2.9 1.2-3.5.5-.5.7-1.9.5-3-.1-1.1.6-3.4 1.7-5.2 1.1-1.8 2.2-4.6 2.3-6.3.1-1.7.8-3.6 1.4-4.2.7-.7 1.2-1.9 1.2-2.8 0-.8 1.8-3.3 4-5.4 2.2-2.2 4-4.3 4-4.8s1.6-2.4 3.5-4.4c1.9-1.9 3.7-4.5 3.9-5.9.9-5-8.2-8.7-11.6-4.8zM243.9 917.2c-.1 2.4-.1 4.7 0 5.3.7 3.2.1 27.7-.7 29.2-.5 1-1 5.1-1 9.2-.1 4.1-.6 7.7-1.1 8-.5.4-.9 3.5-.8 7.1l.2 6.5 3.6.3c2.7.2 4.7-.4 7.5-2.3 2.2-1.5 6.8-4.2 10.4-6 6-3 8.9-3.8 17.8-5 1.8-.2 3.7-.7 4.4-1.1.6-.4 2.9-.8 5-.9 2.1-.1 4.1-.4 4.4-.7 1-1.1 1.3-5.3.5-6.7-1.2-1.8-10.1-2.2-12.6-.5-1.1.8-3.4 1.4-5.1 1.4-1.7 0-5.6.9-8.5 2.1-3 1.2-6.3 2.5-7.4 2.9-1.1.4-3.3 1.3-4.9 1.9-4.7 1.9-6.3-.4-5.8-8.1.2-3.5.7-6.5 1.2-6.8 1.1-.7 1-34-.1-34-.5 0-.9-.6-.9-1.3 0-1.6-3.2-4.7-4.8-4.7-.7 0-1.2 1.7-1.3 4.2zM645.5 919.6c-1 .7-2.2 1.1-2.6.8-.5-.3-5.5 1.9-11.1 4.8-5.7 2.9-10.5 5.3-10.8 5.3-.8.1-5.4 2.7-6 3.4-.3.3-3.1 2.3-6.2 4.3s-5.9 4.6-6.3 5.8c-.3 1.1-1 2-1.5 2s-1.9 1.6-3.1 3.6c-2.2 3.6-3.5 13.6-2.1 15.9.4.5.8 1.9 1 3 .4 3 5 9.5 6.7 9.5.8 0 1.5.4 1.5 1 0 .5 1.7 1.7 3.8 2.6 4.1 1.9 20.6 2.6 25.7 1.1 1.7-.5 4.7-1 6.7-1.2 2-.1 4.2-.7 5-1.1.7-.5 2.2-1 3.3-1.1 1.1-.2 5.2-1.5 9-2.9 3.9-1.4 8.5-3 10.4-3.4 1.8-.5 3.8-1.3 4.3-1.8 2.5-2.5 1.1-11.7-2.4-15.4-.7-.7-1.8-2.6-2.3-4.3-.6-1.6-2.5-3.9-4.2-5.1-2.7-1.8-4.6-2.2-12-2.1-4.9 0-9.9.6-11.2 1.3-1.3.7-3 1-3.7.7-.7-.3-3.4.3-5.9 1.2-3.9 1.5-4.5 2.2-4.5 4.6 0 1.5.5 3.1 1 3.4.6.3 1 1.4 1 2.5 0 1.4.8 1.8 3.8 1.8 2 0 4.4-.4 5.3-.9.9-.5 3.6-1.1 5.8-1.4 2.3-.3 5-.9 5.9-1.3 2.4-1.1 9.4-.7 12 .7 4.1 2.2 2.7 3.7-6.8 7-3.6 1.3-7.4 2.7-8.6 3.3-1.1.5-3.1 1.1-4.5 1.3-1.3.2-3.8.8-5.6 1.3-1.7.6-3.4.8-3.6.5-.3-.2-1.5.1-2.7.7-2.9 1.6-18.7 1.7-20.2.2-.7-.7-1.9-1.2-2.8-1.2-2.5 0-5.1-5.1-3.8-7.5 1.4-2.5 11.3-12.3 15.5-15.2 5.8-4.1 28.7-15.5 31.7-15.9 10.6-1.2 10.6-1.2 10.6-6.4 0-2.8-.6-5.2-1.4-5.9-1.8-1.5-11.8-1.2-14.1.5z"/></svg>