<?xml version="1.0" standalone="no"?>
<!DOCTYPE svg PUBLIC "-//W3C//DTD SVG 20010904//EN"
 "http://www.w3.org/TR/2001/REC-SVG-20010904/DTD/svg10.dtd">
<svg version="1.0" xmlns="http://www.w3.org/2000/svg"
 width="516.000000pt" height="538.000000pt" viewBox="0 0 516.000000 538.000000"
 preserveAspectRatio="xMidYMid meet">
<metadata>
Created by potrace 1.15, written by Peter Selinger 2001-2017
</metadata>
<g transform="translate(0.000000,538.000000) scale(0.100000,-0.100000)"
fill="#000000" stroke="none">
<path d="M4293 5038 c-11 -13 -23 -30 -27 -38 -3 -8 -3 1 0 20 l7 35 -37 -45
c-21 -25 -44 -53 -52 -63 -8 -9 -14 -21 -14 -25 0 -4 -9 -16 -21 -25 -12 -11
-18 -25 -15 -34 4 -10 2 -13 -7 -10 -13 5 -47 -24 -47 -41 0 -4 -22 -30 -48
-58 -26 -28 -46 -56 -45 -61 2 -6 -10 -25 -27 -43 -16 -17 -30 -38 -30 -45 0
-18 -17 -28 -25 -15 -9 15 -20 6 -54 -45 -18 -27 -28 -52 -25 -63 4 -13 3 -14
-4 -4 -7 11 -11 10 -17 -5 -5 -10 -7 -26 -6 -35 1 -11 -3 -16 -11 -13 -16 6
-61 -62 -54 -81 3 -8 1 -14 -4 -14 -12 0 -45 -61 -42 -78 2 -7 -2 -11 -9 -10
-11 3 -57 -61 -78 -109 -5 -11 -14 -24 -20 -27 -6 -4 -10 -22 -9 -42 1 -23 -5
-39 -17 -48 -11 -8 -16 -20 -12 -29 4 -10 2 -14 -6 -12 -7 3 -21 -14 -32 -38
-11 -23 -26 -48 -32 -55 -7 -7 -13 -19 -13 -26 0 -7 -10 -24 -23 -38 -13 -14
-21 -30 -20 -35 2 -6 -1 -14 -6 -18 -14 -8 -14 -25 -1 -25 6 0 10 6 10 14 0 8
7 17 16 20 19 7 12 -21 -17 -68 -10 -17 -24 -42 -31 -56 -16 -32 -37 -54 -45
-46 -3 3 1 14 10 24 10 10 17 24 17 30 0 7 4 12 9 12 5 0 11 9 14 20 8 31 -22
25 -35 -7 -6 -16 -10 -34 -9 -42 1 -8 -3 -12 -11 -9 -9 4 -14 -5 -15 -30 -1
-19 -7 -40 -12 -45 -6 -6 -11 -19 -11 -29 0 -9 -9 -22 -20 -28 -11 -6 -23 -23
-26 -38 -4 -15 -15 -39 -26 -54 -10 -15 -18 -33 -17 -40 4 -37 -2 -60 -15 -55
-9 4 -16 -4 -21 -21 -9 -38 -57 -132 -66 -132 -5 0 -5 7 -2 17 4 11 3 14 -5 9
-6 -4 -9 -19 -6 -34 4 -20 0 -33 -15 -46 -12 -11 -21 -25 -21 -32 0 -12 -21
-66 -41 -106 -5 -10 -9 -27 -9 -37 0 -11 -15 -35 -33 -53 -34 -34 -78 -101
-117 -178 -60 -121 -70 -139 -80 -145 -5 -3 -10 -16 -10 -29 0 -13 -9 -31 -20
-41 -11 -10 -20 -26 -20 -36 0 -10 -6 -24 -14 -31 -8 -8 -26 -37 -40 -64 -24
-44 -91 -146 -131 -199 -8 -11 37 84 100 210 63 127 121 250 130 275 9 24 22
54 29 65 7 11 16 31 19 45 4 14 17 37 31 51 13 14 27 41 31 60 4 19 17 51 31
71 13 20 26 49 30 65 4 15 17 51 30 79 13 28 27 69 32 90 5 21 30 86 56 144
27 58 56 124 67 147 10 23 16 50 12 59 -4 12 -3 15 6 10 16 -10 62 94 54 124
-4 14 -1 27 9 34 8 6 20 32 27 59 8 26 17 47 20 47 4 0 7 9 8 21 1 11 10 33
20 47 10 15 19 34 19 42 1 8 15 47 31 85 45 106 77 219 64 223 -6 2 -11 8 -11
13 0 4 7 6 15 3 10 -4 15 0 15 14 0 11 -5 22 -12 24 -10 4 -10 13 -1 41 22 73
-7 35 -65 -85 -193 -396 -270 -547 -293 -574 -8 -9 -14 -22 -14 -28 -1 -14
-22 -65 -37 -91 -6 -11 -23 -42 -37 -70 -14 -27 -31 -54 -38 -58 -7 -4 -13
-14 -13 -21 0 -18 -23 -69 -60 -131 -16 -27 -29 -60 -30 -73 0 -12 -7 -25 -15
-28 -8 -4 -15 -16 -15 -28 0 -12 -4 -26 -9 -32 -5 -5 -13 -29 -18 -53 -4 -25
-15 -47 -22 -49 -8 -3 -11 0 -7 7 4 6 5 11 2 11 -11 0 -56 -99 -51 -113 3 -7
-3 -22 -15 -32 -11 -10 -20 -26 -20 -36 0 -10 -4 -20 -9 -23 -5 -3 -12 -17
-15 -30 -3 -13 -25 -57 -47 -97 -23 -41 -45 -85 -49 -99 -4 -15 -14 -25 -24
-25 -23 0 -39 -30 -30 -57 5 -16 3 -20 -9 -15 -12 5 -17 -2 -19 -31 -2 -28 -7
-37 -20 -36 -13 1 -18 -6 -18 -22 0 -32 -29 -76 -46 -70 -10 4 -64 -62 -64
-80 0 -8 -29 -75 -41 -94 -5 -8 -12 -22 -15 -30 -11 -30 -21 -45 -28 -42 -8 3
-66 -87 -99 -153 -10 -22 -30 -54 -43 -72 -13 -17 -24 -38 -24 -46 0 -8 -8
-25 -18 -38 -10 -13 -25 -37 -34 -54 -8 -16 -24 -46 -35 -65 -90 -156 -163
-284 -163 -287 0 -12 -121 -194 -164 -248 -56 -68 -75 -120 -56 -154 5 -11 10
-29 10 -40 0 -30 26 -32 127 -12 51 10 90 14 87 9 -12 -19 52 -2 186 50 68 26
239 101 282 123 12 6 18 5 18 -1 0 -6 -61 -40 -135 -76 -127 -62 -143 -73
-130 -86 8 -7 194 37 282 67 100 35 101 30 3 -18 -64 -32 -85 -47 -85 -62 0
-24 37 -32 69 -16 12 6 65 24 118 41 54 16 106 33 115 39 10 5 59 21 108 35
50 14 122 39 160 55 39 16 88 34 110 41 22 7 86 35 143 61 56 27 105 49 108
49 7 0 220 96 256 116 14 8 33 14 41 14 30 0 325 134 380 172 15 11 27 16 27
13 0 -3 12 2 28 12 15 10 39 25 54 32 28 15 28 47 -1 36 -8 -3 -47 -15 -87
-25 -39 -11 -83 -24 -98 -30 -34 -13 -39 -13 -31 0 9 15 -28 12 -80 -6 -26 -8
-51 -14 -57 -12 -14 5 48 42 84 51 15 4 39 17 55 30 15 13 68 46 117 73 50 27
115 63 145 81 31 18 72 40 91 49 19 9 43 20 52 25 10 5 29 9 42 9 14 0 34 10
46 22 19 21 111 71 355 194 61 30 145 76 187 102 140 85 231 135 254 140 12 2
31 13 41 25 17 20 17 20 -2 15 -11 -3 -29 -9 -40 -13 l-20 -8 20 16 c11 9 18
16 15 17 -11 0 -100 -29 -119 -39 -11 -6 -33 -12 -48 -12 -26 -1 -195 -59
-237 -81 -13 -7 -21 -6 -26 2 -5 9 -21 6 -58 -10 -29 -12 -49 -26 -46 -31 3
-5 -2 -6 -10 -3 -9 3 -16 1 -16 -5 0 -6 -3 -10 -8 -9 -14 5 -123 -45 -112 -52
6 -4 -2 -7 -17 -7 -16 0 -46 -11 -68 -24 -22 -14 -48 -23 -57 -21 -10 2 -24
-8 -34 -22 -9 -14 -21 -26 -28 -26 -6 0 -4 5 4 10 9 6 11 10 3 10 -7 0 -19
-12 -27 -27 -8 -16 -18 -27 -23 -25 -13 4 -93 -21 -93 -30 0 -4 -6 -8 -14 -8
-16 0 -69 -40 -62 -47 2 -3 15 1 28 7 44 23 -3 -16 -52 -42 -57 -31 -80 -39
-80 -30 0 4 19 15 42 25 32 14 38 21 27 27 -8 6 -15 6 -17 0 -2 -6 -10 -10
-18 -10 -8 0 -14 -4 -14 -10 0 -5 -7 -10 -15 -10 -9 0 -18 -7 -21 -15 -4 -8
-14 -15 -24 -15 -10 0 -20 -5 -22 -11 -2 -5 -10 -11 -18 -13 -29 -5 -95 -41
-108 -58 -7 -10 -20 -18 -28 -18 -8 0 -33 -14 -56 -30 -23 -17 -48 -28 -55
-25 -8 2 -11 0 -8 -5 4 -6 -9 -17 -28 -25 -18 -7 -39 -21 -47 -29 -7 -9 -19
-16 -26 -16 -8 0 -14 -4 -14 -10 0 -5 -8 -10 -17 -10 -10 0 -27 -7 -37 -15
-11 -8 -29 -15 -41 -15 -12 0 -25 -4 -31 -9 -8 -7 -80 -46 -262 -142 -18 -10
-38 -22 -45 -27 -7 -6 -43 -22 -82 -36 -38 -14 -88 -36 -110 -48 -22 -11 -38
-18 -35 -15 13 14 84 58 115 71 19 8 99 55 178 105 80 50 158 97 173 104 43
19 143 78 149 88 3 4 13 6 23 3 13 -5 14 -4 3 4 -11 8 -9 12 10 23 13 6 58 37
99 68 41 30 101 68 133 84 31 16 57 33 57 38 0 5 7 9 16 9 9 0 33 17 53 38 20
21 43 42 51 45 8 4 35 21 60 37 25 16 54 34 65 39 12 5 27 16 34 25 7 9 18 16
23 16 17 0 151 113 155 131 3 11 11 15 20 12 11 -4 14 -2 11 8 -3 8 4 24 15
37 33 36 9 26 -98 -39 -190 -117 -247 -149 -261 -149 -16 0 -42 -14 -98 -53
-21 -15 -45 -27 -51 -27 -7 0 -17 -6 -23 -13 -6 -7 -46 -30 -89 -52 -43 -21
-91 -49 -108 -61 -16 -12 -42 -25 -57 -29 -14 -4 -35 -15 -45 -25 -11 -9 -28
-20 -39 -24 -10 -3 -37 -22 -59 -41 -22 -19 -45 -33 -52 -31 -6 3 -29 -7 -50
-22 -21 -15 -50 -33 -65 -41 -16 -8 -28 -18 -28 -23 0 -4 -7 -8 -15 -8 -8 0
-15 -4 -15 -9 0 -5 -21 -17 -47 -27 -27 -10 -61 -26 -76 -37 -27 -18 -57 -17
-57 2 0 6 10 15 23 22 12 6 81 68 153 138 169 163 351 337 505 481 172 161
258 249 287 292 13 21 28 35 33 32 5 -3 9 1 9 8 0 7 17 27 37 44 35 29 36 32
20 48 -9 10 -17 13 -17 7 0 -6 -5 -11 -10 -11 -17 0 -53 -38 -46 -49 4 -5 1
-13 -5 -17 -8 -4 -9 -3 -5 4 16 26 -27 10 -62 -22 -65 -60 -97 -86 -106 -86
-5 0 -2 8 7 18 10 10 14 21 11 24 -5 6 -35 -13 -113 -70 -58 -43 -33 1 60 107
50 58 109 130 132 160 23 31 71 86 107 122 36 36 89 96 118 133 29 36 57 64
61 61 8 -5 47 34 73 73 9 13 39 47 67 77 28 29 51 57 51 61 0 4 35 41 78 83
76 73 162 172 162 185 0 3 53 65 118 137 64 71 118 134 120 138 1 5 23 29 47
55 25 25 45 54 45 62 0 14 -3 14 -16 3 -11 -9 -17 -10 -22 -1 -5 7 -29 -9 -67
-44 -33 -30 -66 -54 -72 -54 -7 0 -13 -7 -13 -16 0 -10 -6 -14 -15 -11 -16 7
-58 -26 -130 -101 -27 -29 -55 -52 -60 -52 -6 0 -21 -13 -35 -30 -14 -16 -32
-30 -40 -30 -9 0 -33 -18 -55 -39 -21 -22 -41 -39 -44 -38 -3 1 -21 -11 -39
-27 -24 -22 -29 -32 -20 -39 10 -6 9 -7 -3 -4 -20 6 -74 -46 -65 -61 4 -6 2
-13 -4 -17 -5 -3 -10 -1 -10 6 0 8 -4 8 -15 -1 -8 -7 -15 -19 -15 -27 0 -17
-35 -49 -68 -63 -13 -6 -22 -16 -21 -22 3 -18 -11 -48 -23 -48 -5 0 -6 5 -3
10 3 6 2 10 -3 10 -6 0 -9 -11 -8 -25 1 -24 16 -37 16 -14 0 5 4 8 10 4 18
-11 -2 -35 -25 -31 -17 3 -22 0 -19 -9 3 -7 1 -16 -5 -20 -6 -3 -11 -1 -11 5
0 6 -5 8 -11 4 -8 -4 -7 -9 2 -15 7 -4 11 -9 9 -11 -3 -2 -15 -12 -28 -23 -17
-14 -25 -16 -31 -7 -5 8 -17 3 -39 -18 -32 -29 -48 -65 -17 -40 27 22 16 -2
-27 -59 -62 -83 -78 -97 -89 -80 -7 11 -9 10 -9 -4 0 -10 -7 -20 -15 -23 -8
-4 -13 -10 -10 -15 3 -4 -8 -15 -26 -24 -27 -14 -92 -78 -95 -94 -8 -32 -19
-51 -29 -51 -8 0 -16 -8 -19 -17 -3 -10 -34 -47 -68 -83 -71 -73 -118 -133
-118 -149 0 -6 -4 -11 -10 -11 -5 0 -10 -7 -10 -15 0 -8 -12 -22 -27 -32 -16
-10 -30 -20 -33 -24 -3 -3 -10 -8 -16 -10 -15 -6 -164 -174 -164 -186 0 -5
-12 -16 -26 -24 -14 -7 -30 -24 -35 -37 -5 -13 -18 -26 -29 -29 -11 -3 -22
-13 -25 -22 -6 -20 -191 -207 -220 -224 -13 -7 -8 3 14 31 18 23 37 42 42 42
5 0 21 19 36 43 29 45 72 99 171 211 35 39 71 85 79 101 9 17 34 51 57 76 22
25 60 67 84 93 23 26 42 52 42 57 0 5 5 15 10 22 6 7 30 40 53 74 23 35 74
104 113 155 39 51 79 106 90 123 10 16 27 38 37 48 10 10 15 22 12 27 -4 6 -1
10 4 10 6 0 11 7 11 16 0 9 5 12 12 8 7 -4 8 -3 4 5 -5 7 24 49 73 107 45 52
82 101 82 107 4 38 19 68 30 61 5 -3 12 3 16 13 4 10 24 43 45 73 40 58 52 91
17 46 -12 -15 -24 -25 -27 -22 -2 3 6 20 20 38 28 36 71 128 60 127 -4 0 -49
-54 -101 -119 -51 -65 -127 -156 -167 -202 -41 -46 -93 -109 -117 -140 -23
-31 -45 -57 -49 -57 -16 -2 -7 24 27 70 19 27 35 52 35 55 0 3 19 38 43 77 24
40 51 90 59 112 9 22 19 39 23 37 6 -2 75 128 75 141 0 3 -8 7 -17 9 -14 3
-12 8 10 32 15 16 27 24 27 17 0 -6 5 -11 11 -11 6 0 8 8 4 19 -3 12 0 21 11
25 9 4 14 13 10 21 -3 8 -1 15 5 15 6 0 7 5 4 10 -10 17 -25 11 -25 -10 0 -11
-4 -20 -10 -20 -5 0 -22 -19 -36 -42 -15 -24 -30 -45 -34 -48 -3 -3 -25 -30
-47 -61 -23 -31 -56 -71 -73 -90 -17 -19 -38 -49 -47 -66 -15 -32 -33 -44 -33
-23 0 25 -29 5 -74 -50 -54 -65 -81 -84 -67 -47 5 13 48 101 96 197 48 96 103
208 122 249 20 40 46 85 58 100 12 14 26 41 29 58 4 18 12 35 17 39 5 3 21 27
34 54 14 27 33 54 43 59 11 6 27 36 37 68 10 32 32 81 50 108 18 28 44 73 58
100 14 28 46 82 71 120 26 39 49 81 53 95 7 28 189 386 208 410 7 8 19 33 26
55 8 22 29 67 48 100 39 69 71 132 71 140 0 12 -18 4 -37 -17z m-581 -995
c-10 -15 -43 -71 -72 -123 -29 -52 -75 -131 -102 -176 -26 -45 -48 -87 -48
-95 0 -8 -15 -39 -33 -69 -18 -30 -54 -94 -81 -142 -26 -49 -51 -88 -57 -88
-8 0 4 33 31 83 10 16 2 22 -22 18 -5 0 -8 5 -8 13 0 8 9 12 25 10 21 -2 31 6
51 38 14 22 23 42 21 44 -3 3 -14 -12 -26 -32 -17 -28 -25 -34 -33 -26 -9 9
-7 15 7 26 11 8 21 31 24 57 5 33 10 43 22 41 10 -1 19 6 22 18 3 11 1 18 -4
14 -15 -9 -10 7 17 54 17 28 29 40 34 33 4 -7 7 0 8 17 1 42 34 105 55 108 15
2 18 -2 12 -23 -10 -42 10 -18 65 79 55 94 101 160 108 153 2 -2 -5 -16 -16
-32z m362 -895 c-10 -13 -67 -75 -125 -138 -165 -179 -179 -194 -179 -202 0
-5 -7 -8 -15 -8 -9 0 -18 -8 -22 -17 -9 -26 -149 -180 -227 -251 -18 -16 -18
-16 -7 5 6 12 15 25 21 28 5 3 7 12 4 20 -3 7 8 28 25 46 17 17 31 38 31 45 0
15 80 104 80 89 0 -5 14 12 30 38 17 26 35 45 40 42 5 -3 7 0 4 8 -5 13 17 41
118 149 21 21 41 37 46 34 5 -3 28 22 52 55 31 42 46 57 54 49 8 -8 8 -13 0
-18 -6 -4 -14 -16 -18 -27 -4 -12 13 -1 41 28 48 48 82 66 47 25z m151 -1187
c-3 -5 -51 -33 -108 -62 -56 -28 -108 -56 -114 -61 -7 -6 -25 -7 -40 -4 -17 4
-23 3 -15 -2 12 -8 -6 -20 -168 -104 -25 -12 -46 -26 -48 -30 -2 -5 -8 -8 -13
-8 -6 0 -7 5 -4 10 15 24 -16 7 -34 -19 -11 -16 -31 -31 -43 -34 -21 -5 -21
-5 -5 7 9 7 17 17 17 22 0 13 58 47 68 40 4 -2 19 4 32 15 14 10 19 19 13 19
-7 0 -13 5 -13 10 0 7 6 7 19 0 26 -13 34 -13 28 3 -2 6 9 20 25 29 15 10 28
22 28 28 0 5 12 10 26 10 16 0 23 -4 18 -11 -4 -7 -1 -10 7 -7 8 3 14 13 14
22 0 17 23 33 102 71 37 17 49 17 45 -2 -4 -19 5 -16 88 27 84 44 83 43 75 31z"/>
<path d="M540 1073 c0 -30 -5 -36 -36 -49 -41 -17 -40 -31 4 -59 29 -18 31
-25 32 -74 0 -43 -5 -60 -22 -79 -21 -22 -22 -25 -6 -36 11 -8 17 -31 20 -81
l3 -68 -67 -50 c-38 -27 -68 -53 -68 -58 0 -16 49 -10 91 12 42 21 133 83 158
107 8 8 64 47 125 88 115 77 186 134 186 151 0 5 -8 17 -18 26 -17 15 -26 15
-103 2 -46 -8 -87 -15 -92 -15 -4 0 12 17 35 37 64 55 148 137 148 143 0 13
-58 37 -95 38 -22 1 -78 -6 -125 -17 -75 -17 -87 -17 -102 -4 -9 8 -28 16 -42
17 -23 3 -26 0 -26 -31z"/>
<path d="M1294 987 c-137 -92 -304 -256 -304 -299 0 -24 34 -90 55 -108 19
-16 116 -22 171 -10 21 4 71 14 109 20 75 13 157 32 243 57 l52 14 0 45 c0 24
-3 44 -8 44 -4 0 -41 -9 -82 -21 -144 -41 -470 -77 -458 -51 23 52 175 193
276 256 34 21 42 32 42 56 0 25 -4 30 -24 30 -13 0 -46 -15 -72 -33z"/>
<path d="M4254 503 c-21 -38 -39 -70 -41 -73 -5 -5 -54 47 -88 93 -12 16 -34
30 -54 34 l-34 6 8 -34 c4 -19 9 -90 11 -159 l3 -125 27 2 c40 3 46 19 39 112
l-5 83 31 -26 c20 -17 42 -26 65 -26 29 0 37 5 51 35 24 50 30 31 39 -112 8
-134 14 -154 41 -136 10 6 16 17 14 25 -15 56 -18 90 -15 175 2 54 6 114 9
134 4 31 1 37 -21 47 -14 7 -29 12 -34 12 -5 0 -26 -30 -46 -67z"/>
<path d="M1443 540 c6 -22 -8 -237 -19 -295 -9 -47 17 -52 81 -15 29 16 84 37
124 46 73 17 77 19 62 42 -7 12 -19 12 -67 2 -33 -7 -79 -21 -103 -31 -24 -11
-45 -18 -46 -17 -1 2 3 54 9 116 8 98 7 117 -6 140 -21 35 -43 42 -35 12z"/>
<path d="M1870 538 c-5 -13 -20 -52 -34 -88 -18 -48 -30 -66 -45 -68 -22 -4
-27 -21 -12 -37 6 -6 -3 -38 -25 -84 -19 -40 -34 -75 -34 -77 0 -2 9 -4 20 -4
22 0 60 53 94 128 16 35 26 44 68 58 27 9 50 14 51 13 1 -2 15 -30 30 -61 26
-57 52 -74 63 -43 8 19 -29 114 -71 187 -19 33 -35 63 -35 68 0 10 -33 30 -50
30 -6 0 -15 -10 -20 -22z"/>
<path d="M2327 482 c-21 -42 -49 -108 -61 -147 l-23 -70 -17 27 c-23 36 -66
155 -66 186 0 21 -3 23 -27 17 -36 -9 -34 -5 -21 -48 8 -27 8 -43 0 -60 -6
-12 -18 -48 -27 -81 -17 -62 -12 -81 21 -74 15 2 21 18 30 68 l10 65 24 -45
c12 -25 34 -61 49 -80 14 -19 26 -36 27 -38 5 -9 34 13 34 25 0 9 9 46 19 82
10 36 22 78 25 93 3 15 12 33 19 40 7 7 26 30 42 52 28 37 28 39 10 52 -10 8
-21 14 -24 14 -3 -1 -23 -36 -44 -78z"/>
<path d="M2505 545 c-33 -15 -65 -39 -65 -48 0 -3 6 -12 14 -19 11 -12 11 -29
-5 -113 -11 -54 -17 -106 -14 -115 4 -11 -3 -20 -21 -28 -29 -14 -28 -35 2
-40 26 -4 280 118 322 154 21 19 35 41 38 64 5 30 0 41 -32 79 -63 73 -164
101 -239 66z m169 -50 c19 -8 43 -27 52 -41 16 -23 16 -28 1 -59 -14 -29 -35
-43 -129 -90 -62 -30 -114 -51 -116 -45 -2 5 3 31 12 57 8 27 18 78 22 115 5
50 11 68 23 71 36 10 101 6 135 -8z"/>
<path d="M3055 535 c-136 -42 -129 -41 -122 -16 3 11 1 24 -4 27 -5 3 -9 1 -9
-5 0 -6 -11 -22 -26 -36 -16 -16 -29 -46 -37 -81 -9 -43 -17 -58 -34 -65 -27
-10 -28 -17 -8 -39 11 -13 13 -24 5 -51 -6 -18 -10 -39 -10 -46 0 -15 41 -28
49 -15 3 6 71 32 151 59 124 42 145 52 148 71 4 28 0 28 -137 -8 -130 -34
-121 -33 -121 -21 0 4 35 21 78 36 42 15 83 32 90 37 13 11 17 48 5 48 -9 0
-95 -23 -130 -34 -17 -5 -23 -3 -23 7 0 13 95 52 215 88 51 15 59 22 50 48 -8
27 -29 26 -130 -4z"/>
<path d="M3875 535 c-136 -42 -125 -41 -125 -9 -1 27 -1 28 -12 9 -6 -11 -20
-27 -30 -36 -10 -9 -24 -43 -31 -74 -9 -44 -17 -59 -34 -66 -27 -10 -28 -17
-8 -39 11 -13 13 -24 5 -51 -6 -18 -10 -39 -10 -46 0 -15 41 -28 49 -15 3 6
71 32 151 59 124 42 145 52 148 71 4 28 0 28 -137 -8 -130 -34 -121 -33 -121
-21 0 5 17 15 38 22 121 39 142 50 142 75 0 29 2 29 -85 4 -83 -24 -75 -23
-75 -6 0 15 135 69 203 81 51 10 71 27 63 53 -9 28 -30 27 -131 -3z"/>
<path d="M3435 511 c-136 -50 -243 -144 -231 -204 23 -113 140 -135 328 -61
64 25 68 27 61 52 -3 15 -9 29 -13 32 -3 3 -9 13 -13 22 -3 9 -17 24 -32 34
-23 15 -32 15 -98 3 -63 -12 -72 -17 -69 -34 6 -31 14 -34 64 -24 54 12 118 9
119 -6 1 -18 -133 -57 -211 -62 -55 -3 -80 -1 -94 10 -18 14 -18 15 -1 45 10
17 31 40 47 52 54 40 179 100 208 100 30 0 36 12 24 44 -8 20 -27 20 -89 -3z"/>
</g>
</svg>
